NotoSansGurmukhi-CondensedLight.ufo
<glyph name="quotedbl.guru" format="2">
  <advance width="350"/>
  <unicode hex="0022"/>
  <outline>
    <contour>
      <point x="101" y="471" type="line"/>
      <point x="124" y="471" type="line"/>
      <point x="127" y="729" type="line"/>
      <point x="98" y="729" type="line"/>
    </contour>
    <contour>
      <point x="227" y="471" type="line"/>
      <point x="250" y="471" type="line"/>
      <point x="253" y="729" type="line"/>
      <point x="224" y="729" type="line"/>
    </contour>
  </outline>
</glyph>
<glyph name="quotesingle.guru" format="2">
  <advance width="224"/>
  <unicode hex="0027"/>
  <outline>
    <contour>
      <point x="101" y="471" type="line"/>
      <point x="124" y="471" type="line"/>
      <point x="127" y="729" type="line"/>
      <point x="98" y="729" type="line"/>
    </contour>
  </outline>
</glyph>
<glyph name="parenright.guru" format="2">
  <advance width="275"/>
  <unicode hex="0029"/>
  <outline>
    <contour>
      <point x="59" y="-165" type="curve"/>
      <point x="87" y="-165" type="line"/>
      <point x="159" y="-37"/>
      <point x="209" y="133"/>
      <point x="209" y="333" type="curve" smooth="yes"/>
      <point x="209" y="534"/>
      <point x="159" y="704"/>
      <point x="87" y="832" type="curve"/>
      <point x="59" y="832" type="line"/>
      <point x="136" y="696"/>
      <point x="182" y="527"/>
      <point x="182" y="334" type="curve" smooth="yes"/>
      <point x="182" y="140"/>
      <point x="136" y="-29"/>
    </contour>
  </outline>
</glyph>
<glyph name="asterisk.guru" format="2">
  <advance width="507"/>
  <unicode hex="002A"/>
  <outline>
    <contour>
      <point x="123" y="381" type="line"/>
      <point x="146" y="365" type="line"/>
      <point x="254" y="522" type="line"/>
      <point x="363" y="364" type="line"/>
      <point x="386" y="381" type="line"/>
      <point x="271" y="533" type="line"/>
      <point x="454" y="589" type="line"/>
      <point x="445" y="616" type="line"/>
      <point x="265" y="552" type="line"/>
      <point x="268" y="745" type="line"/>
      <point x="240" y="745" type="line"/>
      <point x="243" y="552" type="line"/>
      <point x="62" y="616" type="line"/>
      <point x="53" y="589" type="line"/>
      <point x="237" y="533" type="line"/>
    </contour>
  </outline>
</glyph>
<glyph name="plus.guru" format="2">
  <advance width="411"/>
  <unicode hex="002B"/>
  <outline>
    <contour>
      <point x="193" y="309" type="line"/>
      <point x="193" y="120" type="line"/>
      <point x="219" y="120" type="line"/>
      <point x="219" y="309" type="line"/>
      <point x="373" y="309" type="line"/>
      <point x="373" y="335" type="line"/>
      <point x="219" y="335" type="line"/>
      <point x="219" y="524" type="line"/>
      <point x="193" y="524" type="line"/>
      <point x="193" y="335" type="line"/>
      <point x="38" y="335" type="line"/>
      <point x="38" y="309" type="line"/>
    </contour>
  </outline>
</glyph>
<glyph name="hyphen.guru" format="2">
  <advance width="264"/>
  <unicode hex="002D"/>
  <outline>
    <contour>
      <point x="41" y="310" type="line"/>
      <point x="41" y="284" type="line"/>
      <point x="222" y="284" type="line"/>
      <point x="222" y="310" type="line"/>
    </contour>
  </outline>
</glyph>
<glyph name="slash.guru" format="2">
  <advance width="334"/>
  <unicode hex="002F"/>
  <outline>
    <contour>
      <point x="266" y="833" type="line"/>
      <point x="41" y="-166" type="line"/>
      <point x="68" y="-166" type="line"/>
      <point x="293" y="833" type="line"/>
    </contour>
  </outline>
</glyph>
<glyph name="zero.guru" format="2">
  <advance width="411"/>
  <unicode hex="0030"/>
  <outline>
    <contour>
      <point x="205" y="-10" type="curve" smooth="yes"/>
      <point x="316" y="-10"/>
      <point x="361" y="120"/>
      <point x="361" y="357" type="curve" smooth="yes"/>
      <point x="361" y="595"/>
      <point x="319" y="724"/>
      <point x="206" y="724" type="curve" smooth="yes"/>
      <point x="98" y="724"/>
      <point x="51" y="597"/>
      <point x="51" y="358" type="curve" smooth="yes"/>
      <point x="51" y="121"/>
      <point x="94" y="-10"/>
    </contour>
    <contour>
      <point x="205" y="16" type="curve" smooth="yes"/>
      <point x="114" y="16"/>
      <point x="78" y="134"/>
      <point x="78" y="358" type="curve" smooth="yes"/>
      <point x="78" y="581"/>
      <point x="115" y="698"/>
      <point x="207" y="698" type="curve" smooth="yes"/>
      <point x="298" y="698"/>
      <point x="334" y="578"/>
      <point x="334" y="358" type="curve" smooth="yes"/>
      <point x="334" y="135"/>
      <point x="298" y="16"/>
    </contour>
  </outline>
</glyph>
<glyph name="equal.guru" format="2">
  <advance width="411"/>
  <unicode hex="003D"/>
  <outline>
    <contour>
      <point x="44" y="430" type="line"/>
      <point x="44" y="404" type="line"/>
      <point x="367" y="404" type="line"/>
      <point x="367" y="430" type="line"/>
    </contour>
    <contour>
      <point x="44" y="240" type="line"/>
      <point x="44" y="215" type="line"/>
      <point x="367" y="215" type="line"/>
      <point x="367" y="240" type="line"/>
    </contour>
  </outline>
</glyph>
<glyph name="greater.guru" format="2">
  <advance width="411"/>
  <unicode hex="003E"/>
  <outline>
    <contour>
      <point x="38" y="156" type="line"/>
      <point x="38" y="127" type="line"/>
      <point x="376" y="309" type="line"/>
      <point x="376" y="335" type="line"/>
      <point x="38" y="517" type="line"/>
      <point x="38" y="488" type="line"/>
      <point x="348" y="322" type="line"/>
    </contour>
  </outline>
</glyph>
<glyph name="backslash.guru" format="2">
  <advance width="334"/>
  <unicode hex="005C"/>
  <outline>
    <contour>
      <point x="41" y="833" type="line"/>
      <point x="266" y="-166" type="line"/>
      <point x="293" y="-166" type="line"/>
      <point x="68" y="833" type="line"/>
    </contour>
  </outline>
</glyph>
<glyph name="bracketright.guru" format="2">
  <advance width="278"/>
  <unicode hex="005D"/>
  <outline>
    <contour>
      <point x="55" y="-139" type="line"/>
      <point x="55" y="-165" type="line"/>
      <point x="184" y="-165" type="line"/>
      <point x="184" y="832" type="line"/>
      <point x="55" y="832" type="line"/>
      <point x="55" y="806" type="line"/>
      <point x="158" y="806" type="line"/>
      <point x="158" y="-139" type="line"/>
    </contour>
  </outline>
</glyph>
<glyph name="asciicircum.guru" format="2">
  <advance width="411"/>
  <unicode hex="005E"/>
  <outline>
    <contour>
      <point x="193" y="719" type="line"/>
      <point x="23" y="332" type="line"/>
      <point x="53" y="332" type="line"/>
      <point x="205" y="683" type="line"/>
      <point x="358" y="332" type="line"/>
      <point x="388" y="332" type="line"/>
      <point x="217" y="719" type="line"/>
    </contour>
  </outline>
</glyph>
<glyph name="bar.guru" format="2">
  <advance width="403"/>
  <unicode hex="007C"/>
  <outline>
    <contour>
      <point x="189" y="832" type="line"/>
      <point x="189" y="-166" type="line"/>
      <point x="215" y="-166" type="line"/>
      <point x="215" y="832" type="line"/>
    </contour>
  </outline>
</glyph>
<glyph name="danda.guru" format="2">
  <advance width="317"/>
  <unicode hex="0964"/>
  <outline>
    <contour>
      <point x="185" y="0" type="line"/>
      <point x="211" y="0" type="line"/>
      <point x="211" y="622" type="line"/>
      <point x="185" y="622" type="line"/>
    </contour>
  </outline>
</glyph>
<glyph name="dbldanda.guru" format="2">
  <advance width="480"/>
  <unicode hex="0965"/>
  <outline>
    <contour>
      <point x="347" y="0" type="line"/>
      <point x="374" y="0" type="line"/>
      <point x="374" y="622" type="line"/>
      <point x="347" y="622" type="line"/>
    </contour>
    <contour>
      <point x="185" y="0" type="line"/>
      <point x="211" y="0" type="line"/>
      <point x="211" y="622" type="line"/>
      <point x="185" y="622" type="line"/>
    </contour>
  </outline>
</glyph>
<glyph name="adakbindiguru" format="2">
  <unicode hex="0A01"/>
  <outline>
    <contour>
      <point x="-90" y="683" type="curve" smooth="yes"/>
      <point x="-17" y="683"/>
      <point x="19" y="739"/>
      <point x="31" y="847" type="curve"/>
      <point x="5" y="850" type="line"/>
      <point x="-5" y="757"/>
      <point x="-30" y="708"/>
      <point x="-90" y="708" type="curve" smooth="yes"/>
      <point x="-149" y="708"/>
      <point x="-175" y="757"/>
      <point x="-185" y="850" type="curve"/>
      <point x="-211" y="847" type="line"/>
      <point x="-199" y="739"/>
      <point x="-163" y="683"/>
    </contour>
    <contour>
      <point x="-90" y="797" type="curve" smooth="yes"/>
      <point x="-76" y="797"/>
      <point x="-64" y="809"/>
      <point x="-64" y="835" type="curve" smooth="yes"/>
      <point x="-64" y="861"/>
      <point x="-75" y="873"/>
      <point x="-90" y="873" type="curve" smooth="yes"/>
      <point x="-104" y="873"/>
      <point x="-117" y="860"/>
      <point x="-117" y="835" type="curve" smooth="yes"/>
      <point x="-117" y="809"/>
      <point x="-103" y="797"/>
    </contour>
  </outline>
</glyph>
<glyph name="bindiguru" format="2">
  <unicode hex="0A02"/>
  <outline>
    <contour>
      <point x="-91" y="738" type="curve" smooth="yes"/>
      <point x="-76" y="738"/>
      <point x="-64" y="749"/>
      <point x="-64" y="776" type="curve" smooth="yes"/>
      <point x="-64" y="800"/>
      <point x="-75" y="814"/>
      <point x="-90" y="814" type="curve" smooth="yes"/>
      <point x="-104" y="814"/>
      <point x="-117" y="801"/>
      <point x="-117" y="776" type="curve" smooth="yes"/>
      <point x="-117" y="750"/>
      <point x="-103" y="738"/>
    </contour>
  </outline>
</glyph>
<glyph name="visargaguru" format="2">
  <advance width="312"/>
  <unicode hex="0A03"/>
  <outline>
    <contour>
      <point x="156" y="366" type="curve" smooth="yes"/>
      <point x="218" y="366"/>
      <point x="259" y="411"/>
      <point x="259" y="494" type="curve" smooth="yes"/>
      <point x="259" y="577"/>
      <point x="218" y="622"/>
      <point x="156" y="622" type="curve" smooth="yes"/>
      <point x="94" y="622"/>
      <point x="53" y="577"/>
      <point x="53" y="494" type="curve" smooth="yes"/>
      <point x="53" y="411"/>
      <point x="94" y="366"/>
    </contour>
    <contour>
      <point x="156" y="392" type="curve" smooth="yes"/>
      <point x="99" y="392"/>
      <point x="79" y="438"/>
      <point x="79" y="494" type="curve" smooth="yes"/>
      <point x="79" y="550"/>
      <point x="99" y="596"/>
      <point x="156" y="596" type="curve" smooth="yes"/>
      <point x="213" y="596"/>
      <point x="233" y="550"/>
      <point x="233" y="494" type="curve" smooth="yes"/>
      <point x="233" y="438"/>
      <point x="213" y="392"/>
    </contour>
    <contour>
      <point x="156" y="0" type="curve" smooth="yes"/>
      <point x="218" y="0"/>
      <point x="259" y="45"/>
      <point x="259" y="128" type="curve" smooth="yes"/>
      <point x="259" y="211"/>
      <point x="218" y="256"/>
      <point x="156" y="256" type="curve" smooth="yes"/>
      <point x="94" y="256"/>
      <point x="53" y="211"/>
      <point x="53" y="128" type="curve" smooth="yes"/>
      <point x="53" y="45"/>
      <point x="94" y="0"/>
    </contour>
    <contour>
      <point x="156" y="26" type="curve" smooth="yes"/>
      <point x="99" y="26"/>
      <point x="79" y="72"/>
      <point x="79" y="128" type="curve" smooth="yes"/>
      <point x="79" y="184"/>
      <point x="99" y="230"/>
      <point x="156" y="230" type="curve" smooth="yes"/>
      <point x="213" y="230"/>
      <point x="233" y="184"/>
      <point x="233" y="128" type="curve" smooth="yes"/>
      <point x="233" y="72"/>
      <point x="213" y="26"/>
    </contour>
  </outline>
</glyph>
<glyph name="aguru" format="2">
  <advance width="532"/>
  <unicode hex="0A05"/>
  <outline>
    <contour>
      <point x="429" y="0" type="line"/>
      <point x="455" y="0" type="line"/>
      <point x="455" y="596" type="line"/>
      <point x="539" y="596" type="line"/>
      <point x="539" y="622" type="line"/>
      <point x="429" y="622" type="line"/>
      <point x="429" y="437" type="line"/>
      <point x="444" y="445" type="line"/>
      <point x="388" y="431"/>
      <point x="316" y="378"/>
      <point x="285" y="331" type="curve"/>
      <point x="295" y="325" type="line"/>
      <point x="293" y="405"/>
      <point x="268" y="504"/>
      <point x="249" y="548" type="curve"/>
      <point x="188" y="521"/>
      <point x="131" y="470"/>
      <point x="102" y="426" type="curve"/>
      <point x="113" y="422" type="line"/>
      <point x="111" y="490"/>
      <point x="92" y="573"/>
      <point x="74" y="622" type="curve"/>
      <point x="-7" y="622" type="line"/>
      <point x="-7" y="596" type="line"/>
      <point x="77" y="596" type="line"/>
      <point x="52" y="604" type="line"/>
      <point x="70" y="559"/>
      <point x="87" y="483"/>
      <point x="89" y="414" type="curve"/>
      <point x="68" y="365"/>
      <point x="49" y="305"/>
      <point x="49" y="264" type="curve" smooth="yes"/>
      <point x="49" y="242"/>
      <point x="57" y="237"/>
      <point x="66" y="237" type="curve" smooth="yes"/>
      <point x="89" y="237"/>
      <point x="109" y="307"/>
      <point x="115" y="412" type="curve"/>
      <point x="104" y="389" type="line"/>
      <point x="136" y="444"/>
      <point x="195" y="496"/>
      <point x="247" y="518" type="curve"/>
      <point x="227" y="530" type="line"/>
      <point x="246" y="498"/>
      <point x="270" y="386"/>
      <point x="271" y="317" type="curve"/>
      <point x="250" y="268"/>
      <point x="231" y="208"/>
      <point x="231" y="167" type="curve" smooth="yes"/>
      <point x="231" y="145"/>
      <point x="239" y="140"/>
      <point x="248" y="140" type="curve" smooth="yes"/>
      <point x="271" y="140"/>
      <point x="291" y="210"/>
      <point x="297" y="315" type="curve"/>
      <point x="286" y="292" type="line"/>
      <point x="321" y="352"/>
      <point x="391" y="406"/>
      <point x="444" y="419" type="curve"/>
      <point x="429" y="425" type="line"/>
    </contour>
  </outline>
</glyph>
<glyph name="aaguru" format="2">
  <advance width="695"/>
  <unicode hex="0A06"/>
  <outline>
    <contour>
      <point x="597" y="261" type="line"/>
      <point x="623" y="261" type="line"/>
      <point x="623" y="596" type="line"/>
      <point x="702" y="596" type="line"/>
      <point x="702" y="622" type="line"/>
      <point x="525" y="622" type="line"/>
      <point x="525" y="596" type="line"/>
      <point x="597" y="596" type="line"/>
    </contour>
    <component base="aguru"/>
  </outline>
</glyph>
<glyph name="kaguru" format="2">
  <advance width="446"/>
  <unicode hex="0A15"/>
  <guideline x="264" y="291" angle="0"/>
  <outline>
    <contour>
      <point x="364" y="0" type="curve"/>
      <point x="391" y="0" type="line"/>
      <point x="391" y="110"/>
      <point x="375" y="221"/>
      <point x="338" y="308" type="curve"/>
      <point x="331" y="320" type="line"/>
      <point x="295" y="402"/>
      <point x="245" y="453"/>
      <point x="172" y="453" type="curve" smooth="yes"/>
      <point x="89" y="453"/>
      <point x="37" y="389"/>
      <point x="37" y="291" type="curve" smooth="yes"/>
      <point x="37" y="200"/>
      <point x="79" y="129"/>
      <point x="173" y="129" type="curve" smooth="yes"/>
      <point x="253" y="129"/>
      <point x="306" y="183"/>
      <point x="337" y="271" type="curve"/>
      <point x="342" y="284" type="line"/>
      <point x="359" y="336"/>
      <point x="366" y="391"/>
      <point x="366" y="458" type="curve" smooth="yes"/>
      <point x="366" y="504"/>
      <point x="360" y="554"/>
      <point x="351" y="596" type="curve"/>
      <point x="453" y="596" type="line"/>
      <point x="453" y="622" type="line"/>
      <point x="-7" y="622" type="line"/>
      <point x="-7" y="596" type="line"/>
      <point x="325" y="596" type="line"/>
      <point x="333" y="565"/>
      <point x="340" y="516"/>
      <point x="340" y="459" type="curve" smooth="yes"/>
      <point x="340" y="407"/>
      <point x="335" y="356"/>
      <point x="325" y="313" type="curve"/>
      <point x="320" y="299" type="line"/>
      <point x="296" y="213"/>
      <point x="248" y="155"/>
      <point x="172" y="155" type="curve" smooth="yes"/>
      <point x="99" y="155"/>
      <point x="64" y="206"/>
      <point x="64" y="291" type="curve" smooth="yes"/>
      <point x="64" y="372"/>
      <point x="101" y="427"/>
      <point x="173" y="427" type="curve" smooth="yes"/>
      <point x="245" y="427"/>
      <point x="289" y="367"/>
      <point x="321" y="281" type="curve"/>
      <point x="325" y="271" type="line"/>
      <point x="352" y="194"/>
      <point x="364" y="95.007"/>
    </contour>
  </outline>
</glyph>
<glyph name="khaguru" format="2">
  <advance width="420"/>
  <unicode hex="0A16"/>
  <outline>
    <contour>
      <point x="317" y="0" type="line"/>
      <point x="343" y="0" type="line"/>
      <point x="343" y="596" type="line"/>
      <point x="427" y="596" type="line"/>
      <point x="427" y="622" type="line"/>
      <point x="317" y="622" type="line"/>
      <point x="317" y="233" type="line"/>
      <point x="328" y="252" type="line"/>
      <point x="292" y="213"/>
      <point x="255" y="194"/>
      <point x="209" y="194" type="curve" smooth="yes"/>
      <point x="130" y="194"/>
      <point x="93" y="246"/>
      <point x="65" y="342" type="curve"/>
      <point x="59" y="319" type="line"/>
      <point x="99" y="372"/>
      <point x="119" y="408"/>
      <point x="119" y="474" type="curve" smooth="yes"/>
      <point x="119" y="523"/>
      <point x="103" y="576"/>
      <point x="83" y="622" type="curve"/>
      <point x="-7" y="622" type="line"/>
      <point x="-7" y="596" type="line"/>
      <point x="65" y="596" type="line"/>
      <point x="79" y="567"/>
      <point x="92" y="520"/>
      <point x="92" y="474" type="curve" smooth="yes"/>
      <point x="92" y="416"/>
      <point x="74" y="382"/>
      <point x="39" y="336" type="curve"/>
      <point x="75" y="219"/>
      <point x="124" y="168"/>
      <point x="208" y="168" type="curve" smooth="yes"/>
      <point x="260" y="168"/>
      <point x="300" y="188"/>
      <point x="331" y="220" type="curve"/>
      <point x="317" y="227" type="line"/>
    </contour>
    <contour>
      <point x="102" y="406" type="line"/>
      <point x="335" y="406" type="line"/>
      <point x="333" y="432" type="line"/>
      <point x="102" y="432" type="line"/>
    </contour>
  </outline>
</glyph>
<glyph name="gaguru" format="2">
  <advance width="517"/>
  <unicode hex="0A17"/>
  <outline>
    <contour>
      <point x="209" y="0" type="curve" smooth="yes"/>
      <point x="275" y="0"/>
      <point x="294" y="51"/>
      <point x="294" y="106" type="curve" smooth="yes"/>
      <point x="294" y="596" type="line"/>
      <point x="385" y="596" type="line"/>
      <point x="385" y="622" type="line"/>
      <point x="-7" y="622" type="line"/>
      <point x="-7" y="596" type="line"/>
      <point x="268" y="596" type="line"/>
      <point x="268" y="398" type="line"/>
      <point x="197" y="398" type="line" smooth="yes"/>
      <point x="143" y="398"/>
      <point x="109" y="390"/>
      <point x="84" y="372" type="curve" smooth="yes"/>
      <point x="54" y="350"/>
      <point x="39" y="314"/>
      <point x="39" y="260" type="curve" smooth="yes"/>
      <point x="39" y="152"/>
      <point x="103" y="0"/>
    </contour>
    <contour>
      <point x="209" y="26" type="curve" smooth="yes"/>
      <point x="124" y="26"/>
      <point x="66" y="164"/>
      <point x="66" y="260" type="curve" smooth="yes"/>
      <point x="66" y="305"/>
      <point x="77" y="334"/>
      <point x="100" y="351" type="curve" smooth="yes"/>
      <point x="120" y="366"/>
      <point x="147" y="372"/>
      <point x="201" y="372" type="curve" smooth="yes"/>
      <point x="268" y="372" type="line"/>
      <point x="268" y="116" type="line" smooth="yes"/>
      <point x="268" y="79"/>
      <point x="263" y="56"/>
      <point x="250" y="42" type="curve" smooth="yes"/>
      <point x="240" y="31"/>
      <point x="227" y="26"/>
    </contour>
    <contour>
      <point x="414" y="0" type="line"/>
      <point x="440" y="0" type="line"/>
      <point x="440" y="596" type="line"/>
      <point x="524" y="596" type="line"/>
      <point x="524" y="622" type="line"/>
      <point x="331" y="622" type="line"/>
      <point x="331" y="596" type="line"/>
      <point x="414" y="596" type="line"/>
    </contour>
  </outline>
</glyph>
<glyph name="ghaguru" format="2">
  <advance width="541"/>
  <unicode hex="0A18"/>
  <outline>
    <contour>
      <point x="167" y="169" type="curve" smooth="yes"/>
      <point x="238" y="169"/>
      <point x="274" y="219"/>
      <point x="277" y="329" type="curve"/>
      <point x="261" y="329" type="line"/>
      <point x="266" y="209"/>
      <point x="300" y="169"/>
      <point x="368" y="169" type="curve" smooth="yes"/>
      <point x="408" y="169"/>
      <point x="433" y="185"/>
      <point x="457" y="205" type="curve"/>
      <point x="446" y="231" type="line"/>
      <point x="426" y="209"/>
      <point x="401" y="195"/>
      <point x="368" y="195" type="curve" smooth="yes"/>
      <point x="327" y="195"/>
      <point x="291" y="215"/>
      <point x="282" y="305" type="curve"/>
      <point x="288" y="382"/>
      <point x="291" y="453"/>
      <point x="291" y="527" type="curve" smooth="yes"/>
      <point x="291" y="590"/>
      <point x="284" y="606"/>
      <point x="270" y="606" type="curve" smooth="yes"/>
      <point x="257" y="606"/>
      <point x="249" y="591"/>
      <point x="249" y="527" type="curve" smooth="yes"/>
      <point x="249" y="454"/>
      <point x="254" y="382"/>
      <point x="258" y="305" type="curve"/>
      <point x="247" y="229"/>
      <point x="217" y="195"/>
      <point x="167" y="195" type="curve" smooth="yes"/>
      <point x="118" y="195"/>
      <point x="86" y="236"/>
      <point x="65" y="342" type="curve"/>
      <point x="59" y="319" type="line"/>
      <point x="99" y="372"/>
      <point x="119" y="408"/>
      <point x="119" y="474" type="curve" smooth="yes"/>
      <point x="119" y="523"/>
      <point x="103" y="576"/>
      <point x="83" y="622" type="curve"/>
      <point x="-7" y="622" type="line"/>
      <point x="-7" y="596" type="line"/>
      <point x="88" y="596" type="line"/>
      <point x="63" y="600" type="line"/>
      <point x="79" y="567"/>
      <point x="92" y="520"/>
      <point x="92" y="474" type="curve" smooth="yes"/>
      <point x="92" y="416"/>
      <point x="74" y="382"/>
      <point x="39" y="336" type="curve"/>
      <point x="66" y="207"/>
      <point x="107" y="169"/>
    </contour>
    <contour>
      <point x="438" y="0" type="line"/>
      <point x="464" y="0" type="line"/>
      <point x="464" y="596" type="line"/>
      <point x="548" y="596" type="line"/>
      <point x="548" y="622" type="line"/>
      <point x="438" y="622" type="line"/>
    </contour>
  </outline>
</glyph>
<glyph name="ngaguru" format="2">
  <advance width="411"/>
  <unicode hex="0A19"/>
  <outline>
    <contour>
      <point x="334" y="-5" type="curve"/>
      <point x="360" y="1" type="line"/>
      <point x="348" y="48"/>
      <point x="334" y="89"/>
      <point x="318" y="125" type="curve"/>
      <point x="284" y="201"/>
      <point x="233" y="252"/>
      <point x="155" y="252" type="curve" smooth="yes"/>
      <point x="84" y="252"/>
      <point x="44" y="209"/>
      <point x="44" y="150" type="curve" smooth="yes"/>
      <point x="44" y="78"/>
      <point x="97" y="40"/>
      <point x="169" y="40" type="curve" smooth="yes"/>
      <point x="287" y="40"/>
      <point x="372" y="144"/>
      <point x="372" y="275" type="curve" smooth="yes"/>
      <point x="372" y="332"/>
      <point x="356" y="374"/>
      <point x="325" y="399" type="curve" smooth="yes"/>
      <point x="298" y="422"/>
      <point x="264" y="431"/>
      <point x="198" y="431" type="curve" smooth="yes"/>
      <point x="103" y="431" type="line"/>
      <point x="103" y="596" type="line"/>
      <point x="418" y="596" type="line"/>
      <point x="418" y="622" type="line"/>
      <point x="-7" y="622" type="line"/>
      <point x="-7" y="596" type="line"/>
      <point x="77" y="596" type="line"/>
      <point x="77" y="422" type="line"/>
      <point x="93" y="405" type="line"/>
      <point x="196" y="405" type="line" smooth="yes"/>
      <point x="257" y="405"/>
      <point x="286" y="397"/>
      <point x="308" y="379" type="curve" smooth="yes"/>
      <point x="333" y="358"/>
      <point x="345" y="325"/>
      <point x="345" y="275" type="curve" smooth="yes"/>
      <point x="345" y="219"/>
      <point x="330" y="169"/>
      <point x="302" y="132" type="curve" smooth="yes"/>
      <point x="271" y="91"/>
      <point x="226" y="66"/>
      <point x="169" y="66" type="curve" smooth="yes"/>
      <point x="110" y="66"/>
      <point x="71" y="96"/>
      <point x="71" y="150" type="curve" smooth="yes"/>
      <point x="71" y="190"/>
      <point x="95" y="226"/>
      <point x="155" y="226" type="curve" smooth="yes"/>
      <point x="249" y="226"/>
      <point x="301" y="133"/>
    </contour>
  </outline>
</glyph>
<glyph name="caguru" format="2">
  <advance width="461"/>
  <unicode hex="0A1A"/>
  <outline>
    <contour>
      <point x="284" y="0" type="curve" smooth="yes"/>
      <point x="357" y="0"/>
      <point x="384" y="42"/>
      <point x="384" y="124" type="curve" smooth="yes"/>
      <point x="384" y="603" type="line"/>
      <point x="358" y="603" type="line"/>
      <point x="358" y="141" type="line" smooth="yes"/>
      <point x="358" y="92"/>
      <point x="354" y="61"/>
      <point x="336" y="43" type="curve" smooth="yes"/>
      <point x="325" y="32"/>
      <point x="310" y="26"/>
      <point x="284" y="26" type="curve" smooth="yes"/>
      <point x="187" y="26"/>
      <point x="105" y="153"/>
      <point x="93" y="351" type="curve"/>
      <point x="89" y="333" type="line"/>
      <point x="372" y="333" type="line"/>
      <point x="377" y="359" type="line"/>
      <point x="96" y="359" type="line"/>
      <point x="96" y="386" type="line" smooth="yes"/>
      <point x="96" y="404"/>
      <point x="92" y="413"/>
      <point x="81" y="413" type="curve" smooth="yes"/>
      <point x="60" y="413"/>
      <point x="32" y="375"/>
      <point x="32" y="351" type="curve" smooth="yes"/>
      <point x="32" y="335"/>
      <point x="45" y="333"/>
      <point x="60" y="333" type="curve" smooth="yes"/>
      <point x="77" y="333" type="line"/>
      <point x="67" y="340" type="line"/>
      <point x="74" y="266"/>
      <point x="89" y="193"/>
      <point x="117" y="133" type="curve" smooth="yes"/>
      <point x="154" y="53"/>
      <point x="214" y="0"/>
    </contour>
    <contour>
      <point x="-7" y="596" type="line"/>
      <point x="468" y="596" type="line"/>
      <point x="468" y="622" type="line"/>
      <point x="-7" y="622" type="line"/>
    </contour>
  </outline>
</glyph>
<glyph name="chaguru" format="2">
  <advance width="451"/>
  <unicode hex="0A1B"/>
  <outline>
    <contour>
      <point x="228" y="0" type="curve" smooth="yes"/>
      <point x="354" y="0"/>
      <point x="409" y="46"/>
      <point x="409" y="134" type="curve" smooth="yes"/>
      <point x="409" y="217"/>
      <point x="351" y="261"/>
      <point x="253" y="261" type="curve" smooth="yes"/>
      <point x="194" y="261" type="line" smooth="yes"/>
      <point x="123" y="261"/>
      <point x="78" y="286"/>
      <point x="78" y="343" type="curve" smooth="yes"/>
      <point x="78" y="371"/>
      <point x="91" y="390"/>
      <point x="111" y="402" type="curve" smooth="yes"/>
      <point x="132" y="414"/>
      <point x="156" y="419"/>
      <point x="201" y="419" type="curve" smooth="yes"/>
      <point x="352" y="419" type="line"/>
      <point x="365" y="434" type="line"/>
      <point x="365" y="596" type="line"/>
      <point x="458" y="596" type="line"/>
      <point x="458" y="622" type="line"/>
      <point x="-7" y="622" type="line"/>
      <point x="-7" y="596" type="line"/>
      <point x="339" y="596" type="line"/>
      <point x="339" y="445" type="line"/>
      <point x="204" y="445" type="line" smooth="yes"/>
      <point x="152" y="445"/>
      <point x="123" y="439"/>
      <point x="98" y="425" type="curve" smooth="yes"/>
      <point x="69" y="409"/>
      <point x="51" y="382"/>
      <point x="51" y="343" type="curve" smooth="yes"/>
      <point x="51" y="279"/>
      <point x="94" y="251"/>
      <point x="163" y="241" type="curve"/>
      <point x="152" y="235" type="line"/>
      <point x="255" y="235" type="line" smooth="yes"/>
      <point x="339" y="235"/>
      <point x="382" y="199"/>
      <point x="382" y="134" type="curve" smooth="yes"/>
      <point x="382" y="64"/>
      <point x="341" y="26"/>
      <point x="235" y="26" type="curve" smooth="yes"/>
      <point x="222" y="26" type="line" smooth="yes"/>
      <point x="136" y="26"/>
      <point x="74" y="58"/>
      <point x="74" y="134" type="curve" smooth="yes"/>
      <point x="74" y="199"/>
      <point x="125" y="235"/>
      <point x="201" y="235" type="curve"/>
      <point x="174" y="253" type="line"/>
      <point x="93" y="247"/>
      <point x="47" y="200"/>
      <point x="47" y="133" type="curve" smooth="yes"/>
      <point x="47" y="42"/>
      <point x="122" y="0"/>
    </contour>
    <contour>
      <point x="242" y="10" type="line"/>
      <point x="242" y="252" type="line"/>
      <point x="216" y="252" type="line"/>
      <point x="216" y="10" type="line"/>
    </contour>
  </outline>
</glyph>
<glyph name="jaguru" format="2">
  <advance width="421"/>
  <unicode hex="0A1C"/>
  <outline>
    <contour>
      <point x="78" y="0" type="line"/>
      <point x="104" y="0" type="line"/>
      <point x="104" y="333" type="line"/>
      <point x="318" y="333" type="line"/>
      <point x="318" y="0" type="line"/>
      <point x="344" y="0" type="line"/>
      <point x="344" y="596" type="line"/>
      <point x="428" y="596" type="line"/>
      <point x="428" y="622" type="line"/>
      <point x="-7" y="622" type="line"/>
      <point x="-7" y="596" type="line"/>
      <point x="318" y="596" type="line"/>
      <point x="318" y="359" type="line"/>
      <point x="106" y="359" type="line"/>
      <point x="106" y="387" type="line" smooth="yes"/>
      <point x="106" y="404"/>
      <point x="102" y="413"/>
      <point x="91" y="413" type="curve" smooth="yes"/>
      <point x="70" y="413"/>
      <point x="42" y="375"/>
      <point x="42" y="351" type="curve" smooth="yes"/>
      <point x="42" y="335"/>
      <point x="55" y="333"/>
      <point x="71" y="333" type="curve" smooth="yes"/>
      <point x="78" y="333" type="line"/>
    </contour>
  </outline>
</glyph>
<glyph name="jhaguru" format="2">
  <advance width="391"/>
  <unicode hex="0A1D"/>
  <outline>
    <contour>
      <point x="145" y="91" type="curve" smooth="yes"/>
      <point x="166" y="91"/>
      <point x="181" y="91"/>
      <point x="190" y="92" type="curve"/>
      <point x="200" y="93" type="line"/>
      <point x="282" y="108"/>
      <point x="353" y="155"/>
      <point x="353" y="259" type="curve" smooth="yes"/>
      <point x="353" y="346"/>
      <point x="284" y="405"/>
      <point x="187" y="405" type="curve" smooth="yes"/>
      <point x="133" y="405"/>
      <point x="85" y="397"/>
      <point x="31" y="375" type="curve"/>
      <point x="40" y="350" type="line"/>
      <point x="91" y="372"/>
      <point x="128" y="382"/>
      <point x="187" y="382" type="curve" smooth="yes"/>
      <point x="263" y="382"/>
      <point x="326" y="339"/>
      <point x="326" y="259" type="curve" smooth="yes"/>
      <point x="326" y="171"/>
      <point x="264" y="125"/>
      <point x="191" y="116" type="curve"/>
      <point x="158" y="133"/>
      <point x="129" y="140"/>
      <point x="98" y="140" type="curve" smooth="yes"/>
      <point x="76" y="140"/>
      <point x="64" y="135"/>
      <point x="64" y="123" type="curve" smooth="yes"/>
      <point x="64" y="102"/>
      <point x="110" y="91"/>
    </contour>
    <contour>
      <point x="286" y="-10" type="curve"/>
      <point x="306" y="7" type="line"/>
      <point x="278" y="40"/>
      <point x="227" y="86"/>
      <point x="192" y="110" type="curve"/>
      <point x="160" y="104" type="line"/>
      <point x="201" y="77"/>
      <point x="247" y="34"/>
    </contour>
    <contour>
      <point x="178" y="389" type="curve"/>
      <point x="220" y="403" type="line"/>
      <point x="125" y="410"/>
      <point x="91" y="469"/>
      <point x="91" y="597" type="curve"/>
      <point x="65" y="601" type="line"/>
      <point x="65" y="480"/>
      <point x="86" y="418"/>
    </contour>
    <contour>
      <point x="-7" y="596" type="line"/>
      <point x="398" y="596" type="line"/>
      <point x="398" y="622" type="line"/>
      <point x="-7" y="622" type="line"/>
    </contour>
    <contour>
      <point x="224" y="387" type="line"/>
      <point x="316" y="416"/>
      <point x="338" y="480"/>
      <point x="338" y="601" type="curve"/>
      <point x="312" y="597" type="line"/>
      <point x="312" y="469"/>
      <point x="278" y="410"/>
      <point x="183" y="403" type="curve"/>
    </contour>
  </outline>
</glyph>
<glyph name="nyaguru" format="2">
  <advance width="398"/>
  <unicode hex="0A1E"/>
  <outline>
    <contour>
      <point x="117" y="432" type="curve"/>
      <point x="141" y="437" type="line"/>
      <point x="125" y="489"/>
      <point x="93" y="558"/>
      <point x="62" y="613" type="curve"/>
      <point x="40" y="599" type="line"/>
      <point x="70" y="549"/>
      <point x="96" y="493"/>
    </contour>
    <component base="vaguru"/>
  </outline>
</glyph>
<glyph name="ttaguru" format="2">
  <advance width="413"/>
  <unicode hex="0A1F"/>
  <outline>
    <contour>
      <point x="259" y="0" type="curve" smooth="yes"/>
      <point x="314" y="0"/>
      <point x="353" y="14"/>
      <point x="389" y="30" type="curve"/>
      <point x="379" y="55" type="line"/>
      <point x="343" y="38"/>
      <point x="314" y="26"/>
      <point x="259" y="26" type="curve" smooth="yes"/>
      <point x="155" y="26"/>
      <point x="109" y="86"/>
      <point x="57" y="248" type="curve"/>
      <point x="56" y="209" type="line"/>
      <point x="77" y="258"/>
      <point x="117" y="315"/>
      <point x="160" y="349" type="curve" smooth="yes"/>
      <point x="196" y="378"/>
      <point x="241" y="392"/>
      <point x="317" y="392" type="curve" smooth="yes"/>
      <point x="320" y="392" type="line"/>
      <point x="336" y="408" type="line"/>
      <point x="336" y="596" type="line"/>
      <point x="420" y="596" type="line"/>
      <point x="420" y="622" type="line"/>
      <point x="-7" y="622" type="line"/>
      <point x="-7" y="596" type="line"/>
      <point x="310" y="596" type="line"/>
      <point x="310" y="418" type="line"/>
      <point x="309" y="418" type="line"/>
      <point x="242" y="417"/>
      <point x="187" y="405"/>
      <point x="141" y="368" type="curve" smooth="yes"/>
      <point x="94" y="330"/>
      <point x="59" y="276"/>
      <point x="35" y="229" type="curve"/>
      <point x="86" y="75"/>
      <point x="138" y="0"/>
    </contour>
  </outline>
</glyph>
<glyph name="tthaguru" format="2">
  <advance width="468"/>
  <unicode hex="0A20"/>
  <outline>
    <contour>
      <point x="234" y="0" type="curve" smooth="yes"/>
      <point x="358" y="0"/>
      <point x="426" y="70"/>
      <point x="426" y="193" type="curve" smooth="yes"/>
      <point x="426" y="287"/>
      <point x="375" y="371"/>
      <point x="247" y="434" type="curve"/>
      <point x="247" y="596" type="line"/>
      <point x="475" y="596" type="line"/>
      <point x="475" y="622" type="line"/>
      <point x="-7" y="622" type="line"/>
      <point x="-7" y="596" type="line"/>
      <point x="221" y="596" type="line"/>
      <point x="221" y="435" type="line"/>
      <point x="93" y="371"/>
      <point x="42" y="287"/>
      <point x="42" y="193" type="curve" smooth="yes"/>
      <point x="42" y="70"/>
      <point x="110" y="0"/>
    </contour>
    <contour>
      <point x="234" y="26" type="curve" smooth="yes"/>
      <point x="130" y="26"/>
      <point x="69" y="79"/>
      <point x="69" y="193" type="curve" smooth="yes"/>
      <point x="69" y="279"/>
      <point x="113" y="352"/>
      <point x="234" y="415" type="curve"/>
      <point x="355" y="352"/>
      <point x="399" y="278"/>
      <point x="399" y="193" type="curve" smooth="yes"/>
      <point x="399" y="79"/>
      <point x="338" y="26"/>
    </contour>
  </outline>
</glyph>
<glyph name="ddaguru" format="2">
  <advance width="422"/>
  <unicode hex="0A21"/>
  <outline>
    <contour>
      <point x="181" y="0" type="curve" smooth="yes"/>
      <point x="283" y="0"/>
      <point x="376" y="57"/>
      <point x="376" y="198" type="curve" smooth="yes"/>
      <point x="376" y="284"/>
      <point x="337" y="343"/>
      <point x="268" y="376" type="curve"/>
      <point x="329" y="412"/>
      <point x="358" y="463"/>
      <point x="358" y="545" type="curve" smooth="yes"/>
      <point x="358" y="566"/>
      <point x="355" y="589"/>
      <point x="350" y="612" type="curve"/>
      <point x="339" y="596" type="line"/>
      <point x="429" y="596" type="line"/>
      <point x="429" y="622" type="line"/>
      <point x="-7" y="622" type="line"/>
      <point x="-7" y="596" type="line"/>
      <point x="333" y="596" type="line"/>
      <point x="324" y="612" type="line"/>
      <point x="330" y="587"/>
      <point x="332" y="566"/>
      <point x="332" y="545" type="curve" smooth="yes"/>
      <point x="332" y="461"/>
      <point x="294" y="417"/>
      <point x="242" y="389" type="curve"/>
      <point x="221" y="397"/>
      <point x="191" y="403"/>
      <point x="155" y="403" type="curve" smooth="yes"/>
      <point x="104" y="403"/>
      <point x="83" y="397"/>
      <point x="83" y="382" type="curve" smooth="yes"/>
      <point x="83" y="366"/>
      <point x="107" y="357"/>
      <point x="162" y="357" type="curve" smooth="yes"/>
      <point x="198" y="357"/>
      <point x="212" y="359"/>
      <point x="239" y="364" type="curve"/>
      <point x="310" y="336"/>
      <point x="350" y="279"/>
      <point x="350" y="198" type="curve" smooth="yes"/>
      <point x="350" y="84"/>
      <point x="279" y="26"/>
      <point x="181" y="26" type="curve" smooth="yes"/>
      <point x="112" y="26"/>
      <point x="64" y="55"/>
      <point x="64" y="114" type="curve" smooth="yes"/>
      <point x="64" y="152"/>
      <point x="89" y="190"/>
      <point x="149" y="190" type="curve" smooth="yes"/>
      <point x="214" y="190"/>
      <point x="262" y="149"/>
      <point x="326" y="67" type="curve"/>
      <point x="342" y="85" type="line"/>
      <point x="279" y="167"/>
      <point x="224" y="216"/>
      <point x="149" y="216" type="curve" smooth="yes"/>
      <point x="72" y="216"/>
      <point x="37" y="166"/>
      <point x="37" y="114" type="curve" smooth="yes"/>
      <point x="37" y="38"/>
      <point x="98" y="0"/>
    </contour>
  </outline>
</glyph>
<glyph name="ddhaguru" format="2">
  <advance width="443"/>
  <unicode hex="0A22"/>
  <outline>
    <contour>
      <point x="276" y="0" type="curve" smooth="yes"/>
      <point x="346" y="0"/>
      <point x="399" y="37"/>
      <point x="399" y="111" type="curve" smooth="yes"/>
      <point x="399" y="175"/>
      <point x="356" y="216"/>
      <point x="288" y="216" type="curve" smooth="yes"/>
      <point x="224" y="216"/>
      <point x="165" y="182"/>
      <point x="112" y="111" type="curve"/>
      <point x="128" y="93" type="line"/>
      <point x="178" y="154"/>
      <point x="229" y="190"/>
      <point x="286" y="190" type="curve" smooth="yes"/>
      <point x="339" y="190"/>
      <point x="372" y="161"/>
      <point x="372" y="111" type="curve" smooth="yes"/>
      <point x="372" y="55"/>
      <point x="333" y="26"/>
      <point x="277" y="26" type="curve" smooth="yes"/>
      <point x="170" y="26"/>
      <point x="96" y="101"/>
      <point x="94" y="360" type="curve"/>
      <point x="350" y="360" type="line"/>
      <point x="366" y="376" type="line"/>
      <point x="366" y="596" type="line"/>
      <point x="450" y="596" type="line"/>
      <point x="450" y="622" type="line"/>
      <point x="-7" y="622" type="line"/>
      <point x="-7" y="596" type="line"/>
      <point x="340" y="596" type="line"/>
      <point x="340" y="386" type="line"/>
      <point x="96" y="386" type="line"/>
      <point x="96" y="413" type="line" smooth="yes"/>
      <point x="96" y="431"/>
      <point x="92" y="440"/>
      <point x="81" y="440" type="curve" smooth="yes"/>
      <point x="60" y="440"/>
      <point x="32" y="402"/>
      <point x="32" y="378" type="curve" smooth="yes"/>
      <point x="32" y="362"/>
      <point x="45" y="360"/>
      <point x="61" y="360" type="curve" smooth="yes"/>
      <point x="68" y="360" type="line"/>
      <point x="68" y="336" type="line" smooth="yes"/>
      <point x="68" y="98"/>
      <point x="156" y="0"/>
    </contour>
  </outline>
</glyph>
<glyph name="nnaguru" format="2">
  <advance width="438"/>
  <unicode hex="0A23"/>
  <outline>
    <contour>
      <point x="265" y="0" type="curve" smooth="yes"/>
      <point x="319" y="0"/>
      <point x="367" y="11"/>
      <point x="412" y="37" type="curve"/>
      <point x="402" y="62" type="line"/>
      <point x="355" y="35"/>
      <point x="316" y="26"/>
      <point x="265" y="26" type="curve" smooth="yes"/>
      <point x="153" y="26"/>
      <point x="101" y="103"/>
      <point x="59" y="232" type="curve"/>
      <point x="55" y="192" type="line"/>
      <point x="106" y="289"/>
      <point x="149" y="345"/>
      <point x="225" y="345" type="curve" smooth="yes"/>
      <point x="240" y="345"/>
      <point x="251" y="343"/>
      <point x="265" y="338" type="curve"/>
      <point x="288" y="347" type="line"/>
      <point x="340" y="444" type="line"/>
      <point x="316" y="456" type="line"/>
      <point x="263" y="357" type="line"/>
      <point x="278" y="361" type="line"/>
      <point x="259" y="368"/>
      <point x="239" y="371"/>
      <point x="222" y="371" type="curve" smooth="yes"/>
      <point x="137" y="371"/>
      <point x="90" y="311"/>
      <point x="35" y="214" type="curve"/>
      <point x="86" y="77"/>
      <point x="142" y="0"/>
    </contour>
    <contour>
      <point x="404" y="382" type="curve"/>
      <point x="417" y="405" type="line"/>
      <point x="336" y="454"/>
      <point x="248" y="520"/>
      <point x="169" y="611" type="curve"/>
      <point x="161" y="596" type="line"/>
      <point x="445" y="596" type="line"/>
      <point x="445" y="622" type="line"/>
      <point x="-7" y="622" type="line"/>
      <point x="-7" y="596" type="line"/>
      <point x="154" y="596" type="line"/>
      <point x="142" y="605" type="line"/>
      <point x="225" y="508"/>
      <point x="304" y="447"/>
    </contour>
  </outline>
</glyph>
<glyph name="taguru" format="2">
  <advance width="387"/>
  <unicode hex="0A24"/>
  <outline>
    <contour>
      <point x="166" y="0" type="curve" smooth="yes"/>
      <point x="284" y="0"/>
      <point x="341" y="72"/>
      <point x="341" y="185" type="curve" smooth="yes"/>
      <point x="341" y="270"/>
      <point x="298" y="331"/>
      <point x="232" y="368" type="curve"/>
      <point x="293" y="404"/>
      <point x="322" y="455"/>
      <point x="322" y="536" type="curve" smooth="yes"/>
      <point x="322" y="558"/>
      <point x="319" y="581"/>
      <point x="314" y="604" type="curve"/>
      <point x="300" y="596" type="line"/>
      <point x="394" y="596" type="line"/>
      <point x="394" y="622" type="line"/>
      <point x="-7" y="622" type="line"/>
      <point x="-7" y="596" type="line"/>
      <point x="294" y="596" type="line"/>
      <point x="288" y="604" type="line"/>
      <point x="293" y="579"/>
      <point x="296" y="558"/>
      <point x="296" y="537" type="curve" smooth="yes"/>
      <point x="296" y="453"/>
      <point x="258" y="409"/>
      <point x="206" y="381" type="curve"/>
      <point x="185" y="389"/>
      <point x="155" y="395"/>
      <point x="119" y="395" type="curve" smooth="yes"/>
      <point x="68" y="395"/>
      <point x="47" y="389"/>
      <point x="47" y="374" type="curve" smooth="yes"/>
      <point x="47" y="357"/>
      <point x="71" y="349"/>
      <point x="126" y="349" type="curve" smooth="yes"/>
      <point x="162" y="349"/>
      <point x="176" y="351"/>
      <point x="203" y="356" type="curve"/>
      <point x="269" y="327"/>
      <point x="314" y="264"/>
      <point x="314" y="184" type="curve" smooth="yes"/>
      <point x="314" y="88"/>
      <point x="266" y="26"/>
      <point x="167" y="26" type="curve" smooth="yes"/>
      <point x="110" y="26"/>
      <point x="73" y="40"/>
      <point x="21" y="71" type="curve"/>
      <point x="10" y="46" type="line"/>
      <point x="62" y="16"/>
      <point x="107" y="0"/>
    </contour>
  </outline>
</glyph>
<glyph name="thaguru" format="2">
  <advance width="418"/>
  <unicode hex="0A25"/>
  <outline>
    <contour>
      <point x="315" y="0" type="line"/>
      <point x="341" y="0" type="line"/>
      <point x="341" y="596" type="line"/>
      <point x="425" y="596" type="line"/>
      <point x="425" y="622" type="line"/>
      <point x="73" y="622" type="line"/>
      <point x="74" y="596" type="line"/>
      <point x="315" y="596" type="line"/>
      <point x="315" y="233" type="line"/>
      <point x="328" y="252" type="line"/>
      <point x="292" y="213"/>
      <point x="255" y="194"/>
      <point x="209" y="194" type="curve" smooth="yes"/>
      <point x="130" y="194"/>
      <point x="93" y="246"/>
      <point x="65" y="342" type="curve"/>
      <point x="59" y="319" type="line"/>
      <point x="99" y="372"/>
      <point x="119" y="408"/>
      <point x="119" y="474" type="curve" smooth="yes"/>
      <point x="119" y="523"/>
      <point x="103" y="576"/>
      <point x="83" y="622" type="curve"/>
      <point x="-7" y="622" type="line"/>
      <point x="-7" y="596" type="line"/>
      <point x="65" y="596" type="line"/>
      <point x="79" y="567"/>
      <point x="92" y="520"/>
      <point x="92" y="474" type="curve" smooth="yes"/>
      <point x="92" y="416"/>
      <point x="74" y="382"/>
      <point x="39" y="336" type="curve"/>
      <point x="75" y="219"/>
      <point x="124" y="168"/>
      <point x="208" y="168" type="curve" smooth="yes"/>
      <point x="260" y="168"/>
      <point x="300" y="188"/>
      <point x="331" y="220" type="curve"/>
      <point x="315" y="227" type="line"/>
    </contour>
    <contour>
      <point x="98" y="398" type="line"/>
      <point x="323" y="398" type="line"/>
      <point x="323" y="424" type="line"/>
      <point x="98" y="424" type="line"/>
    </contour>
  </outline>
</glyph>
<glyph name="daguru" format="2">
  <advance width="417"/>
  <unicode hex="0A26"/>
  <outline>
    <contour>
      <point x="268" y="0" type="curve" smooth="yes"/>
      <point x="311" y="0"/>
      <point x="350" y="11"/>
      <point x="386" y="27" type="curve"/>
      <point x="376" y="52" type="line"/>
      <point x="340" y="35"/>
      <point x="311" y="26"/>
      <point x="268" y="26" type="curve" smooth="yes"/>
      <point x="159" y="26"/>
      <point x="94" y="90"/>
      <point x="94" y="333" type="curve"/>
      <point x="324" y="333" type="line"/>
      <point x="340" y="349" type="line"/>
      <point x="340" y="596" type="line"/>
      <point x="424" y="596" type="line"/>
      <point x="424" y="622" type="line"/>
      <point x="-7" y="622" type="line"/>
      <point x="-7" y="596" type="line"/>
      <point x="314" y="596" type="line"/>
      <point x="314" y="359" type="line"/>
      <point x="96" y="359" type="line"/>
      <point x="96" y="386" type="line" smooth="yes"/>
      <point x="96" y="404"/>
      <point x="92" y="413"/>
      <point x="81" y="413" type="curve" smooth="yes"/>
      <point x="60" y="413"/>
      <point x="32" y="375"/>
      <point x="32" y="351" type="curve" smooth="yes"/>
      <point x="32" y="335"/>
      <point x="45" y="333"/>
      <point x="60" y="333" type="curve" smooth="yes"/>
      <point x="68" y="333" type="line"/>
      <point x="68" y="315" type="line" smooth="yes"/>
      <point x="68" y="81"/>
      <point x="142" y="0"/>
    </contour>
  </outline>
</glyph>
<glyph name="dhaguru" format="2">
  <advance width="416"/>
  <unicode hex="0A27"/>
  <outline>
    <contour>
      <point x="313" y="0" type="line"/>
      <point x="339" y="0" type="line"/>
      <point x="339" y="596" type="line"/>
      <point x="423" y="596" type="line"/>
      <point x="423" y="622" type="line"/>
      <point x="73" y="622" type="line"/>
      <point x="74" y="596" type="line"/>
      <point x="313" y="596" type="line"/>
      <point x="313" y="233" type="line"/>
      <point x="328" y="252" type="line"/>
      <point x="292" y="213"/>
      <point x="255" y="194"/>
      <point x="209" y="194" type="curve" smooth="yes"/>
      <point x="130" y="194"/>
      <point x="93" y="246"/>
      <point x="65" y="342" type="curve"/>
      <point x="59" y="319" type="line"/>
      <point x="99" y="372"/>
      <point x="119" y="408"/>
      <point x="119" y="474" type="curve" smooth="yes"/>
      <point x="119" y="523"/>
      <point x="103" y="576"/>
      <point x="83" y="622" type="curve"/>
      <point x="-7" y="622" type="line"/>
      <point x="-7" y="596" type="line"/>
      <point x="65" y="596" type="line"/>
      <point x="79" y="567"/>
      <point x="92" y="520"/>
      <point x="92" y="474" type="curve" smooth="yes"/>
      <point x="92" y="416"/>
      <point x="74" y="382"/>
      <point x="39" y="336" type="curve"/>
      <point x="75" y="219"/>
      <point x="124" y="168"/>
      <point x="208" y="168" type="curve" smooth="yes"/>
      <point x="260" y="168"/>
      <point x="300" y="188"/>
      <point x="331" y="220" type="curve"/>
      <point x="313" y="227" type="line"/>
    </contour>
  </outline>
</glyph>
<glyph name="naguru" format="2">
  <advance width="460"/>
  <unicode hex="0A28"/>
  <outline>
    <contour>
      <point x="170" y="0" type="curve"/>
      <point x="176" y="26" type="line"/>
      <point x="115" y="46"/>
      <point x="69" y="95"/>
      <point x="69" y="188" type="curve" smooth="yes"/>
      <point x="69" y="279"/>
      <point x="114" y="350"/>
      <point x="230" y="415" type="curve"/>
      <point x="346" y="350"/>
      <point x="391" y="279"/>
      <point x="391" y="188" type="curve" smooth="yes"/>
      <point x="391" y="95"/>
      <point x="345" y="46"/>
      <point x="284" y="26" type="curve"/>
      <point x="290" y="0" type="line"/>
      <point x="367" y="26"/>
      <point x="418" y="89"/>
      <point x="418" y="187" type="curve" smooth="yes"/>
      <point x="418" y="287"/>
      <point x="366" y="369"/>
      <point x="243" y="434" type="curve"/>
      <point x="243" y="596" type="line"/>
      <point x="467" y="596" type="line"/>
      <point x="467" y="622" type="line"/>
      <point x="-7" y="622" type="line"/>
      <point x="-7" y="596" type="line"/>
      <point x="217" y="596" type="line"/>
      <point x="217" y="435" type="line"/>
      <point x="94" y="369"/>
      <point x="42" y="287"/>
      <point x="42" y="187" type="curve" smooth="yes"/>
      <point x="42" y="89"/>
      <point x="93" y="26"/>
    </contour>
  </outline>
</glyph>
<glyph name="phaguru" format="2">
  <advance width="411"/>
  <unicode hex="0A2B"/>
  <outline>
    <contour>
      <point x="240" y="0" type="curve" smooth="yes"/>
      <point x="314" y="0"/>
      <point x="367" y="37"/>
      <point x="367" y="111" type="curve" smooth="yes"/>
      <point x="367" y="175"/>
      <point x="324" y="216"/>
      <point x="254" y="216" type="curve" smooth="yes"/>
      <point x="189" y="216"/>
      <point x="134" y="182"/>
      <point x="80" y="111" type="curve"/>
      <point x="96" y="93" type="line"/>
      <point x="146" y="154"/>
      <point x="197" y="190"/>
      <point x="254" y="190" type="curve" smooth="yes"/>
      <point x="307" y="190"/>
      <point x="340" y="161"/>
      <point x="340" y="111" type="curve" smooth="yes"/>
      <point x="340" y="55"/>
      <point x="301" y="26"/>
      <point x="239" y="26" type="curve" smooth="yes"/>
      <point x="124" y="26"/>
      <point x="66" y="141"/>
      <point x="66" y="257" type="curve" smooth="yes"/>
      <point x="66" y="300"/>
      <point x="77" y="331"/>
      <point x="100" y="353" type="curve" smooth="yes"/>
      <point x="124" y="375"/>
      <point x="157" y="387"/>
      <point x="237" y="387" type="curve" smooth="yes"/>
      <point x="318" y="387" type="line"/>
      <point x="334" y="403" type="line"/>
      <point x="334" y="596" type="line"/>
      <point x="418" y="596" type="line"/>
      <point x="418" y="622" type="line"/>
      <point x="-7" y="622" type="line"/>
      <point x="-7" y="596" type="line"/>
      <point x="308" y="596" type="line"/>
      <point x="308" y="413" type="line"/>
      <point x="232" y="413" type="line" smooth="yes"/>
      <point x="151" y="413"/>
      <point x="111" y="400"/>
      <point x="80" y="371" type="curve" smooth="yes"/>
      <point x="53" y="346"/>
      <point x="39" y="308"/>
      <point x="39" y="257" type="curve" smooth="yes"/>
      <point x="39" y="122"/>
      <point x="114" y="0"/>
    </contour>
  </outline>
</glyph>
<glyph name="baguru" format="2">
  <advance width="429"/>
  <unicode hex="0A2C"/>
  <outline>
    <contour>
      <point x="42" y="256" type="curve"/>
      <point x="82" y="155"/>
      <point x="129" y="95"/>
      <point x="227" y="95" type="curve" smooth="yes"/>
      <point x="270" y="95"/>
      <point x="303" y="105"/>
      <point x="345" y="128" type="curve"/>
      <point x="340" y="154" type="line"/>
      <point x="297" y="130"/>
      <point x="274" y="121"/>
      <point x="227" y="121" type="curve" smooth="yes"/>
      <point x="145" y="121"/>
      <point x="110" y="164"/>
      <point x="67" y="265" type="curve"/>
      <point x="65" y="242" type="line"/>
      <point x="109" y="331"/>
      <point x="158" y="370"/>
      <point x="245" y="370" type="curve" smooth="yes"/>
      <point x="346" y="370" type="line"/>
      <point x="348" y="396" type="line"/>
      <point x="235" y="396" type="line" smooth="yes"/>
      <point x="177" y="396"/>
      <point x="152" y="407"/>
      <point x="131" y="425" type="curve" smooth="yes"/>
      <point x="97" y="454"/>
      <point x="82" y="506"/>
      <point x="82" y="600" type="curve"/>
      <point x="69" y="596" type="line"/>
      <point x="281" y="596" type="line"/>
      <point x="280" y="622" type="line"/>
      <point x="-7" y="622" type="line"/>
      <point x="-7" y="596" type="line"/>
      <point x="61" y="596" type="line"/>
      <point x="56" y="600" type="line"/>
      <point x="56" y="473"/>
      <point x="82" y="386"/>
      <point x="203" y="375" type="curve"/>
      <point x="194" y="383" type="line"/>
      <point x="124" y="378"/>
      <point x="74" y="324"/>
    </contour>
    <contour>
      <point x="326" y="0" type="line"/>
      <point x="352" y="0" type="line"/>
      <point x="352" y="596" type="line"/>
      <point x="436" y="596" type="line"/>
      <point x="436" y="622" type="line"/>
      <point x="241" y="622" type="line"/>
      <point x="241" y="596" type="line"/>
      <point x="326" y="596" type="line"/>
    </contour>
  </outline>
</glyph>
<glyph name="bhaguru" format="2">
  <advance width="404"/>
  <unicode hex="0A2D"/>
  <outline>
    <contour>
      <point x="164" y="0" type="curve" smooth="yes"/>
      <point x="285" y="0"/>
      <point x="348" y="67"/>
      <point x="348" y="202" type="curve" smooth="yes"/>
      <point x="348" y="268"/>
      <point x="335" y="311"/>
      <point x="315" y="353" type="curve"/>
      <point x="310" y="359" type="line"/>
      <point x="276" y="425"/>
      <point x="226" y="456"/>
      <point x="163" y="456" type="curve" smooth="yes"/>
      <point x="91" y="456"/>
      <point x="48" y="411"/>
      <point x="48" y="348" type="curve" smooth="yes"/>
      <point x="48" y="277"/>
      <point x="93" y="238"/>
      <point x="168" y="238" type="curve" smooth="yes"/>
      <point x="232" y="238"/>
      <point x="275" y="264"/>
      <point x="307" y="318" type="curve"/>
      <point x="311" y="325" type="line"/>
      <point x="332" y="366"/>
      <point x="341" y="416"/>
      <point x="341" y="470" type="curve" smooth="yes"/>
      <point x="341" y="520"/>
      <point x="331" y="571"/>
      <point x="319" y="606" type="curve"/>
      <point x="311" y="596" type="line"/>
      <point x="411" y="596" type="line"/>
      <point x="411" y="622" type="line"/>
      <point x="-7" y="622" type="line"/>
      <point x="-7" y="596" type="line"/>
      <point x="300" y="596" type="line"/>
      <point x="291" y="605" type="line"/>
      <point x="305" y="570"/>
      <point x="315" y="526"/>
      <point x="315" y="470" type="curve" smooth="yes"/>
      <point x="315" y="338"/>
      <point x="264" y="264"/>
      <point x="168" y="264" type="curve" smooth="yes"/>
      <point x="108" y="264"/>
      <point x="75" y="293"/>
      <point x="75" y="348" type="curve" smooth="yes"/>
      <point x="75" y="396"/>
      <point x="105" y="430"/>
      <point x="163" y="430" type="curve" smooth="yes"/>
      <point x="268" y="430"/>
      <point x="321" y="325"/>
      <point x="321" y="203" type="curve" smooth="yes"/>
      <point x="321" y="84"/>
      <point x="267" y="26"/>
      <point x="164" y="26" type="curve" smooth="yes"/>
      <point x="110" y="26"/>
      <point x="65" y="42"/>
      <point x="21" y="71" type="curve"/>
      <point x="10" y="46" type="line"/>
      <point x="52" y="21"/>
      <point x="99" y="0"/>
    </contour>
  </outline>
</glyph>
<glyph name="maguru" format="2">
  <advance width="412"/>
  <unicode hex="0A2E"/>
  <outline>
    <contour>
      <point x="309" y="0" type="line"/>
      <point x="335" y="0" type="line"/>
      <point x="335" y="596" type="line"/>
      <point x="419" y="596" type="line"/>
      <point x="419" y="622" type="line"/>
      <point x="309" y="622" type="line"/>
      <point x="309" y="325" type="line"/>
      <point x="121" y="325" type="line"/>
      <point x="119" y="407"/>
      <point x="97" y="531"/>
      <point x="72" y="622" type="curve"/>
      <point x="-7" y="622" type="line"/>
      <point x="-7" y="596" type="line"/>
      <point x="52" y="596" type="line"/>
      <point x="75" y="515"/>
      <point x="95" y="395"/>
      <point x="95" y="309" type="curve"/>
      <point x="74" y="262"/>
      <point x="52" y="193"/>
      <point x="52" y="152" type="curve" smooth="yes"/>
      <point x="52" y="130"/>
      <point x="60" y="125"/>
      <point x="69" y="125" type="curve" smooth="yes"/>
      <point x="92" y="125"/>
      <point x="109" y="186"/>
      <point x="120" y="299" type="curve"/>
      <point x="309" y="299" type="line"/>
    </contour>
  </outline>
</glyph>
<glyph name="yaguru" format="2">
  <advance width="488"/>
  <unicode hex="0A2F"/>
  <guideline x="121" y="596" angle="0"/>
  <outline>
    <contour>
      <point x="385" y="0" type="line"/>
      <point x="411" y="0" type="line"/>
      <point x="411" y="596" type="line"/>
      <point x="495" y="596" type="line"/>
      <point x="495" y="622" type="line"/>
      <point x="-7" y="622" type="line"/>
      <point x="-7" y="596" type="line"/>
      <point x="65" y="596" type="line"/>
      <point x="79" y="567"/>
      <point x="92" y="520"/>
      <point x="92" y="472" type="curve" smooth="yes"/>
      <point x="92" y="410"/>
      <point x="74" y="376"/>
      <point x="39" y="330" type="curve"/>
      <point x="77" y="207"/>
      <point x="124" y="156"/>
      <point x="208" y="156" type="curve" smooth="yes"/>
      <point x="231" y="156"/>
      <point x="247" y="159"/>
      <point x="266" y="164" type="curve"/>
      <point x="266" y="351" type="line"/>
      <point x="385" y="351" type="line"/>
    </contour>
    <contour>
      <point x="240" y="377" type="line"/>
      <point x="240" y="185" type="line"/>
      <point x="230" y="183"/>
      <point x="222" y="182"/>
      <point x="209" y="182" type="curve" smooth="yes"/>
      <point x="130" y="182"/>
      <point x="95" y="234"/>
      <point x="65" y="336" type="curve"/>
      <point x="59" y="313" type="line"/>
      <point x="99" y="366"/>
      <point x="119" y="401"/>
      <point x="119" y="472" type="curve" smooth="yes"/>
      <point x="119" y="518"/>
      <point x="107" y="557"/>
      <point x="94" y="596" type="curve"/>
      <point x="385" y="596" type="line"/>
      <point x="385" y="377" type="line"/>
    </contour>
  </outline>
</glyph>
<glyph name="raguru" format="2">
  <advance width="410"/>
  <unicode hex="0A30"/>
  <outline>
    <contour>
      <point x="233" y="0" type="curve" smooth="yes"/>
      <point x="306" y="0"/>
      <point x="333" y="42"/>
      <point x="333" y="124" type="curve" smooth="yes"/>
      <point x="333" y="596" type="line"/>
      <point x="417" y="596" type="line"/>
      <point x="417" y="622" type="line"/>
      <point x="-7" y="622" type="line"/>
      <point x="-7" y="596" type="line"/>
      <point x="307" y="596" type="line"/>
      <point x="307" y="398" type="line"/>
      <point x="200" y="398" type="line" smooth="yes"/>
      <point x="137" y="398"/>
      <point x="108" y="388"/>
      <point x="85" y="371" type="curve" smooth="yes"/>
      <point x="53" y="347"/>
      <point x="39" y="308"/>
      <point x="39" y="261" type="curve" smooth="yes"/>
      <point x="39" y="133"/>
      <point x="122" y="0"/>
    </contour>
    <contour>
      <point x="233" y="26" type="curve" smooth="yes"/>
      <point x="142" y="26"/>
      <point x="66" y="143"/>
      <point x="66" y="261" type="curve" smooth="yes"/>
      <point x="66" y="300"/>
      <point x="75" y="331"/>
      <point x="101" y="350" type="curve" smooth="yes"/>
      <point x="119" y="363"/>
      <point x="142" y="372"/>
      <point x="205" y="372" type="curve" smooth="yes"/>
      <point x="307" y="372" type="line"/>
      <point x="307" y="141" type="line" smooth="yes"/>
      <point x="307" y="92"/>
      <point x="303" y="61"/>
      <point x="285" y="43" type="curve" smooth="yes"/>
      <point x="275" y="32"/>
      <point x="259" y="26"/>
    </contour>
  </outline>
</glyph>
<glyph name="laguru" format="2">
  <advance width="480"/>
  <unicode hex="0A32"/>
  <outline>
    <contour>
      <point x="240" y="285" type="curve"/>
      <point x="325" y="355"/>
      <point x="377" y="456"/>
      <point x="389" y="596" type="curve"/>
      <point x="487" y="596" type="line"/>
      <point x="487" y="622" type="line"/>
      <point x="-7" y="622" type="line"/>
      <point x="-7" y="596" type="line"/>
      <point x="91" y="596" type="line"/>
      <point x="103" y="456"/>
      <point x="155" y="355"/>
    </contour>
    <contour>
      <point x="363" y="596" type="line"/>
      <point x="350" y="446"/>
      <point x="298" y="370"/>
      <point x="236" y="314" type="curve"/>
      <point x="243" y="313" type="line"/>
      <point x="182" y="370"/>
      <point x="130" y="446"/>
      <point x="117" y="596" type="curve"/>
    </contour>
    <contour>
      <point x="42" y="187" type="curve" smooth="yes"/>
      <point x="42" y="89"/>
      <point x="92" y="27"/>
      <point x="176" y="0" type="curve"/>
      <point x="177" y="0" type="line"/>
      <point x="183" y="26" type="line"/>
      <point x="182" y="26" type="line"/>
      <point x="115" y="46"/>
      <point x="69" y="95"/>
      <point x="69" y="188" type="curve" smooth="yes"/>
      <point x="69" y="270"/>
      <point x="105" y="325"/>
      <point x="171" y="379" type="curve"/>
      <point x="158" y="398" type="line"/>
      <point x="81" y="341"/>
      <point x="42" y="274"/>
    </contour>
    <contour>
      <point x="438" y="187" type="curve" smooth="yes"/>
      <point x="438" y="274"/>
      <point x="399" y="341"/>
      <point x="322" y="398" type="curve"/>
      <point x="309" y="379" type="line"/>
      <point x="375" y="325"/>
      <point x="411" y="270"/>
      <point x="411" y="188" type="curve" smooth="yes"/>
      <point x="411" y="95"/>
      <point x="365" y="46"/>
      <point x="298" y="26" type="curve"/>
      <point x="297" y="26" type="line"/>
      <point x="303" y="0" type="line"/>
      <point x="304" y="0" type="line"/>
      <point x="388" y="27"/>
      <point x="438" y="89"/>
    </contour>
  </outline>
</glyph>
<glyph name="vaguru" format="2">
  <advance width="398"/>
  <unicode hex="0A35"/>
  <outline>
    <contour>
      <point x="327" y="215" type="line"/>
      <point x="327" y="241" type="line"/>
      <point x="230" y="241" type="line" smooth="yes"/>
      <point x="164" y="241"/>
      <point x="130" y="248"/>
      <point x="104" y="264" type="curve" smooth="yes"/>
      <point x="80" y="280"/>
      <point x="66" y="303"/>
      <point x="66" y="337" type="curve" smooth="yes"/>
      <point x="66" y="368"/>
      <point x="79" y="389"/>
      <point x="102" y="402" type="curve" smooth="yes"/>
      <point x="123" y="414"/>
      <point x="148" y="419"/>
      <point x="194" y="419" type="curve" smooth="yes"/>
      <point x="308" y="419" type="line"/>
      <point x="321" y="434" type="line"/>
      <point x="321" y="596" type="line"/>
      <point x="405" y="596" type="line"/>
      <point x="405" y="622" type="line"/>
      <point x="-7" y="622" type="line"/>
      <point x="-7" y="596" type="line"/>
      <point x="295" y="596" type="line"/>
      <point x="295" y="445" type="line"/>
      <point x="196" y="445" type="line" smooth="yes"/>
      <point x="146" y="445"/>
      <point x="106" y="438"/>
      <point x="81" y="420" type="curve" smooth="yes"/>
      <point x="56" y="403"/>
      <point x="39" y="378"/>
      <point x="39" y="338" type="curve" smooth="yes"/>
      <point x="39" y="296"/>
      <point x="57" y="263"/>
      <point x="89" y="243" type="curve" smooth="yes"/>
      <point x="121" y="223"/>
      <point x="155" y="215"/>
      <point x="249" y="215" type="curve" smooth="yes"/>
    </contour>
    <contour>
      <point x="239" y="0" type="curve" smooth="yes"/>
      <point x="280" y="0"/>
      <point x="308" y="7"/>
      <point x="336" y="16" type="curve"/>
      <point x="329" y="41" type="line"/>
      <point x="303" y="32"/>
      <point x="278" y="26"/>
      <point x="240" y="26" type="curve" smooth="yes"/>
      <point x="173" y="26"/>
      <point x="121" y="58"/>
      <point x="121" y="125" type="curve" smooth="yes"/>
      <point x="121" y="156"/>
      <point x="133" y="179"/>
      <point x="155" y="195" type="curve" smooth="yes"/>
      <point x="173" y="208"/>
      <point x="199" y="215"/>
      <point x="235" y="215" type="curve" smooth="yes"/>
      <point x="255" y="215" type="line"/>
      <point x="195" y="229" type="line"/>
      <point x="133" y="224"/>
      <point x="94" y="182"/>
      <point x="94" y="125" type="curve" smooth="yes"/>
      <point x="94" y="44"/>
      <point x="157" y="0"/>
    </contour>
  </outline>
</glyph>
<glyph name="sanuktaguru" format="2">
  <advance width="415"/>
  <unicode hex="0A36"/>
  <outline>
    <contour>
      <point x="312" y="0" type="line"/>
      <point x="338" y="0" type="line"/>
      <point x="338" y="596" type="line"/>
      <point x="422" y="596" type="line"/>
      <point x="422" y="622" type="line"/>
      <point x="-7" y="622" type="line"/>
      <point x="-7" y="596" type="line"/>
      <point x="52" y="596" type="line"/>
      <point x="75" y="515"/>
      <point x="95" y="395"/>
      <point x="95" y="309" type="curve"/>
      <point x="74" y="262"/>
      <point x="52" y="193"/>
      <point x="52" y="152" type="curve" smooth="yes"/>
      <point x="52" y="130"/>
      <point x="60" y="125"/>
      <point x="69" y="125" type="curve" smooth="yes"/>
      <point x="92" y="125"/>
      <point x="109" y="186"/>
      <point x="120" y="299" type="curve"/>
      <point x="312" y="299" type="line"/>
    </contour>
    <contour>
      <point x="121" y="325" type="line"/>
      <point x="119" y="400"/>
      <point x="101" y="508"/>
      <point x="78" y="596" type="curve"/>
      <point x="312" y="596" type="line"/>
      <point x="312" y="325" type="line"/>
    </contour>
    <contour>
      <point x="177" y="-7" type="curve" smooth="yes"/>
      <point x="192" y="-7"/>
      <point x="204" y="4"/>
      <point x="204" y="31" type="curve" smooth="yes"/>
      <point x="204" y="55"/>
      <point x="193" y="69"/>
      <point x="178" y="69" type="curve" smooth="yes"/>
      <point x="164" y="69"/>
      <point x="151" y="56"/>
      <point x="151" y="31" type="curve" smooth="yes"/>
      <point x="151" y="5"/>
      <point x="165" y="-7"/>
    </contour>
  </outline>
</glyph>
<glyph name="haguru" format="2">
  <advance width="407"/>
  <unicode hex="0A39"/>
  <outline>
    <contour>
      <point x="232" y="0" type="curve" smooth="yes"/>
      <point x="303" y="0"/>
      <point x="330" y="42"/>
      <point x="330" y="124" type="curve" smooth="yes"/>
      <point x="330" y="596" type="line"/>
      <point x="414" y="596" type="line"/>
      <point x="414" y="622" type="line"/>
      <point x="-7" y="622" type="line"/>
      <point x="-7" y="596" type="line"/>
      <point x="304" y="596" type="line"/>
      <point x="304" y="141" type="line" smooth="yes"/>
      <point x="304" y="92"/>
      <point x="300" y="61"/>
      <point x="282" y="43" type="curve" smooth="yes"/>
      <point x="272" y="32"/>
      <point x="256" y="26"/>
      <point x="232" y="26" type="curve" smooth="yes"/>
      <point x="142" y="26"/>
      <point x="66" y="143"/>
      <point x="66" y="261" type="curve" smooth="yes"/>
      <point x="66" y="326"/>
      <point x="92" y="373"/>
      <point x="163" y="373" type="curve" smooth="yes"/>
      <point x="175" y="373"/>
      <point x="187" y="372"/>
      <point x="198" y="370" type="curve"/>
      <point x="200" y="395" type="line"/>
      <point x="191" y="397"/>
      <point x="177" y="399"/>
      <point x="161" y="399" type="curve" smooth="yes"/>
      <point x="78" y="399"/>
      <point x="39" y="343"/>
      <point x="39" y="261" type="curve" smooth="yes"/>
      <point x="39" y="133"/>
      <point x="122" y="0"/>
    </contour>
  </outline>
</glyph>
<glyph name="nuktaguru" format="2">
  <unicode hex="0A3C"/>
  <outline>
    <contour>
      <point x="-284" y="-171" type="curve" smooth="yes"/>
      <point x="-269" y="-171"/>
      <point x="-257" y="-160"/>
      <point x="-257" y="-133" type="curve" smooth="yes"/>
      <point x="-257" y="-109"/>
      <point x="-268" y="-95"/>
      <point x="-283" y="-95" type="curve" smooth="yes"/>
      <point x="-297" y="-95"/>
      <point x="-310" y="-108"/>
      <point x="-310" y="-133" type="curve" smooth="yes"/>
      <point x="-310" y="-159"/>
      <point x="-296" y="-171"/>
    </contour>
  </outline>
</glyph>
<glyph name="aamatraguru" format="2">
  <advance width="160"/>
  <unicode hex="0A3E"/>
  <outline>
    <contour>
      <point x="65" y="261" type="line"/>
      <point x="91" y="261" type="line"/>
      <point x="91" y="596" type="line"/>
      <point x="167" y="596" type="line"/>
      <point x="167" y="622" type="line"/>
      <point x="-7" y="622" type="line"/>
      <point x="-7" y="596" type="line"/>
      <point x="65" y="596" type="line"/>
    </contour>
  </outline>
</glyph>
<glyph name="imatraguru" format="2">
  <advance width="179"/>
  <unicode hex="0A3F"/>
  <outline>
    <contour>
      <point x="76" y="0" type="line"/>
      <point x="102" y="0" type="line"/>
      <point x="102" y="596" type="line"/>
      <point x="186" y="596" type="line"/>
      <point x="186" y="622" type="line"/>
      <point x="102" y="622" type="line"/>
      <point x="102" y="698" type="line" smooth="yes"/>
      <point x="102" y="816"/>
      <point x="130" y="864"/>
      <point x="188" y="864" type="curve" smooth="yes"/>
      <point x="233" y="864"/>
      <point x="266" y="830"/>
      <point x="266" y="742" type="curve" smooth="yes"/>
      <point x="266" y="712"/>
      <point x="264" y="682"/>
      <point x="261" y="661" type="curve"/>
      <point x="286" y="659" type="line"/>
      <point x="289" y="680"/>
      <point x="292" y="714"/>
      <point x="292" y="742" type="curve" smooth="yes"/>
      <point x="292" y="841"/>
      <point x="251" y="890"/>
      <point x="191" y="890" type="curve" smooth="yes"/>
      <point x="115" y="890"/>
      <point x="76" y="835"/>
      <point x="76" y="708" type="curve" smooth="yes"/>
      <point x="76" y="622" type="line"/>
      <point x="-7" y="622" type="line"/>
      <point x="-7" y="596" type="line"/>
      <point x="76" y="596" type="line"/>
    </contour>
  </outline>
</glyph>
<glyph name="umatraguru" format="2">
  <unicode hex="0A41"/>
  <guideline x="-82" y="-32" angle="90"/>
  <guideline x="-346" y="106" angle="90"/>
  <outline>
    <contour>
      <point x="-220" y="-144" type="curve" smooth="yes"/>
      <point x="-163" y="-144"/>
      <point x="-121" y="-133"/>
      <point x="-82" y="-109" type="curve"/>
      <point x="-86" y="-83" type="line"/>
      <point x="-126" y="-108"/>
      <point x="-167" y="-118"/>
      <point x="-220" y="-118" type="curve" smooth="yes"/>
      <point x="-273" y="-118"/>
      <point x="-314" y="-108"/>
      <point x="-353" y="-83" type="curve"/>
      <point x="-357" y="-109" type="line"/>
      <point x="-321" y="-131"/>
      <point x="-278" y="-144"/>
    </contour>
  </outline>
</glyph>
<glyph name="eematraguru" format="2">
  <unicode hex="0A47"/>
  <outline>
    <contour>
      <point x="-102" y="615" type="curve"/>
      <point x="-76" y="615" type="line"/>
      <point x="-108" y="792"/>
      <point x="-153" y="890"/>
      <point x="-269" y="890" type="curve" smooth="yes"/>
      <point x="-277" y="890"/>
      <point x="-284" y="890"/>
      <point x="-288" y="890" type="curve"/>
      <point x="-286" y="864" type="line"/>
      <point x="-282" y="864"/>
      <point x="-274" y="864"/>
      <point x="-268" y="864" type="curve" smooth="yes"/>
      <point x="-166" y="864"/>
      <point x="-132" y="771"/>
    </contour>
  </outline>
</glyph>
<glyph name="aimatraguru" format="2">
  <unicode hex="0A48"/>
  <outline>
    <contour>
      <point x="-93" y="613" type="curve"/>
      <point x="-73" y="615" type="line"/>
      <point x="-99" y="790"/>
      <point x="-145" y="890"/>
      <point x="-262" y="890" type="curve" smooth="yes"/>
      <point x="-266" y="890"/>
      <point x="-271" y="890"/>
      <point x="-275" y="890" type="curve"/>
      <point x="-274" y="864" type="line"/>
      <point x="-271" y="864"/>
      <point x="-266" y="864"/>
      <point x="-262" y="864" type="curve" smooth="yes"/>
      <point x="-157" y="864"/>
      <point x="-125" y="771"/>
    </contour>
    <contour>
      <point x="-102" y="600" type="curve"/>
      <point x="-87" y="606" type="line"/>
      <point x="-137" y="729"/>
      <point x="-193" y="755"/>
      <point x="-284" y="755" type="curve" smooth="yes"/>
      <point x="-287" y="755"/>
      <point x="-289" y="755"/>
      <point x="-293" y="755" type="curve"/>
      <point x="-292" y="729" type="line"/>
      <point x="-287" y="729"/>
      <point x="-281" y="729"/>
      <point x="-277" y="729" type="curve" smooth="yes"/>
      <point x="-200" y="729"/>
      <point x="-153" y="701"/>
    </contour>
  </outline>
</glyph>
<glyph name="oomatraguru" format="2">
  <unicode hex="0A4B"/>
  <outline>
    <contour>
      <point x="-104" y="615" type="curve"/>
      <point x="-78" y="615" type="line"/>
      <point x="-88" y="757"/>
      <point x="-124" y="785"/>
      <point x="-184" y="785" type="curve" smooth="yes"/>
      <point x="-193" y="785"/>
      <point x="-204" y="784"/>
      <point x="-217" y="784" type="curve" smooth="yes"/>
      <point x="-272" y="784"/>
      <point x="-285" y="813"/>
      <point x="-305" y="890" type="curve"/>
      <point x="-330" y="884" type="line"/>
      <point x="-309" y="797"/>
      <point x="-286" y="758"/>
      <point x="-215" y="758" type="curve" smooth="yes"/>
      <point x="-204" y="758"/>
      <point x="-193" y="759"/>
      <point x="-181" y="759" type="curve" smooth="yes"/>
      <point x="-133" y="759"/>
      <point x="-114" y="722"/>
    </contour>
  </outline>
</glyph>
<glyph name="aumatraguru" format="2">
  <unicode hex="0A4C"/>
  <outline>
    <contour>
      <point x="-165" y="682" type="curve"/>
      <point x="-140" y="687" type="line"/>
      <point x="-148" y="710"/>
      <point x="-153" y="736"/>
      <point x="-153" y="762" type="curve" smooth="yes"/>
      <point x="-153" y="812"/>
      <point x="-130" y="843"/>
      <point x="-89" y="843" type="curve" smooth="yes"/>
      <point x="-48" y="843"/>
      <point x="-25" y="812"/>
      <point x="-25" y="761" type="curve" smooth="yes"/>
      <point x="-25" y="736"/>
      <point x="-30" y="710"/>
      <point x="-38" y="687" type="curve"/>
      <point x="-13" y="682" type="line"/>
      <point x="-3" y="708"/>
      <point x="1" y="737"/>
      <point x="1" y="761" type="curve" smooth="yes"/>
      <point x="1" y="827"/>
      <point x="-36" y="868"/>
      <point x="-89" y="868" type="curve" smooth="yes"/>
      <point x="-141" y="868"/>
      <point x="-179" y="827"/>
      <point x="-179" y="761" type="curve" smooth="yes"/>
      <point x="-179" y="737"/>
      <point x="-175" y="708"/>
    </contour>
    <contour>
      <point x="-211" y="784" type="curve" smooth="yes"/>
      <point x="-182" y="784"/>
      <point x="-164" y="797"/>
      <point x="-148" y="812" type="curve"/>
      <point x="-159" y="830" type="line"/>
      <point x="-175" y="813"/>
      <point x="-190" y="809"/>
      <point x="-210" y="809" type="curve" smooth="yes"/>
      <point x="-238" y="809"/>
      <point x="-259" y="823"/>
      <point x="-276" y="890" type="curve"/>
      <point x="-301" y="882" type="line"/>
      <point x="-283" y="809"/>
      <point x="-252" y="784"/>
    </contour>
  </outline>
</glyph>
<glyph name="halantguru" format="2">
  <unicode hex="0A4D"/>
  <outline>
    <contour>
      <point x="49" y="-246" type="curve"/>
      <point x="74" y="-239" type="line"/>
      <point x="31" y="-100"/>
      <point x="-27" y="-45"/>
      <point x="-112" y="-45" type="curve" smooth="yes"/>
      <point x="-117" y="-45"/>
      <point x="-124" y="-45"/>
      <point x="-130" y="-46" type="curve"/>
      <point x="-128" y="-72" type="line"/>
      <point x="-121" y="-71"/>
      <point x="-117" y="-71"/>
      <point x="-112" y="-71" type="curve" smooth="yes"/>
      <point x="-43" y="-71"/>
      <point x="8" y="-112"/>
    </contour>
  </outline>
</glyph>
<glyph name="udaatguru" format="2">
  <unicode hex="0A51"/>
  <outline>
    <contour>
      <point x="93" y="-282" type="curve"/>
      <point x="95" y="-256" type="line"/>
      <point x="92" y="-256"/>
      <point x="88" y="-256"/>
      <point x="86" y="-256" type="curve" smooth="yes"/>
      <point x="2" y="-256"/>
      <point x="-45" y="-194"/>
      <point x="-76" y="-34" type="curve"/>
      <point x="-101" y="-40" type="line"/>
      <point x="-69" y="-209"/>
      <point x="-13" y="-282"/>
      <point x="86" y="-282" type="curve" smooth="yes"/>
      <point x="88" y="-282"/>
      <point x="91" y="-282"/>
    </contour>
  </outline>
</glyph>
<glyph name="januktaguru" format="2">
  <advance width="421"/>
  <unicode hex="0A5B"/>
  <outline>
    <contour>
      <point x="78" y="0" type="line"/>
      <point x="104" y="0" type="line"/>
      <point x="104" y="333" type="line"/>
      <point x="318" y="333" type="line"/>
      <point x="318" y="0" type="line"/>
      <point x="344" y="0" type="line"/>
      <point x="344" y="596" type="line"/>
      <point x="428" y="596" type="line"/>
      <point x="428" y="622" type="line"/>
      <point x="-7" y="622" type="line"/>
      <point x="-7" y="596" type="line"/>
      <point x="318" y="596" type="line"/>
      <point x="318" y="359" type="line"/>
      <point x="106" y="359" type="line"/>
      <point x="106" y="387" type="line" smooth="yes"/>
      <point x="106" y="404"/>
      <point x="102" y="413"/>
      <point x="91" y="413" type="curve" smooth="yes"/>
      <point x="70" y="413"/>
      <point x="42" y="375"/>
      <point x="42" y="351" type="curve" smooth="yes"/>
      <point x="42" y="335"/>
      <point x="55" y="333"/>
      <point x="71" y="333" type="curve" smooth="yes"/>
      <point x="78" y="333" type="line"/>
    </contour>
    <contour>
      <point x="210" y="-7" type="curve" smooth="yes"/>
      <point x="225" y="-7"/>
      <point x="237" y="4"/>
      <point x="237" y="31" type="curve" smooth="yes"/>
      <point x="237" y="55"/>
      <point x="226" y="69"/>
      <point x="211" y="69" type="curve" smooth="yes"/>
      <point x="197" y="69"/>
      <point x="184" y="56"/>
      <point x="184" y="31" type="curve" smooth="yes"/>
      <point x="184" y="5"/>
      <point x="198" y="-7"/>
    </contour>
  </outline>
</glyph>
<glyph name="rraguru" format="2">
  <advance width="393"/>
  <unicode hex="0A5C"/>
  <outline>
    <contour>
      <point x="185" y="87" type="curve" smooth="yes"/>
      <point x="285" y="87"/>
      <point x="347" y="140"/>
      <point x="347" y="229" type="curve" smooth="yes"/>
      <point x="347" y="301"/>
      <point x="302" y="351"/>
      <point x="238" y="378" type="curve"/>
      <point x="299" y="414"/>
      <point x="328" y="465"/>
      <point x="328" y="546" type="curve" smooth="yes"/>
      <point x="328" y="568"/>
      <point x="325" y="591"/>
      <point x="320" y="616" type="curve"/>
      <point x="309" y="596" type="line"/>
      <point x="400" y="596" type="line"/>
      <point x="400" y="622" type="line"/>
      <point x="-7" y="622" type="line"/>
      <point x="-7" y="596" type="line"/>
      <point x="302" y="596" type="line"/>
      <point x="293" y="616" type="line"/>
      <point x="299" y="589"/>
      <point x="302" y="568"/>
      <point x="302" y="546" type="curve" smooth="yes"/>
      <point x="302" y="463"/>
      <point x="264" y="419"/>
      <point x="212" y="391" type="curve"/>
      <point x="191" y="399"/>
      <point x="161" y="405"/>
      <point x="122" y="405" type="curve" smooth="yes"/>
      <point x="74" y="405"/>
      <point x="53" y="399"/>
      <point x="53" y="384" type="curve" smooth="yes"/>
      <point x="53" y="367"/>
      <point x="77" y="359"/>
      <point x="137" y="359" type="curve" smooth="yes"/>
      <point x="168" y="359"/>
      <point x="182" y="361"/>
      <point x="209" y="366" type="curve"/>
      <point x="267" y="345"/>
      <point x="320" y="300"/>
      <point x="320" y="229" type="curve" smooth="yes"/>
      <point x="320" y="151"/>
      <point x="271" y="113"/>
      <point x="185" y="113" type="curve" smooth="yes"/>
      <point x="132" y="113"/>
      <point x="82" y="130"/>
      <point x="32" y="159" type="curve"/>
      <point x="18" y="140" type="line"/>
      <point x="42" y="128" type="line"/>
      <point x="89" y="102"/>
      <point x="132" y="87"/>
    </contour>
    <contour>
      <point x="97" y="-12" type="curve"/>
      <point x="122" y="-1" type="line"/>
      <point x="96" y="56"/>
      <point x="71" y="100"/>
      <point x="44" y="138" type="curve"/>
      <point x="18" y="140" type="line"/>
      <point x="45" y="98"/>
      <point x="73" y="42"/>
    </contour>
    <contour>
      <point x="317" y="-12" type="curve"/>
      <point x="342" y="-1" type="line"/>
      <point x="319" y="45"/>
      <point x="294" y="86"/>
      <point x="267" y="121" type="curve"/>
      <point x="256" y="116" type="line"/>
      <point x="242" y="112" type="line"/>
      <point x="269" y="76"/>
      <point x="292" y="37"/>
    </contour>
  </outline>
</glyph>
<glyph name="zeroguru" format="2">
  <advance width="411"/>
  <unicode hex="0A66"/>
  <outline>
    <contour>
      <point x="206" y="87" type="curve" smooth="yes"/>
      <point x="314" y="87"/>
      <point x="374" y="175"/>
      <point x="374" y="316" type="curve" smooth="yes"/>
      <point x="374" y="455"/>
      <point x="316" y="544"/>
      <point x="205" y="544" type="curve" smooth="yes"/>
      <point x="97" y="544"/>
      <point x="37" y="457"/>
      <point x="37" y="315" type="curve" smooth="yes"/>
      <point x="37" y="174"/>
      <point x="96" y="87"/>
    </contour>
    <contour>
      <point x="205" y="113" type="curve" smooth="yes"/>
      <point x="107" y="113"/>
      <point x="64" y="196"/>
      <point x="64" y="315" type="curve" smooth="yes"/>
      <point x="64" y="435"/>
      <point x="107" y="518"/>
      <point x="205" y="518" type="curve" smooth="yes"/>
      <point x="301" y="518"/>
      <point x="347" y="439"/>
      <point x="347" y="315" type="curve" smooth="yes"/>
      <point x="347" y="196"/>
      <point x="304" y="113"/>
    </contour>
  </outline>
</glyph>
<glyph name="oneguru" format="2">
  <advance width="411"/>
  <unicode hex="0A67"/>
  <outline>
    <contour>
      <point x="384" y="0" type="curve"/>
      <point x="387" y="26" type="line"/>
      <point x="326" y="35"/>
      <point x="305" y="67"/>
      <point x="305" y="149" type="curve" smooth="yes"/>
      <point x="305" y="477" type="line" smooth="yes"/>
      <point x="305" y="531"/>
      <point x="298" y="573"/>
      <point x="267" y="601" type="curve" smooth="yes"/>
      <point x="248" y="618"/>
      <point x="223" y="628"/>
      <point x="192" y="628" type="curve" smooth="yes"/>
      <point x="108" y="628"/>
      <point x="62" y="561"/>
      <point x="62" y="473" type="curve" smooth="yes"/>
      <point x="62" y="373"/>
      <point x="113" y="319"/>
      <point x="189" y="319" type="curve" smooth="yes"/>
      <point x="232" y="319"/>
      <point x="269" y="337"/>
      <point x="296" y="365" type="curve"/>
      <point x="289" y="393" type="line"/>
      <point x="267" y="363"/>
      <point x="227" y="345"/>
      <point x="189" y="345" type="curve" smooth="yes"/>
      <point x="127" y="345"/>
      <point x="89" y="389"/>
      <point x="89" y="472" type="curve" smooth="yes"/>
      <point x="89" y="554"/>
      <point x="128" y="602"/>
      <point x="191" y="602" type="curve" smooth="yes"/>
      <point x="215" y="602"/>
      <point x="236" y="594"/>
      <point x="249" y="581" type="curve" smooth="yes"/>
      <point x="273" y="557"/>
      <point x="279" y="523"/>
      <point x="279" y="474" type="curve" smooth="yes"/>
      <point x="279" y="146" type="line" smooth="yes"/>
      <point x="279" y="84"/>
      <point x="288" y="53"/>
      <point x="315" y="29" type="curve" smooth="yes"/>
      <point x="332" y="14"/>
      <point x="353" y="5"/>
    </contour>
  </outline>
</glyph>
<glyph name="twoguru" format="2">
  <advance width="411"/>
  <unicode hex="0A68"/>
  <outline>
    <contour>
      <point x="126" y="180" type="curve" smooth="yes"/>
      <point x="277" y="180"/>
      <point x="332" y="296"/>
      <point x="332" y="417" type="curve" smooth="yes"/>
      <point x="332" y="528"/>
      <point x="286" y="626"/>
      <point x="161" y="626" type="curve" smooth="yes"/>
      <point x="122" y="626"/>
      <point x="86" y="618"/>
      <point x="43" y="601" type="curve"/>
      <point x="53" y="577" type="line"/>
      <point x="91" y="592"/>
      <point x="122" y="600"/>
      <point x="162" y="600" type="curve" smooth="yes"/>
      <point x="265" y="600"/>
      <point x="305" y="521"/>
      <point x="305" y="417" type="curve" smooth="yes"/>
      <point x="305" y="312"/>
      <point x="268" y="228"/>
      <point x="154" y="204" type="curve"/>
      <point x="178" y="206" type="line"/>
      <point x="193" y="203" type="line"/>
      <point x="160" y="223"/>
      <point x="128" y="232"/>
      <point x="98" y="232" type="curve" smooth="yes"/>
      <point x="72" y="232"/>
      <point x="56" y="226"/>
      <point x="56" y="211" type="curve" smooth="yes"/>
      <point x="56" y="188"/>
      <point x="85" y="180"/>
    </contour>
    <contour>
      <point x="360" y="-10" type="curve"/>
      <point x="382" y="6" type="line"/>
      <point x="316" y="88"/>
      <point x="246" y="158"/>
      <point x="186" y="203" type="curve"/>
      <point x="180" y="210" type="line"/>
      <point x="156" y="194" type="line"/>
      <point x="222" y="149"/>
      <point x="303" y="63"/>
    </contour>
  </outline>
</glyph>
<glyph name="threeguru" format="2">
  <advance width="411"/>
  <unicode hex="0A69"/>
  <outline>
    <contour>
      <point x="354" y="-55" type="curve"/>
      <point x="375" y="-38" type="line"/>
      <point x="317" y="18"/>
      <point x="239" y="82"/>
      <point x="192" y="106" type="curve"/>
      <point x="172" y="91" type="line"/>
      <point x="228" y="62"/>
      <point x="300" y="-1"/>
    </contour>
    <contour>
      <point x="240" y="357" type="line"/>
      <point x="293" y="377"/>
      <point x="337" y="426"/>
      <point x="337" y="493" type="curve" smooth="yes"/>
      <point x="337" y="573"/>
      <point x="280" y="624"/>
      <point x="187" y="624" type="curve" smooth="yes"/>
      <point x="141" y="624"/>
      <point x="100" y="616"/>
      <point x="47" y="598" type="curve"/>
      <point x="57" y="573" type="line"/>
      <point x="105" y="590"/>
      <point x="147" y="598"/>
      <point x="187" y="598" type="curve" smooth="yes"/>
      <point x="261" y="598"/>
      <point x="310" y="561"/>
      <point x="310" y="493" type="curve" smooth="yes"/>
      <point x="310" y="430"/>
      <point x="268" y="388"/>
      <point x="204" y="366" type="curve"/>
      <point x="231" y="368" type="line"/>
      <point x="200" y="378"/>
      <point x="171" y="384"/>
      <point x="138" y="384" type="curve" smooth="yes"/>
      <point x="102" y="384"/>
      <point x="80" y="378"/>
      <point x="80" y="362" type="curve" smooth="yes"/>
      <point x="80" y="345"/>
      <point x="103" y="341"/>
      <point x="141" y="341" type="curve" smooth="yes"/>
      <point x="167" y="341"/>
      <point x="200" y="344"/>
      <point x="232" y="352" type="curve"/>
      <point x="202" y="350" type="line"/>
      <point x="270" y="333"/>
      <point x="314" y="291"/>
      <point x="314" y="226" type="curve" smooth="yes"/>
      <point x="314" y="166"/>
      <point x="276" y="116"/>
      <point x="176" y="109" type="curve"/>
      <point x="194" y="106" type="line"/>
      <point x="158" y="124"/>
      <point x="121" y="133"/>
      <point x="90" y="133" type="curve" smooth="yes"/>
      <point x="63" y="133"/>
      <point x="51" y="129"/>
      <point x="51" y="114" type="curve" smooth="yes"/>
      <point x="51" y="95"/>
      <point x="88" y="84"/>
      <point x="154" y="84" type="curve" smooth="yes"/>
      <point x="270" y="84"/>
      <point x="341" y="136"/>
      <point x="341" y="226" type="curve" smooth="yes"/>
      <point x="341" y="303"/>
      <point x="291" y="344"/>
      <point x="238" y="362" type="curve"/>
    </contour>
  </outline>
</glyph>
<glyph name="fourguru" format="2">
  <advance width="411"/>
  <unicode hex="0A6A"/>
  <outline>
    <contour>
      <point x="206" y="294" type="curve" smooth="yes"/>
      <point x="307" y="294"/>
      <point x="367" y="353"/>
      <point x="367" y="460" type="curve" smooth="yes"/>
      <point x="367" y="529"/>
      <point x="329" y="589"/>
      <point x="256" y="624" type="curve"/>
      <point x="246" y="599" type="line"/>
      <point x="294" y="578"/>
      <point x="340" y="533"/>
      <point x="340" y="459" type="curve" smooth="yes"/>
      <point x="340" y="368"/>
      <point x="289" y="316"/>
      <point x="205" y="316" type="curve" smooth="yes"/>
      <point x="121" y="316"/>
      <point x="71" y="368"/>
      <point x="71" y="459" type="curve" smooth="yes"/>
      <point x="71" y="533"/>
      <point x="117" y="578"/>
      <point x="165" y="599" type="curve"/>
      <point x="155" y="624" type="line"/>
      <point x="83" y="589"/>
      <point x="44" y="529"/>
      <point x="44" y="460" type="curve" smooth="yes"/>
      <point x="44" y="354"/>
      <point x="104" y="294"/>
    </contour>
    <contour>
      <point x="206" y="-4" type="curve" smooth="yes"/>
      <point x="308" y="-4"/>
      <point x="356" y="71"/>
      <point x="356" y="155" type="curve" smooth="yes"/>
      <point x="356" y="248"/>
      <point x="307" y="313"/>
      <point x="206" y="313" type="curve" smooth="yes"/>
      <point x="104" y="313"/>
      <point x="55" y="247"/>
      <point x="55" y="156" type="curve" smooth="yes"/>
      <point x="55" y="71"/>
      <point x="103" y="-4"/>
    </contour>
    <contour>
      <point x="205" y="22" type="curve" smooth="yes"/>
      <point x="117" y="22"/>
      <point x="82" y="86"/>
      <point x="82" y="156" type="curve" smooth="yes"/>
      <point x="82" y="229"/>
      <point x="119" y="291"/>
      <point x="206" y="291" type="curve" smooth="yes"/>
      <point x="288" y="291"/>
      <point x="329" y="235"/>
      <point x="329" y="156" type="curve" smooth="yes"/>
      <point x="329" y="90"/>
      <point x="297" y="22"/>
    </contour>
  </outline>
</glyph>
<glyph name="fiveguru" format="2">
  <advance width="411"/>
  <unicode hex="0A6B"/>
  <outline>
    <contour>
      <point x="302" y="0" type="line"/>
      <point x="328" y="0" type="line"/>
      <point x="328" y="622" type="line"/>
      <point x="302" y="622" type="line"/>
      <point x="302" y="223" type="line"/>
      <point x="313" y="253" type="line"/>
      <point x="278" y="226"/>
      <point x="255" y="211"/>
      <point x="209" y="211" type="curve" smooth="yes"/>
      <point x="140" y="211"/>
      <point x="98" y="251"/>
      <point x="70" y="343" type="curve"/>
      <point x="63" y="326" type="line"/>
      <point x="103" y="379"/>
      <point x="123" y="415"/>
      <point x="123" y="481" type="curve" smooth="yes"/>
      <point x="123" y="527"/>
      <point x="109" y="580"/>
      <point x="87" y="627" type="curve"/>
      <point x="62" y="617" type="line"/>
      <point x="85" y="572"/>
      <point x="96" y="527"/>
      <point x="96" y="481" type="curve" smooth="yes"/>
      <point x="96" y="421"/>
      <point x="78" y="389"/>
      <point x="43" y="343" type="curve"/>
      <point x="81" y="216"/>
      <point x="143" y="185"/>
      <point x="208" y="185" type="curve" smooth="yes"/>
      <point x="258" y="185"/>
      <point x="292" y="204"/>
      <point x="317" y="223" type="curve"/>
      <point x="302" y="216" type="line"/>
    </contour>
  </outline>
</glyph>
<glyph name="sixguru" format="2">
  <advance width="411"/>
  <unicode hex="0A6C"/>
  <outline>
    <contour>
      <point x="279" y="535" type="curve"/>
      <point x="304" y="542" type="line"/>
      <point x="273" y="579"/>
      <point x="252" y="622"/>
      <point x="252" y="672" type="curve" smooth="yes"/>
      <point x="252" y="729"/>
      <point x="288" y="761"/>
      <point x="336" y="761" type="curve" smooth="yes"/>
      <point x="350" y="761"/>
      <point x="358" y="760"/>
      <point x="369" y="758" type="curve"/>
      <point x="373" y="784" type="line"/>
      <point x="362" y="786"/>
      <point x="350" y="787"/>
      <point x="337" y="787" type="curve" smooth="yes"/>
      <point x="272" y="787"/>
      <point x="225" y="742"/>
      <point x="225" y="672" type="curve" smooth="yes"/>
      <point x="225" y="618"/>
      <point x="249" y="573"/>
    </contour>
    <contour>
      <point x="366" y="49" type="line"/>
      <point x="338" y="37"/>
      <point x="298" y="22"/>
      <point x="238" y="22" type="curve" smooth="yes"/>
      <point x="157" y="22"/>
      <point x="103" y="68"/>
      <point x="103" y="147" type="curve" smooth="yes"/>
      <point x="103" y="213"/>
      <point x="148" y="257"/>
      <point x="217" y="278" type="curve"/>
      <point x="200" y="278" type="line"/>
      <point x="225" y="269"/>
      <point x="257" y="263"/>
      <point x="284" y="263" type="curve" smooth="yes"/>
      <point x="314" y="263"/>
      <point x="331" y="268"/>
      <point x="331" y="286" type="curve" smooth="yes"/>
      <point x="331" y="302"/>
      <point x="311" y="309"/>
      <point x="282" y="309" type="curve" smooth="yes"/>
      <point x="251" y="309"/>
      <point x="227" y="304"/>
      <point x="197" y="295" type="curve"/>
      <point x="226" y="294" type="line"/>
      <point x="154" y="312"/>
      <point x="103" y="347"/>
      <point x="103" y="419" type="curve" smooth="yes"/>
      <point x="103" y="482"/>
      <point x="150" y="530"/>
      <point x="262" y="533" type="curve" smooth="yes"/>
      <point x="275" y="533"/>
      <point x="299" y="531"/>
      <point x="309" y="530" type="curve"/>
      <point x="271" y="538" type="line"/>
      <point x="292" y="507"/>
      <point x="320" y="495"/>
      <point x="344" y="495" type="curve" smooth="yes"/>
      <point x="359" y="495"/>
      <point x="366" y="502"/>
      <point x="366" y="513" type="curve" smooth="yes"/>
      <point x="366" y="536"/>
      <point x="327" y="559"/>
      <point x="258" y="559" type="curve" smooth="yes"/>
      <point x="163" y="559"/>
      <point x="76" y="512"/>
      <point x="76" y="420" type="curve" smooth="yes"/>
      <point x="76" y="341"/>
      <point x="126" y="304"/>
      <point x="192" y="281" type="curve"/>
      <point x="192" y="292" type="line"/>
      <point x="124" y="270"/>
      <point x="76" y="219"/>
      <point x="76" y="147" type="curve" smooth="yes"/>
      <point x="76" y="52"/>
      <point x="144" y="-4"/>
      <point x="238" y="-4" type="curve" smooth="yes"/>
      <point x="299" y="-4"/>
      <point x="340" y="9"/>
      <point x="376" y="24" type="curve"/>
    </contour>
  </outline>
</glyph>
<glyph name="sevenguru" format="2">
  <advance width="411"/>
  <unicode hex="0A6D"/>
  <outline>
    <contour>
      <point x="39" y="-6" type="line"/>
      <point x="213" y="16"/>
      <point x="348" y="156"/>
      <point x="348" y="368" type="curve" smooth="yes"/>
      <point x="348" y="543"/>
      <point x="286" y="626"/>
      <point x="194" y="626" type="curve" smooth="yes"/>
      <point x="117" y="626"/>
      <point x="63" y="570"/>
      <point x="63" y="477" type="curve" smooth="yes"/>
      <point x="63" y="422"/>
      <point x="84" y="376"/>
      <point x="107" y="341" type="curve"/>
      <point x="131" y="354" type="line"/>
      <point x="114" y="378"/>
      <point x="90" y="423"/>
      <point x="90" y="476" type="curve" smooth="yes"/>
      <point x="90" y="558"/>
      <point x="133" y="600"/>
      <point x="194" y="600" type="curve" smooth="yes"/>
      <point x="285" y="600"/>
      <point x="321" y="498"/>
      <point x="321" y="369" type="curve" smooth="yes"/>
      <point x="321" y="178"/>
      <point x="208" y="46"/>
      <point x="37" y="21" type="curve"/>
    </contour>
  </outline>
</glyph>
<glyph name="eightguru" format="2">
  <advance width="411"/>
  <unicode hex="0A6E"/>
  <outline>
    <contour>
      <point x="307" y="0" type="curve" smooth="yes"/>
      <point x="335" y="0"/>
      <point x="357" y="3"/>
      <point x="383" y="10" type="curve"/>
      <point x="380" y="35" type="line"/>
      <point x="355" y="29"/>
      <point x="331" y="26"/>
      <point x="308" y="26" type="curve" smooth="yes"/>
      <point x="244" y="26"/>
      <point x="202" y="43"/>
      <point x="175" y="76" type="curve" smooth="yes"/>
      <point x="142" y="116"/>
      <point x="132" y="177"/>
      <point x="132" y="280" type="curve" smooth="yes"/>
      <point x="132" y="528" type="line"/>
      <point x="374" y="528" type="line"/>
      <point x="374" y="554" type="line"/>
      <point x="133" y="554" type="line"/>
      <point x="133" y="588" type="line" smooth="yes"/>
      <point x="133" y="605"/>
      <point x="130" y="614"/>
      <point x="117" y="614" type="curve" smooth="yes"/>
      <point x="96" y="614"/>
      <point x="65" y="575"/>
      <point x="65" y="550" type="curve" smooth="yes"/>
      <point x="65" y="530"/>
      <point x="78" y="528"/>
      <point x="94" y="528" type="curve" smooth="yes"/>
      <point x="106" y="528" type="line"/>
      <point x="106" y="272" type="line" smooth="yes"/>
      <point x="106" y="171"/>
      <point x="115" y="107"/>
      <point x="152" y="63" type="curve" smooth="yes"/>
      <point x="187" y="22"/>
      <point x="234" y="0"/>
    </contour>
  </outline>
</glyph>
<glyph name="nineguru" format="2">
  <advance width="411"/>
  <unicode hex="0A6F"/>
  <outline>
    <contour>
      <point x="307" y="0" type="curve" smooth="yes"/>
      <point x="335" y="0"/>
      <point x="357" y="3"/>
      <point x="383" y="10" type="curve"/>
      <point x="380" y="35" type="line"/>
      <point x="355" y="29"/>
      <point x="331" y="26"/>
      <point x="308" y="26" type="curve" smooth="yes"/>
      <point x="244" y="26"/>
      <point x="202" y="43"/>
      <point x="175" y="76" type="curve" smooth="yes"/>
      <point x="142" y="116"/>
      <point x="132" y="177"/>
      <point x="132" y="280" type="curve" smooth="yes"/>
      <point x="132" y="528" type="line"/>
      <point x="374" y="528" type="line"/>
      <point x="374" y="554" type="line"/>
      <point x="133" y="554" type="line"/>
      <point x="133" y="588" type="line" smooth="yes"/>
      <point x="133" y="605"/>
      <point x="130" y="614"/>
      <point x="117" y="614" type="curve" smooth="yes"/>
      <point x="96" y="614"/>
      <point x="65" y="575"/>
      <point x="65" y="550" type="curve" smooth="yes"/>
      <point x="65" y="530"/>
      <point x="78" y="528"/>
      <point x="94" y="528" type="curve" smooth="yes"/>
      <point x="106" y="528" type="line"/>
      <point x="106" y="272" type="line" smooth="yes"/>
      <point x="106" y="171"/>
      <point x="115" y="107"/>
      <point x="152" y="63" type="curve" smooth="yes"/>
      <point x="187" y="22"/>
      <point x="234" y="0"/>
    </contour>
    <contour>
      <point x="321" y="535" type="curve"/>
      <point x="347" y="542" type="line"/>
      <point x="316" y="579"/>
      <point x="295" y="622"/>
      <point x="295" y="672" type="curve" smooth="yes"/>
      <point x="295" y="729"/>
      <point x="331" y="761"/>
      <point x="379" y="761" type="curve" smooth="yes"/>
      <point x="393" y="761"/>
      <point x="401" y="760"/>
      <point x="412" y="758" type="curve"/>
      <point x="416" y="784" type="line"/>
      <point x="405" y="786"/>
      <point x="393" y="787"/>
      <point x="380" y="787" type="curve" smooth="yes"/>
      <point x="315" y="787"/>
      <point x="268" y="742"/>
      <point x="268" y="672" type="curve" smooth="yes"/>
      <point x="268" y="618"/>
      <point x="293" y="573"/>
    </contour>
  </outline>
</glyph>
<glyph name="tippiguru" format="2">
  <unicode hex="0A70"/>
  <outline>
    <contour>
      <point x="-170" y="682" type="curve"/>
      <point x="-145" y="687" type="line"/>
      <point x="-153" y="710"/>
      <point x="-158" y="736"/>
      <point x="-158" y="762" type="curve" smooth="yes"/>
      <point x="-158" y="812"/>
      <point x="-135" y="843"/>
      <point x="-90" y="843" type="curve" smooth="yes"/>
      <point x="-45" y="843"/>
      <point x="-22" y="812"/>
      <point x="-22" y="761" type="curve" smooth="yes"/>
      <point x="-22" y="736"/>
      <point x="-27" y="710"/>
      <point x="-35" y="687" type="curve"/>
      <point x="-10" y="682" type="line"/>
      <point x="0" y="708"/>
      <point x="4" y="737"/>
      <point x="4" y="761" type="curve" smooth="yes"/>
      <point x="4" y="827"/>
      <point x="-33" y="868"/>
      <point x="-90" y="868" type="curve" smooth="yes"/>
      <point x="-147" y="868"/>
      <point x="-184" y="827"/>
      <point x="-184" y="761" type="curve" smooth="yes"/>
      <point x="-184" y="737"/>
      <point x="-180" y="708"/>
    </contour>
  </outline>
</glyph>
<glyph name="addakguru" format="2">
  <unicode hex="0A71"/>
  <outline>
    <contour>
      <point x="-89" y="696" type="curve" smooth="yes"/>
      <point x="-21" y="696"/>
      <point x="13" y="749"/>
      <point x="13" y="864" type="curve"/>
      <point x="-13" y="866" type="line"/>
      <point x="-14" y="765"/>
      <point x="-35" y="721"/>
      <point x="-89" y="721" type="curve" smooth="yes"/>
      <point x="-143" y="721"/>
      <point x="-164" y="765"/>
      <point x="-165" y="866" type="curve"/>
      <point x="-191" y="864" type="line"/>
      <point x="-191" y="748"/>
      <point x="-157" y="696"/>
    </contour>
  </outline>
</glyph>
<glyph name="iriguru" format="2">
  <advance width="392"/>
  <unicode hex="0A72"/>
  <guideline x="150" y="198" angle="0"/>
  <outline>
    <contour>
      <point x="42" y="198" type="curve"/>
      <point x="78" y="86"/>
      <point x="134" y="0"/>
      <point x="244" y="0" type="curve" smooth="yes"/>
      <point x="289" y="0"/>
      <point x="322" y="10"/>
      <point x="358" y="26" type="curve"/>
      <point x="348" y="51" type="line"/>
      <point x="312" y="34"/>
      <point x="289" y="26"/>
      <point x="244" y="26" type="curve" smooth="yes"/>
      <point x="152" y="26"/>
      <point x="101" y="95"/>
      <point x="65" y="215" type="curve"/>
      <point x="62" y="177" type="line"/>
      <point x="85" y="228"/>
      <point x="122" y="282"/>
      <point x="172" y="312" type="curve" smooth="yes"/>
      <point x="195" y="325"/>
      <point x="217" y="333"/>
      <point x="258" y="333" type="curve" smooth="yes"/>
      <point x="306" y="333" type="line"/>
      <point x="322" y="349" type="line"/>
      <point x="322" y="596" type="line"/>
      <point x="399" y="596" type="line"/>
      <point x="399" y="622" type="line"/>
      <point x="-7" y="622" type="line"/>
      <point x="-7" y="596" type="line"/>
      <point x="55" y="596" type="line"/>
      <point x="55" y="428"/>
      <point x="85" y="349"/>
      <point x="214" y="338" type="curve"/>
      <point x="224" y="348" type="line"/>
      <point x="133" y="347"/>
      <point x="73" y="263"/>
    </contour>
    <contour>
      <point x="244" y="359" type="line" smooth="yes"/>
      <point x="193" y="359"/>
      <point x="165" y="367"/>
      <point x="143" y="382" type="curve" smooth="yes"/>
      <point x="96" y="416"/>
      <point x="81" y="476"/>
      <point x="81" y="596" type="curve"/>
      <point x="296" y="596" type="line"/>
      <point x="296" y="359" type="line"/>
    </contour>
  </outline>
</glyph>
<glyph name="uraguru" format="2">
  <advance width="473"/>
  <unicode hex="0A73"/>
  <outline>
    <contour>
      <point x="253" y="0" type="curve" smooth="yes"/>
      <point x="345" y="0"/>
      <point x="387" y="63"/>
      <point x="387" y="155" type="curve" smooth="yes"/>
      <point x="387" y="259"/>
      <point x="323" y="340"/>
      <point x="191" y="348" type="curve"/>
      <point x="190" y="337" type="line"/>
      <point x="329" y="340"/>
      <point x="439" y="399"/>
      <point x="439" y="605" type="curve" smooth="yes"/>
      <point x="439" y="778"/>
      <point x="381" y="852"/>
      <point x="279" y="852" type="curve" smooth="yes"/>
      <point x="180" y="852"/>
      <point x="114" y="772"/>
      <point x="83" y="620" type="curve"/>
      <point x="81" y="606" type="line"/>
      <point x="71" y="549"/>
      <point x="64" y="481"/>
      <point x="64" y="404" type="curve" smooth="yes"/>
      <point x="64" y="111"/>
      <point x="139" y="0"/>
    </contour>
    <contour>
      <point x="252" y="26" type="curve" smooth="yes"/>
      <point x="159" y="26"/>
      <point x="90" y="124"/>
      <point x="90" y="404" type="curve" smooth="yes"/>
      <point x="90" y="479"/>
      <point x="97" y="546"/>
      <point x="107" y="604" type="curve"/>
      <point x="109" y="616" type="line"/>
      <point x="134" y="743"/>
      <point x="189" y="826"/>
      <point x="278" y="826" type="curve" smooth="yes"/>
      <point x="370" y="826"/>
      <point x="413" y="751"/>
      <point x="413" y="613" type="curve" smooth="yes"/>
      <point x="413" y="592" type="line" smooth="yes"/>
      <point x="413" y="496"/>
      <point x="381" y="430"/>
      <point x="325" y="396" type="curve" smooth="yes"/>
      <point x="288" y="373"/>
      <point x="250" y="359"/>
      <point x="160" y="359" type="curve" smooth="yes"/>
      <point x="83" y="359" type="line"/>
      <point x="90" y="333" type="line"/>
      <point x="138" y="333" type="line" smooth="yes"/>
      <point x="198" y="333"/>
      <point x="229" y="326"/>
      <point x="262" y="311" type="curve" smooth="yes"/>
      <point x="316" y="286"/>
      <point x="360" y="239"/>
      <point x="360" y="154" type="curve" smooth="yes"/>
      <point x="360" y="81"/>
      <point x="334" y="26"/>
    </contour>
    <contour>
      <point x="-7" y="596" type="line"/>
      <point x="496" y="596" type="line"/>
      <point x="496" y="622" type="line"/>
      <point x="-7" y="622" type="line"/>
    </contour>
  </outline>
</glyph>
<glyph name="ekonkarguru" format="2">
  <advance width="1061"/>
  <unicode hex="0A74"/>
  <outline>
    <contour>
      <point x="599" y="0" type="curve" smooth="yes"/>
      <point x="691" y="0"/>
      <point x="733" y="63"/>
      <point x="733" y="155" type="curve" smooth="yes"/>
      <point x="733" y="259"/>
      <point x="669" y="340"/>
      <point x="537" y="348" type="curve"/>
      <point x="536" y="337" type="line"/>
      <point x="675" y="340"/>
      <point x="785" y="399"/>
      <point x="785" y="605" type="curve"/>
      <point x="785" y="616" type="line"/>
      <point x="759" y="613" type="line"/>
      <point x="759" y="592" type="line" smooth="yes"/>
      <point x="759" y="496"/>
      <point x="727" y="431"/>
      <point x="671" y="396" type="curve" smooth="yes"/>
      <point x="634" y="373"/>
      <point x="596" y="359"/>
      <point x="506" y="359" type="curve" smooth="yes"/>
      <point x="429" y="359" type="line"/>
      <point x="436" y="333" type="line"/>
      <point x="484" y="333" type="line" smooth="yes"/>
      <point x="544" y="333"/>
      <point x="575" y="326"/>
      <point x="608" y="311" type="curve" smooth="yes"/>
      <point x="662" y="286"/>
      <point x="706" y="239"/>
      <point x="706" y="154" type="curve" smooth="yes"/>
      <point x="706" y="81"/>
      <point x="680" y="26"/>
      <point x="598" y="26" type="curve" smooth="yes"/>
      <point x="505" y="26"/>
      <point x="436" y="124"/>
      <point x="436" y="404" type="curve" smooth="yes"/>
      <point x="436" y="479"/>
      <point x="443" y="546"/>
      <point x="453" y="604" type="curve"/>
      <point x="455" y="616" type="line"/>
      <point x="480" y="743"/>
      <point x="535" y="826"/>
      <point x="624" y="826" type="curve" smooth="yes"/>
      <point x="693" y="826"/>
      <point x="737" y="779"/>
      <point x="754" y="687" type="curve"/>
      <point x="776" y="689" type="line"/>
      <point x="799" y="786"/>
      <point x="842" y="851"/>
      <point x="922" y="851" type="curve" smooth="yes"/>
      <point x="1003" y="851"/>
      <point x="1041" y="787"/>
      <point x="1057" y="688" type="curve"/>
      <point x="1083" y="692" type="line"/>
      <point x="1067" y="810"/>
      <point x="1011" y="877"/>
      <point x="923" y="877" type="curve" smooth="yes"/>
      <point x="835" y="877"/>
      <point x="782" y="814"/>
      <point x="760" y="712" type="curve"/>
      <point x="768" y="715" type="line"/>
      <point x="751" y="805"/>
      <point x="700" y="852"/>
      <point x="625" y="852" type="curve" smooth="yes"/>
      <point x="526" y="852"/>
      <point x="460" y="772"/>
      <point x="429" y="620" type="curve"/>
      <point x="427" y="606" type="line"/>
      <point x="417" y="549"/>
      <point x="410" y="481"/>
      <point x="410" y="404" type="curve" smooth="yes"/>
      <point x="410" y="111"/>
      <point x="485" y="0"/>
    </contour>
    <contour>
      <point x="376" y="596" type="line"/>
      <point x="833" y="596" type="line"/>
      <point x="833" y="622" type="line"/>
      <point x="376" y="622" type="line"/>
    </contour>
    <component base="oneguru" xOffset="-13"/>
  </outline>
</glyph>
<glyph name="yakashguru" format="2">
  <unicode hex="0A75"/>
  <outline>
    <contour>
      <point x="-86" y="-283" type="curve" smooth="yes"/>
      <point x="-42" y="-283"/>
      <point x="-13" y="-259"/>
      <point x="6" y="-199" type="curve"/>
      <point x="-19" y="-191" type="line"/>
      <point x="-34" y="-241"/>
      <point x="-53" y="-258"/>
      <point x="-86" y="-258" type="curve" smooth="yes"/>
      <point x="-119" y="-258"/>
      <point x="-142" y="-238"/>
      <point x="-142" y="-151" type="curve" smooth="yes"/>
      <point x="-142" y="-118"/>
      <point x="-139" y="-80"/>
      <point x="-134" y="-44" type="curve"/>
      <point x="-160" y="-42" type="line"/>
      <point x="-165" y="-76"/>
      <point x="-168" y="-116"/>
      <point x="-168" y="-153" type="curve" smooth="yes"/>
      <point x="-168" y="-249"/>
      <point x="-137" y="-283"/>
    </contour>
  </outline>
</glyph>
<glyph name="uni0A76" format="2">
  <advance width="215"/>
  <unicode hex="0A76"/>
  <outline>
    <contour>
      <point x="78" y="348" type="curve" smooth="yes"/>
      <point x="78" y="322"/>
      <point x="92" y="310"/>
      <point x="107" y="310" type="curve" smooth="yes"/>
      <point x="125" y="310"/>
      <point x="137" y="321"/>
      <point x="137" y="348" type="curve" smooth="yes"/>
      <point x="137" y="372"/>
      <point x="126" y="386"/>
      <point x="108" y="386" type="curve" smooth="yes"/>
      <point x="91" y="386"/>
      <point x="78" y="373"/>
    </contour>
  </outline>
</glyph>
<glyph name="emdash.guru" format="2">
  <advance width="1000"/>
  <unicode hex="2014"/>
  <outline>
    <contour>
      <point x="35" y="310" type="line"/>
      <point x="35" y="284" type="line"/>
      <point x="965" y="284" type="line"/>
      <point x="965" y="310" type="line"/>
    </contour>
  </outline>
</glyph>
<glyph name="quoteleft.guru" format="2">
  <advance width="230"/>
  <unicode hex="2018"/>
  <outline>
    <contour>
      <point x="79" y="484" type="line"/>
      <point x="107" y="484" type="line"/>
      <point x="118" y="560"/>
      <point x="134" y="632"/>
      <point x="163" y="729" type="curve"/>
      <point x="141" y="729" type="line"/>
      <point x="113" y="660"/>
      <point x="91" y="570"/>
      <point x="76" y="496" type="curve"/>
    </contour>
  </outline>
</glyph>
<glyph name="quoteright.guru" format="2">
  <advance width="230"/>
  <unicode hex="2019"/>
  <outline>
    <contour>
      <point x="156" y="729" type="line"/>
      <point x="128" y="729" type="line"/>
      <point x="117" y="653"/>
      <point x="101" y="581"/>
      <point x="72" y="484" type="curve"/>
      <point x="94" y="484" type="line"/>
      <point x="122" y="553"/>
      <point x="144" y="643"/>
      <point x="159" y="717" type="curve"/>
    </contour>
  </outline>
</glyph>
<glyph name="quotedblright.guru" format="2">
  <advance width="348"/>
  <unicode hex="201D"/>
  <outline>
    <contour>
      <point x="274" y="729" type="line"/>
      <point x="246" y="729" type="line"/>
      <point x="235" y="653"/>
      <point x="219" y="581"/>
      <point x="190" y="484" type="curve"/>
      <point x="212" y="484" type="line"/>
      <point x="240" y="553"/>
      <point x="262" y="643"/>
      <point x="277" y="717" type="curve"/>
    </contour>
    <contour>
      <point x="156" y="729" type="line"/>
      <point x="128" y="729" type="line"/>
      <point x="117" y="653"/>
      <point x="101" y="581"/>
      <point x="72" y="484" type="curve"/>
      <point x="94" y="484" type="line"/>
      <point x="122" y="553"/>
      <point x="144" y="643"/>
      <point x="159" y="717" type="curve"/>
    </contour>
  </outline>
</glyph>
<glyph name="ellipsis.guru" format="2">
  <advance width="550"/>
  <unicode hex="2026"/>
  <outline>
    <contour>
      <point x="274" y="-8" type="curve" smooth="yes"/>
      <point x="298" y="-8"/>
      <point x="301" y="6"/>
      <point x="301" y="23" type="curve" smooth="yes"/>
      <point x="301" y="39"/>
      <point x="298" y="54"/>
      <point x="274" y="54" type="curve" smooth="yes"/>
      <point x="254" y="54"/>
      <point x="249" y="39"/>
      <point x="249" y="23" type="curve" smooth="yes"/>
      <point x="249" y="6"/>
      <point x="254" y="-8"/>
    </contour>
    <contour>
      <point x="106" y="-8" type="curve" smooth="yes"/>
      <point x="130" y="-8"/>
      <point x="133" y="6"/>
      <point x="133" y="23" type="curve" smooth="yes"/>
      <point x="133" y="39"/>
      <point x="130" y="54"/>
      <point x="106" y="54" type="curve" smooth="yes"/>
      <point x="86" y="54"/>
      <point x="81" y="39"/>
      <point x="81" y="23" type="curve" smooth="yes"/>
      <point x="81" y="6"/>
      <point x="86" y="-8"/>
    </contour>
    <contour>
      <point x="442" y="-8" type="curve" smooth="yes"/>
      <point x="466" y="-8"/>
      <point x="469" y="6"/>
      <point x="469" y="23" type="curve" smooth="yes"/>
      <point x="469" y="39"/>
      <point x="466" y="54"/>
      <point x="442" y="54" type="curve" smooth="yes"/>
      <point x="422" y="54"/>
      <point x="417" y="39"/>
      <point x="417" y="23" type="curve" smooth="yes"/>
      <point x="417" y="6"/>
      <point x="422" y="-8"/>
    </contour>
  </outline>
</glyph>
<glyph name="minus.guru" format="2">
  <advance width="411"/>
  <unicode hex="2212"/>
  <outline>
    <contour>
      <point x="38" y="335" type="line"/>
      <point x="38" y="309" type="line"/>
      <point x="373" y="309" type="line"/>
      <point x="373" y="335" type="line"/>
    </contour>
  </outline>
</glyph>
<glyph name="uniA839" format="2">
  <advance width="242"/>
  <unicode hex="A839"/>
  <outline>
    <contour>
      <point x="-113" y="-195" type="curve"/>
      <point x="-114" y="-221" type="line"/>
      <point x="-106" y="-222"/>
      <point x="-88" y="-224"/>
      <point x="-74" y="-224" type="curve" smooth="yes"/>
      <point x="136" y="-224"/>
      <point x="166" y="-76"/>
      <point x="166" y="24" type="curve" smooth="yes"/>
      <point x="166" y="186"/>
      <point x="86" y="313"/>
      <point x="86" y="437" type="curve" smooth="yes"/>
      <point x="86" y="534"/>
      <point x="143" y="578"/>
      <point x="229" y="608" type="curve"/>
      <point x="222" y="632" type="line"/>
      <point x="119" y="596"/>
      <point x="59" y="540"/>
      <point x="59" y="436" type="curve" smooth="yes"/>
      <point x="59" y="304"/>
      <point x="139" y="189"/>
      <point x="139" y="21" type="curve" smooth="yes"/>
      <point x="139" y="-95"/>
      <point x="95" y="-198"/>
      <point x="-74" y="-198" type="curve" smooth="yes"/>
      <point x="-88" y="-198"/>
      <point x="-103" y="-197"/>
    </contour>
  </outline>
</glyph>
<glyph name="addakbaraltguru" format="2">
  <advance width="185"/>
  <outline>
    <contour>
      <point x="129" y="696" type="curve" smooth="yes"/>
      <point x="197" y="696"/>
      <point x="231" y="749"/>
      <point x="231" y="864" type="curve"/>
      <point x="205" y="866" type="line"/>
      <point x="204" y="765"/>
      <point x="183" y="721"/>
      <point x="129" y="721" type="curve" smooth="yes"/>
      <point x="75" y="721"/>
      <point x="54" y="765"/>
      <point x="53" y="866" type="curve"/>
      <point x="27" y="864" type="line"/>
      <point x="27" y="748"/>
      <point x="61" y="696"/>
    </contour>
    <contour>
      <point x="-7" y="596" type="line"/>
      <point x="193" y="596" type="line"/>
      <point x="193" y="622" type="line"/>
      <point x="-7" y="622" type="line"/>
    </contour>
  </outline>
</glyph>
<glyph name="aimatraaddakguru" format="2">
  <outline>
    <contour>
      <point x="-93" y="613" type="curve"/>
      <point x="-73" y="615" type="line"/>
      <point x="-106" y="796"/>
      <point x="-155" y="890"/>
      <point x="-272" y="890" type="curve" smooth="yes"/>
      <point x="-276" y="890"/>
      <point x="-281" y="890"/>
      <point x="-285" y="890" type="curve"/>
      <point x="-284" y="864" type="line"/>
      <point x="-281" y="864"/>
      <point x="-276" y="864"/>
      <point x="-272" y="864" type="curve" smooth="yes"/>
      <point x="-167" y="864"/>
      <point x="-132" y="776"/>
    </contour>
    <contour>
      <point x="-102" y="600" type="curve"/>
      <point x="-87" y="606" type="line"/>
      <point x="-137" y="729"/>
      <point x="-201" y="755"/>
      <point x="-294" y="755" type="curve" smooth="yes"/>
      <point x="-297" y="755"/>
      <point x="-299" y="755"/>
      <point x="-303" y="755" type="curve"/>
      <point x="-302" y="729" type="line"/>
      <point x="-297" y="729"/>
      <point x="-291" y="729"/>
      <point x="-287" y="729" type="curve" smooth="yes"/>
      <point x="-208" y="729"/>
      <point x="-153" y="701"/>
    </contour>
    <contour>
      <point x="-23" y="696" type="curve" smooth="yes"/>
      <point x="41" y="696"/>
      <point x="75" y="749"/>
      <point x="75" y="864" type="curve"/>
      <point x="49" y="866" type="line"/>
      <point x="48" y="765"/>
      <point x="27" y="721"/>
      <point x="-23" y="721" type="curve" smooth="yes"/>
      <point x="-73" y="721"/>
      <point x="-94" y="765"/>
      <point x="-95" y="866" type="curve"/>
      <point x="-121" y="864" type="line"/>
      <point x="-121" y="748"/>
      <point x="-87" y="696"/>
    </contour>
  </outline>
</glyph>
<glyph name="aimatrabindiguru" format="2">
  <outline>
    <contour>
      <point x="-93" y="613" type="curve"/>
      <point x="-73" y="615" type="line"/>
      <point x="-99" y="790"/>
      <point x="-145" y="890"/>
      <point x="-262" y="890" type="curve" smooth="yes"/>
      <point x="-266" y="890"/>
      <point x="-271" y="890"/>
      <point x="-275" y="890" type="curve"/>
      <point x="-274" y="864" type="line"/>
      <point x="-271" y="864"/>
      <point x="-266" y="864"/>
      <point x="-262" y="864" type="curve" smooth="yes"/>
      <point x="-157" y="864"/>
      <point x="-125" y="771"/>
    </contour>
    <contour>
      <point x="-102" y="600" type="curve"/>
      <point x="-87" y="606" type="line"/>
      <point x="-137" y="729"/>
      <point x="-193" y="755"/>
      <point x="-284" y="755" type="curve" smooth="yes"/>
      <point x="-287" y="755"/>
      <point x="-289" y="755"/>
      <point x="-293" y="755" type="curve"/>
      <point x="-292" y="729" type="line"/>
      <point x="-287" y="729"/>
      <point x="-281" y="729"/>
      <point x="-277" y="729" type="curve" smooth="yes"/>
      <point x="-200" y="729"/>
      <point x="-153" y="701"/>
    </contour>
    <contour>
      <point x="-67" y="814" type="curve" smooth="yes"/>
      <point x="-52" y="814"/>
      <point x="-40" y="825"/>
      <point x="-40" y="852" type="curve" smooth="yes"/>
      <point x="-40" y="876"/>
      <point x="-51" y="890"/>
      <point x="-66" y="890" type="curve" smooth="yes"/>
      <point x="-80" y="890"/>
      <point x="-93" y="877"/>
      <point x="-93" y="852" type="curve" smooth="yes"/>
      <point x="-93" y="826"/>
      <point x="-79" y="814"/>
    </contour>
  </outline>
</glyph>
<glyph name="aumatraaddakguru" format="2">
  <outline>
    <contour>
      <point x="-254" y="682" type="curve"/>
      <point x="-229" y="687" type="line"/>
      <point x="-237" y="710"/>
      <point x="-242" y="736"/>
      <point x="-242" y="762" type="curve" smooth="yes"/>
      <point x="-242" y="812"/>
      <point x="-219" y="843"/>
      <point x="-181" y="843" type="curve" smooth="yes"/>
      <point x="-143" y="843"/>
      <point x="-120" y="812"/>
      <point x="-120" y="761" type="curve" smooth="yes"/>
      <point x="-120" y="736"/>
      <point x="-125" y="710"/>
      <point x="-133" y="687" type="curve"/>
      <point x="-108" y="682" type="line"/>
      <point x="-98" y="708"/>
      <point x="-95" y="737"/>
      <point x="-95" y="761" type="curve" smooth="yes"/>
      <point x="-95" y="827"/>
      <point x="-131" y="868"/>
      <point x="-181" y="868" type="curve" smooth="yes"/>
      <point x="-230" y="868"/>
      <point x="-268" y="827"/>
      <point x="-268" y="761" type="curve" smooth="yes"/>
      <point x="-268" y="737"/>
      <point x="-264" y="708"/>
    </contour>
    <contour>
      <point x="-296" y="784" type="curve" smooth="yes"/>
      <point x="-271" y="784"/>
      <point x="-253" y="797"/>
      <point x="-237" y="812" type="curve"/>
      <point x="-248" y="830" type="line"/>
      <point x="-264" y="813"/>
      <point x="-279" y="809"/>
      <point x="-296" y="809" type="curve" smooth="yes"/>
      <point x="-320" y="809"/>
      <point x="-340" y="823"/>
      <point x="-357" y="890" type="curve"/>
      <point x="-382" y="882" type="line"/>
      <point x="-364" y="809"/>
      <point x="-336" y="784"/>
    </contour>
    <contour>
      <point x="-12" y="720" type="curve" smooth="yes"/>
      <point x="52" y="720"/>
      <point x="86" y="773"/>
      <point x="86" y="888" type="curve"/>
      <point x="60" y="890" type="line"/>
      <point x="59" y="789"/>
      <point x="38" y="745"/>
      <point x="-12" y="745" type="curve" smooth="yes"/>
      <point x="-62" y="745"/>
      <point x="-83" y="789"/>
      <point x="-84" y="890" type="curve"/>
      <point x="-110" y="888" type="line"/>
      <point x="-110" y="772"/>
      <point x="-76" y="720"/>
    </contour>
  </outline>
</glyph>
<glyph name="aumatrabindiguru" format="2">
  <outline>
    <contour>
      <point x="-206" y="682" type="curve"/>
      <point x="-181" y="687" type="line"/>
      <point x="-189" y="710"/>
      <point x="-194" y="736"/>
      <point x="-194" y="762" type="curve" smooth="yes"/>
      <point x="-194" y="812"/>
      <point x="-171" y="843"/>
      <point x="-130" y="843" type="curve" smooth="yes"/>
      <point x="-89" y="843"/>
      <point x="-66" y="812"/>
      <point x="-66" y="761" type="curve" smooth="yes"/>
      <point x="-66" y="736"/>
      <point x="-71" y="710"/>
      <point x="-79" y="687" type="curve"/>
      <point x="-54" y="682" type="line"/>
      <point x="-44" y="708"/>
      <point x="-40" y="737"/>
      <point x="-40" y="761" type="curve" smooth="yes"/>
      <point x="-40" y="827"/>
      <point x="-77" y="868"/>
      <point x="-130" y="868" type="curve" smooth="yes"/>
      <point x="-182" y="868"/>
      <point x="-220" y="827"/>
      <point x="-220" y="761" type="curve" smooth="yes"/>
      <point x="-220" y="737"/>
      <point x="-216" y="708"/>
    </contour>
    <contour>
      <point x="-252" y="784" type="curve" smooth="yes"/>
      <point x="-223" y="784"/>
      <point x="-205" y="797"/>
      <point x="-189" y="812" type="curve"/>
      <point x="-200" y="830" type="line"/>
      <point x="-216" y="813"/>
      <point x="-231" y="809"/>
      <point x="-251" y="809" type="curve" smooth="yes"/>
      <point x="-279" y="809"/>
      <point x="-300" y="823"/>
      <point x="-317" y="890" type="curve"/>
      <point x="-342" y="882" type="line"/>
      <point x="-324" y="809"/>
      <point x="-293" y="784"/>
    </contour>
    <contour>
      <point x="12" y="814" type="curve" smooth="yes"/>
      <point x="27" y="814"/>
      <point x="39" y="825"/>
      <point x="39" y="852" type="curve" smooth="yes"/>
      <point x="39" y="876"/>
      <point x="28" y="890"/>
      <point x="13" y="890" type="curve" smooth="yes"/>
      <point x="-1" y="890"/>
      <point x="-14" y="877"/>
      <point x="-14" y="852" type="curve" smooth="yes"/>
      <point x="-14" y="826"/>
      <point x="0" y="814"/>
    </contour>
  </outline>
</glyph>
<glyph name="eematraaddakaltguru" format="2">
  <advance width="20"/>
  <outline>
    <contour>
      <point x="27" y="596" type="line"/>
      <point x="27" y="622" type="line"/>
      <point x="-7" y="622" type="line"/>
      <point x="-7" y="596" type="line"/>
    </contour>
    <component base="eematraaddakguru"/>
  </outline>
</glyph>
<glyph name="eematraaddakguru" format="2">
  <outline>
    <contour>
      <point x="-102" y="615" type="curve"/>
      <point x="-76" y="615" type="line"/>
      <point x="-115" y="796"/>
      <point x="-153" y="890"/>
      <point x="-269" y="890" type="curve" smooth="yes"/>
      <point x="-277" y="890"/>
      <point x="-284" y="890"/>
      <point x="-288" y="890" type="curve"/>
      <point x="-286" y="864" type="line"/>
      <point x="-282" y="864"/>
      <point x="-274" y="864"/>
      <point x="-268" y="864" type="curve" smooth="yes"/>
      <point x="-166" y="864"/>
      <point x="-138" y="774"/>
    </contour>
    <contour>
      <point x="-23" y="696" type="curve" smooth="yes"/>
      <point x="41" y="696"/>
      <point x="75" y="749"/>
      <point x="75" y="864" type="curve"/>
      <point x="49" y="866" type="line"/>
      <point x="48" y="765"/>
      <point x="27" y="721"/>
      <point x="-23" y="721" type="curve" smooth="yes"/>
      <point x="-73" y="721"/>
      <point x="-94" y="765"/>
      <point x="-95" y="866" type="curve"/>
      <point x="-121" y="864" type="line"/>
      <point x="-121" y="748"/>
      <point x="-87" y="696"/>
    </contour>
  </outline>
</glyph>
<glyph name="eematrabindiguru" format="2">
  <outline>
    <contour>
      <point x="-102" y="615" type="curve"/>
      <point x="-76" y="615" type="line"/>
      <point x="-108" y="792"/>
      <point x="-153" y="890"/>
      <point x="-269" y="890" type="curve" smooth="yes"/>
      <point x="-277" y="890"/>
      <point x="-284" y="890"/>
      <point x="-288" y="890" type="curve"/>
      <point x="-286" y="864" type="line"/>
      <point x="-282" y="864"/>
      <point x="-274" y="864"/>
      <point x="-268" y="864" type="curve" smooth="yes"/>
      <point x="-166" y="864"/>
      <point x="-132" y="771"/>
    </contour>
    <contour>
      <point x="-74" y="814" type="curve" smooth="yes"/>
      <point x="-59" y="814"/>
      <point x="-47" y="825"/>
      <point x="-47" y="852" type="curve" smooth="yes"/>
      <point x="-47" y="876"/>
      <point x="-58" y="890"/>
      <point x="-73" y="890" type="curve" smooth="yes"/>
      <point x="-87" y="890"/>
      <point x="-100" y="877"/>
      <point x="-100" y="852" type="curve" smooth="yes"/>
      <point x="-100" y="826"/>
      <point x="-86" y="814"/>
    </contour>
  </outline>
</glyph>
<glyph name="gaUIguru" format="2">
  <advance width="517"/>
  <outline>
    <contour>
      <point x="209" y="41" type="curve" smooth="yes"/>
      <point x="275" y="41"/>
      <point x="294" y="92"/>
      <point x="294" y="147" type="curve" smooth="yes"/>
      <point x="294" y="596" type="line"/>
      <point x="385" y="596" type="line"/>
      <point x="385" y="622" type="line"/>
      <point x="-7" y="622" type="line"/>
      <point x="-7" y="596" type="line"/>
      <point x="268" y="596" type="line"/>
      <point x="268" y="439" type="line"/>
      <point x="197" y="439" type="line" smooth="yes"/>
      <point x="143" y="439"/>
      <point x="109" y="431"/>
      <point x="84" y="413" type="curve" smooth="yes"/>
      <point x="54" y="391"/>
      <point x="39" y="355"/>
      <point x="39" y="301" type="curve" smooth="yes"/>
      <point x="39" y="193"/>
      <point x="103" y="41"/>
    </contour>
    <contour>
      <point x="209" y="67" type="curve" smooth="yes"/>
      <point x="124" y="67"/>
      <point x="66" y="205"/>
      <point x="66" y="301" type="curve" smooth="yes"/>
      <point x="66" y="346"/>
      <point x="77" y="375"/>
      <point x="100" y="392" type="curve" smooth="yes"/>
      <point x="120" y="407"/>
      <point x="147" y="413"/>
      <point x="201" y="413" type="curve" smooth="yes"/>
      <point x="268" y="413" type="line"/>
      <point x="268" y="157" type="line" smooth="yes"/>
      <point x="268" y="120"/>
      <point x="263" y="97"/>
      <point x="250" y="83" type="curve" smooth="yes"/>
      <point x="240" y="72"/>
      <point x="227" y="67"/>
    </contour>
    <contour>
      <point x="414" y="56" type="line"/>
      <point x="440" y="56" type="line"/>
      <point x="440" y="596" type="line"/>
      <point x="524" y="596" type="line"/>
      <point x="524" y="622" type="line"/>
      <point x="331" y="622" type="line"/>
      <point x="331" y="596" type="line"/>
      <point x="414" y="596" type="line"/>
    </contour>
  </outline>
</glyph>
<glyph name="hasubscript1UIguru" format="2">
  <outline>
    <contour>
      <point x="-155" y="-271" type="curve" smooth="yes"/>
      <point x="-128" y="-271"/>
      <point x="-110" y="-263"/>
      <point x="-95" y="-246" type="curve" smooth="yes"/>
      <point x="-79" y="-228"/>
      <point x="-77" y="-203"/>
      <point x="-77" y="-172" type="curve" smooth="yes"/>
      <point x="-77" y="30" type="line"/>
      <point x="-103" y="21" type="line"/>
      <point x="-103" y="-172" type="line" smooth="yes"/>
      <point x="-103" y="-224"/>
      <point x="-116" y="-245"/>
      <point x="-154" y="-245" type="curve" smooth="yes"/>
      <point x="-210" y="-245"/>
      <point x="-254" y="-192"/>
      <point x="-254" y="-132" type="curve" smooth="yes"/>
      <point x="-254" y="-88"/>
      <point x="-227" y="-71"/>
      <point x="-173" y="-71" type="curve"/>
      <point x="-171" y="-45" type="line"/>
      <point x="-174" y="-45" type="line" smooth="yes"/>
      <point x="-208" y="-45"/>
      <point x="-238" y="-52"/>
      <point x="-257" y="-70" type="curve" smooth="yes"/>
      <point x="-272" y="-84"/>
      <point x="-280" y="-106"/>
      <point x="-280" y="-132" type="curve" smooth="yes"/>
      <point x="-280" y="-206"/>
      <point x="-225" y="-271"/>
    </contour>
  </outline>
</glyph>
<glyph name="hasubscript1guru" format="2">
  <outline>
    <contour>
      <point x="-155" y="-307" type="curve" smooth="yes"/>
      <point x="-128" y="-307"/>
      <point x="-110" y="-299"/>
      <point x="-95" y="-282" type="curve" smooth="yes"/>
      <point x="-80" y="-263"/>
      <point x="-77" y="-239"/>
      <point x="-77" y="-208" type="curve" smooth="yes"/>
      <point x="-77" y="30" type="line"/>
      <point x="-103" y="21" type="line"/>
      <point x="-103" y="-208" type="line" smooth="yes"/>
      <point x="-103" y="-260"/>
      <point x="-116" y="-281"/>
      <point x="-154" y="-281" type="curve" smooth="yes"/>
      <point x="-210" y="-281"/>
      <point x="-254" y="-228"/>
      <point x="-254" y="-168" type="curve" smooth="yes"/>
      <point x="-254" y="-124"/>
      <point x="-227" y="-107"/>
      <point x="-173" y="-107" type="curve"/>
      <point x="-171" y="-81" type="line"/>
      <point x="-174" y="-81" type="line" smooth="yes"/>
      <point x="-208" y="-81"/>
      <point x="-238" y="-88"/>
      <point x="-257" y="-106" type="curve" smooth="yes"/>
      <point x="-272" y="-120"/>
      <point x="-280" y="-142"/>
      <point x="-280" y="-168" type="curve" smooth="yes"/>
      <point x="-280" y="-242"/>
      <point x="-225" y="-307"/>
    </contour>
  </outline>
</glyph>
<glyph name="hasubscripthalantguru" format="2">
  <outline>
    <contour>
      <point x="-155" y="-283" type="curve" smooth="yes"/>
      <point x="-128" y="-283"/>
      <point x="-110" y="-275"/>
      <point x="-95" y="-258" type="curve" smooth="yes"/>
      <point x="-79" y="-240"/>
      <point x="-77" y="-215"/>
      <point x="-77" y="-184" type="curve" smooth="yes"/>
      <point x="-77" y="0" type="line"/>
      <point x="-103" y="0" type="line"/>
      <point x="-103" y="-184" type="line" smooth="yes"/>
      <point x="-103" y="-236"/>
      <point x="-116" y="-257"/>
      <point x="-154" y="-257" type="curve" smooth="yes"/>
      <point x="-210" y="-257"/>
      <point x="-254" y="-204"/>
      <point x="-254" y="-144" type="curve" smooth="yes"/>
      <point x="-254" y="-100"/>
      <point x="-227" y="-83"/>
      <point x="-173" y="-83" type="curve"/>
      <point x="-171" y="-57" type="line"/>
      <point x="-174" y="-57" type="line" smooth="yes"/>
      <point x="-208" y="-57"/>
      <point x="-238" y="-64"/>
      <point x="-257" y="-82" type="curve" smooth="yes"/>
      <point x="-272" y="-96"/>
      <point x="-280" y="-118"/>
      <point x="-280" y="-144" type="curve" smooth="yes"/>
      <point x="-280" y="-218"/>
      <point x="-225" y="-283"/>
    </contour>
    <contour>
      <point x="97" y="-398" type="curve"/>
      <point x="122" y="-391" type="line"/>
      <point x="76" y="-262"/>
      <point x="16" y="-225"/>
      <point x="-55" y="-225" type="curve" smooth="yes"/>
      <point x="-60" y="-225"/>
      <point x="-67" y="-225"/>
      <point x="-73" y="-226" type="curve"/>
      <point x="-71" y="-252" type="line"/>
      <point x="-64" y="-251"/>
      <point x="-60" y="-251"/>
      <point x="-55" y="-251" type="curve" smooth="yes"/>
      <point x="-4" y="-251"/>
      <point x="53" y="-272"/>
    </contour>
  </outline>
</glyph>
<glyph name="hasubscriptuUIguru" format="2">
  <outline>
    <contour>
      <point x="-155" y="-195" type="curve" smooth="yes"/>
      <point x="-128" y="-195"/>
      <point x="-110" y="-187"/>
      <point x="-95" y="-170" type="curve" smooth="yes"/>
      <point x="-79" y="-152"/>
      <point x="-77" y="-127"/>
      <point x="-77" y="-96" type="curve" smooth="yes"/>
      <point x="-77" y="60" type="line"/>
      <point x="-103" y="60" type="line"/>
      <point x="-103" y="-96" type="line" smooth="yes"/>
      <point x="-103" y="-148"/>
      <point x="-116" y="-169"/>
      <point x="-154" y="-169" type="curve" smooth="yes"/>
      <point x="-210" y="-169"/>
      <point x="-254" y="-116"/>
      <point x="-254" y="-56" type="curve" smooth="yes"/>
      <point x="-254" y="-12"/>
      <point x="-227" y="5"/>
      <point x="-173" y="5" type="curve"/>
      <point x="-171" y="31" type="line"/>
      <point x="-174" y="31" type="line" smooth="yes"/>
      <point x="-208" y="31"/>
      <point x="-238" y="24"/>
      <point x="-257" y="6" type="curve" smooth="yes"/>
      <point x="-272" y="-8"/>
      <point x="-280" y="-30"/>
      <point x="-280" y="-56" type="curve" smooth="yes"/>
      <point x="-280" y="-130"/>
      <point x="-225" y="-195"/>
    </contour>
    <contour>
      <point x="-241" y="-259" type="curve" smooth="yes"/>
      <point x="-184" y="-259"/>
      <point x="-142" y="-248"/>
      <point x="-103" y="-224" type="curve"/>
      <point x="-107" y="-198" type="line"/>
      <point x="-147" y="-223"/>
      <point x="-188" y="-233"/>
      <point x="-241" y="-233" type="curve" smooth="yes"/>
      <point x="-294" y="-233"/>
      <point x="-335" y="-223"/>
      <point x="-374" y="-198" type="curve"/>
      <point x="-378" y="-224" type="line"/>
      <point x="-342" y="-246"/>
      <point x="-299" y="-259"/>
    </contour>
  </outline>
</glyph>
<glyph name="hasubscriptuguru" format="2">
  <outline>
    <contour>
      <point x="-155" y="-279" type="curve" smooth="yes"/>
      <point x="-128" y="-279"/>
      <point x="-110" y="-271"/>
      <point x="-95" y="-254" type="curve" smooth="yes"/>
      <point x="-79" y="-236"/>
      <point x="-77" y="-211"/>
      <point x="-77" y="-180" type="curve" smooth="yes"/>
      <point x="-77" y="0" type="line"/>
      <point x="-103" y="0" type="line"/>
      <point x="-103" y="-180" type="line" smooth="yes"/>
      <point x="-103" y="-232"/>
      <point x="-116" y="-253"/>
      <point x="-154" y="-253" type="curve" smooth="yes"/>
      <point x="-210" y="-253"/>
      <point x="-254" y="-200"/>
      <point x="-254" y="-140" type="curve" smooth="yes"/>
      <point x="-254" y="-96"/>
      <point x="-227" y="-79"/>
      <point x="-173" y="-79" type="curve"/>
      <point x="-171" y="-53" type="line"/>
      <point x="-174" y="-53" type="line" smooth="yes"/>
      <point x="-208" y="-53"/>
      <point x="-238" y="-60"/>
      <point x="-257" y="-78" type="curve" smooth="yes"/>
      <point x="-272" y="-92"/>
      <point x="-280" y="-114"/>
      <point x="-280" y="-140" type="curve" smooth="yes"/>
      <point x="-280" y="-214"/>
      <point x="-225" y="-279"/>
    </contour>
    <contour>
      <point x="-220" y="-368" type="curve" smooth="yes"/>
      <point x="-163" y="-368"/>
      <point x="-121" y="-357"/>
      <point x="-82" y="-333" type="curve"/>
      <point x="-86" y="-307" type="line"/>
      <point x="-126" y="-332"/>
      <point x="-167" y="-342"/>
      <point x="-220" y="-342" type="curve" smooth="yes"/>
      <point x="-273" y="-342"/>
      <point x="-314" y="-332"/>
      <point x="-353" y="-307" type="curve"/>
      <point x="-357" y="-333" type="line"/>
      <point x="-321" y="-355"/>
      <point x="-278" y="-368"/>
    </contour>
  </outline>
</glyph>
<glyph name="hasubscriptuuUIguru" format="2">
  <outline>
    <contour>
      <point x="-155" y="-195" type="curve" smooth="yes"/>
      <point x="-128" y="-195"/>
      <point x="-110" y="-187"/>
      <point x="-95" y="-170" type="curve" smooth="yes"/>
      <point x="-79" y="-152"/>
      <point x="-77" y="-127"/>
      <point x="-77" y="-96" type="curve" smooth="yes"/>
      <point x="-77" y="60" type="line"/>
      <point x="-103" y="60" type="line"/>
      <point x="-103" y="-96" type="line" smooth="yes"/>
      <point x="-103" y="-148"/>
      <point x="-116" y="-169"/>
      <point x="-154" y="-169" type="curve" smooth="yes"/>
      <point x="-210" y="-169"/>
      <point x="-254" y="-116"/>
      <point x="-254" y="-56" type="curve" smooth="yes"/>
      <point x="-254" y="-12"/>
      <point x="-227" y="5"/>
      <point x="-173" y="5" type="curve"/>
      <point x="-171" y="31" type="line"/>
      <point x="-174" y="31" type="line" smooth="yes"/>
      <point x="-208" y="31"/>
      <point x="-238" y="24"/>
      <point x="-257" y="6" type="curve" smooth="yes"/>
      <point x="-272" y="-8"/>
      <point x="-280" y="-30"/>
      <point x="-280" y="-56" type="curve" smooth="yes"/>
      <point x="-280" y="-130"/>
      <point x="-225" y="-195"/>
    </contour>
    <contour>
      <point x="-290" y="-144" type="curve" smooth="yes"/>
      <point x="-271" y="-144"/>
      <point x="-254" y="-143"/>
      <point x="-239" y="-140" type="curve"/>
      <point x="-250" y="-116" type="line"/>
      <point x="-262" y="-117"/>
      <point x="-276" y="-118"/>
      <point x="-290" y="-118" type="curve" smooth="yes"/>
      <point x="-346" y="-118"/>
      <point x="-380" y="-108"/>
      <point x="-419" y="-83" type="curve"/>
      <point x="-423" y="-109" type="line"/>
      <point x="-387" y="-131"/>
      <point x="-351" y="-144"/>
    </contour>
    <contour>
      <point x="-290" y="-260" type="curve" smooth="yes"/>
      <point x="-235" y="-260"/>
      <point x="-195" y="-249"/>
      <point x="-156" y="-225" type="curve"/>
      <point x="-160" y="-199" type="line"/>
      <point x="-200" y="-224"/>
      <point x="-239" y="-234"/>
      <point x="-290" y="-234" type="curve" smooth="yes"/>
      <point x="-346" y="-234"/>
      <point x="-380" y="-224"/>
      <point x="-419" y="-199" type="curve"/>
      <point x="-423" y="-225" type="line"/>
      <point x="-387" y="-247"/>
      <point x="-351" y="-260"/>
    </contour>
  </outline>
</glyph>
<glyph name="hasubscriptuuguru" format="2">
  <outline>
    <contour>
      <point x="-155" y="-262" type="curve" smooth="yes"/>
      <point x="-128" y="-262"/>
      <point x="-110" y="-254"/>
      <point x="-95" y="-237" type="curve" smooth="yes"/>
      <point x="-79" y="-219"/>
      <point x="-77" y="-194"/>
      <point x="-77" y="-163" type="curve" smooth="yes"/>
      <point x="-77" y="0" type="line"/>
      <point x="-103" y="0" type="line"/>
      <point x="-103" y="-163" type="line" smooth="yes"/>
      <point x="-103" y="-215"/>
      <point x="-116" y="-236"/>
      <point x="-154" y="-236" type="curve" smooth="yes"/>
      <point x="-210" y="-236"/>
      <point x="-254" y="-183"/>
      <point x="-254" y="-123" type="curve" smooth="yes"/>
      <point x="-254" y="-79"/>
      <point x="-227" y="-62"/>
      <point x="-173" y="-62" type="curve"/>
      <point x="-171" y="-36" type="line"/>
      <point x="-174" y="-36" type="line" smooth="yes"/>
      <point x="-208" y="-36"/>
      <point x="-238" y="-43"/>
      <point x="-257" y="-61" type="curve" smooth="yes"/>
      <point x="-272" y="-75"/>
      <point x="-280" y="-97"/>
      <point x="-280" y="-123" type="curve" smooth="yes"/>
      <point x="-280" y="-197"/>
      <point x="-223" y="-262"/>
    </contour>
    <contour>
      <point x="-256" y="-251" type="curve" smooth="yes"/>
      <point x="-230" y="-251"/>
      <point x="-207" y="-249"/>
      <point x="-186" y="-244" type="curve"/>
      <point x="-215" y="-223" type="line"/>
      <point x="-228" y="-224"/>
      <point x="-241" y="-225"/>
      <point x="-256" y="-225" type="curve" smooth="yes"/>
      <point x="-314" y="-225"/>
      <point x="-350" y="-215"/>
      <point x="-389" y="-190" type="curve"/>
      <point x="-393" y="-216" type="line"/>
      <point x="-357" y="-238"/>
      <point x="-319" y="-251"/>
    </contour>
    <contour>
      <point x="-256" y="-367" type="curve" smooth="yes"/>
      <point x="-199" y="-367"/>
      <point x="-157" y="-356"/>
      <point x="-118" y="-332" type="curve"/>
      <point x="-122" y="-306" type="line"/>
      <point x="-162" y="-331"/>
      <point x="-203" y="-341"/>
      <point x="-256" y="-341" type="curve" smooth="yes"/>
      <point x="-314" y="-341"/>
      <point x="-350" y="-331"/>
      <point x="-389" y="-306" type="curve"/>
      <point x="-393" y="-332" type="line"/>
      <point x="-357" y="-354"/>
      <point x="-319" y="-367"/>
    </contour>
  </outline>
</glyph>
<glyph name="iimatraaddakguru" format="2">
  <advance width="179"/>
  <outline>
    <contour>
      <point x="76" y="0" type="line"/>
      <point x="102" y="0" type="line"/>
      <point x="102" y="596" type="line"/>
      <point x="186" y="596" type="line"/>
      <point x="186" y="622" type="line"/>
      <point x="102" y="622" type="line"/>
      <point x="102" y="708" type="line" smooth="yes"/>
      <point x="102" y="822"/>
      <point x="70" y="890"/>
      <point x="-8" y="890" type="curve" smooth="yes"/>
      <point x="-72" y="890"/>
      <point x="-114" y="841"/>
      <point x="-114" y="742" type="curve" smooth="yes"/>
      <point x="-114" y="711"/>
      <point x="-111" y="684"/>
      <point x="-108" y="659" type="curve"/>
      <point x="-83" y="661" type="line"/>
      <point x="-85" y="681"/>
      <point x="-88" y="703"/>
      <point x="-88" y="742" type="curve" smooth="yes"/>
      <point x="-88" y="830"/>
      <point x="-53" y="864"/>
      <point x="-7" y="864" type="curve" smooth="yes"/>
      <point x="50" y="864"/>
      <point x="76" y="816"/>
      <point x="76" y="698" type="curve" smooth="yes"/>
      <point x="76" y="622" type="line"/>
      <point x="-7" y="622" type="line"/>
      <point x="-7" y="596" type="line"/>
      <point x="76" y="596" type="line"/>
    </contour>
    <contour>
      <point x="180" y="720" type="curve" smooth="yes"/>
      <point x="244" y="720"/>
      <point x="278" y="773"/>
      <point x="278" y="888" type="curve"/>
      <point x="252" y="890" type="line"/>
      <point x="251" y="789"/>
      <point x="230" y="745"/>
      <point x="180" y="745" type="curve" smooth="yes"/>
      <point x="130" y="745"/>
      <point x="109" y="789"/>
      <point x="108" y="890" type="curve"/>
      <point x="82" y="888" type="line"/>
      <point x="82" y="855"/>
      <point x="85" y="824"/>
      <point x="92" y="798" type="curve" smooth="yes"/>
      <point x="105" y="751"/>
      <point x="133" y="720"/>
    </contour>
  </outline>
</glyph>
<glyph name="karaguru" format="2">
  <advance width="446"/>
  <outline>
    <contour>
      <point x="310" y="-230" type="curve"/>
      <point x="331" y="-214" type="line"/>
      <point x="292" y="-167"/>
      <point x="250" y="-133"/>
      <point x="200" y="-107" type="curve"/>
      <point x="205" y="-93"/>
      <point x="210" y="-71"/>
      <point x="210" y="-31" type="curve" smooth="yes"/>
      <point x="210" y="143" type="line"/>
      <point x="184" y="143" type="line"/>
      <point x="184" y="-54" type="line" smooth="yes"/>
      <point x="184" y="-73"/>
      <point x="180" y="-90"/>
      <point x="177" y="-99" type="curve"/>
      <point x="165" y="-95"/>
      <point x="146" y="-92"/>
      <point x="132" y="-92" type="curve" smooth="yes"/>
      <point x="94" y="-92"/>
      <point x="81" y="-104"/>
      <point x="81" y="-121" type="curve" smooth="yes"/>
      <point x="81" y="-139"/>
      <point x="99" y="-148"/>
      <point x="124" y="-148" type="curve" smooth="yes"/>
      <point x="149" y="-148"/>
      <point x="173" y="-140"/>
      <point x="188" y="-127" type="curve"/>
      <point x="232" y="-152"/>
      <point x="272" y="-182"/>
    </contour>
    <component base="kaguru"/>
  </outline>
</glyph>
<glyph name="laUIguru" format="2">
  <advance width="480"/>
  <outline>
    <contour>
      <point x="240" y="309" type="curve"/>
      <point x="325" y="374"/>
      <point x="377" y="467"/>
      <point x="389" y="596" type="curve"/>
      <point x="487" y="596" type="line"/>
      <point x="487" y="622" type="line"/>
      <point x="-7" y="622" type="line"/>
      <point x="-7" y="596" type="line"/>
      <point x="91" y="596" type="line"/>
      <point x="103" y="467"/>
      <point x="155" y="374"/>
    </contour>
    <contour>
      <point x="363" y="596" type="line"/>
      <point x="350" y="460"/>
      <point x="298" y="389"/>
      <point x="236" y="338" type="curve"/>
      <point x="243" y="337" type="line"/>
      <point x="182" y="389"/>
      <point x="130" y="460"/>
      <point x="117" y="596" type="curve"/>
    </contour>
    <contour>
      <point x="42" y="231" type="curve" smooth="yes"/>
      <point x="42" y="139"/>
      <point x="92" y="81"/>
      <point x="176" y="55" type="curve"/>
      <point x="177" y="55" type="line"/>
      <point x="183" y="81" type="line"/>
      <point x="182" y="81" type="line"/>
      <point x="115" y="99"/>
      <point x="69" y="146"/>
      <point x="69" y="231" type="curve" smooth="yes"/>
      <point x="69" y="307"/>
      <point x="105" y="358"/>
      <point x="171" y="409" type="curve"/>
      <point x="158" y="429" type="line"/>
      <point x="81" y="375"/>
      <point x="42" y="313"/>
    </contour>
    <contour>
      <point x="438" y="231" type="curve" smooth="yes"/>
      <point x="438" y="313"/>
      <point x="399" y="375"/>
      <point x="322" y="429" type="curve"/>
      <point x="309" y="411" type="line"/>
      <point x="375" y="360"/>
      <point x="411" y="307"/>
      <point x="411" y="231" type="curve" smooth="yes"/>
      <point x="411" y="146"/>
      <point x="365" y="99"/>
      <point x="298" y="81" type="curve"/>
      <point x="297" y="81" type="line"/>
      <point x="303" y="55" type="line"/>
      <point x="304" y="55" type="line"/>
      <point x="388" y="81"/>
      <point x="438" y="139"/>
    </contour>
  </outline>
</glyph>
<glyph name="ooaddakguru" format="2">
  <advance width="473"/>
  <outline>
    <contour>
      <point x="253" y="0" type="curve" smooth="yes"/>
      <point x="345" y="0"/>
      <point x="387" y="63"/>
      <point x="387" y="155" type="curve" smooth="yes"/>
      <point x="387" y="259"/>
      <point x="323" y="340"/>
      <point x="191" y="348" type="curve"/>
      <point x="190" y="337" type="line"/>
      <point x="329" y="340"/>
      <point x="439" y="399"/>
      <point x="439" y="605" type="curve"/>
      <point x="439" y="611" type="line"/>
      <point x="413" y="613" type="line"/>
      <point x="413" y="592" type="line"/>
      <point x="413" y="496"/>
      <point x="381" y="430"/>
      <point x="325" y="396" type="curve" smooth="yes"/>
      <point x="288" y="373"/>
      <point x="250" y="359"/>
      <point x="160" y="359" type="curve" smooth="yes"/>
      <point x="83" y="359" type="line"/>
      <point x="81" y="333" type="line"/>
      <point x="138" y="333" type="line" smooth="yes"/>
      <point x="198" y="333"/>
      <point x="229" y="326"/>
      <point x="262" y="311" type="curve" smooth="yes"/>
      <point x="316" y="286"/>
      <point x="360" y="239"/>
      <point x="360" y="154" type="curve" smooth="yes"/>
      <point x="360" y="81"/>
      <point x="334" y="26"/>
      <point x="252" y="26" type="curve" smooth="yes"/>
      <point x="159" y="26"/>
      <point x="90" y="124"/>
      <point x="90" y="404" type="curve" smooth="yes"/>
      <point x="90" y="594"/>
      <point x="112" y="710"/>
      <point x="183" y="768" type="curve" smooth="yes"/>
      <point x="221" y="800"/>
      <point x="266" y="814"/>
      <point x="358" y="814" type="curve" smooth="yes"/>
      <point x="382" y="814" type="line"/>
      <point x="385" y="840" type="line"/>
      <point x="355" y="840" type="line" smooth="yes"/>
      <point x="260" y="840"/>
      <point x="207" y="823"/>
      <point x="166" y="788" type="curve" smooth="yes"/>
      <point x="83" y="719"/>
      <point x="64" y="589"/>
      <point x="64" y="404" type="curve" smooth="yes"/>
      <point x="64" y="111"/>
      <point x="139" y="0"/>
    </contour>
    <contour>
      <point x="-7" y="596" type="line"/>
      <point x="496" y="596" type="line"/>
      <point x="496" y="622" type="line"/>
      <point x="-7" y="622" type="line"/>
    </contour>
    <contour>
      <point x="468" y="696" type="curve" smooth="yes"/>
      <point x="536" y="696"/>
      <point x="566" y="749"/>
      <point x="566" y="864" type="curve"/>
      <point x="540" y="866" type="line"/>
      <point x="539" y="765"/>
      <point x="522" y="721"/>
      <point x="468" y="721" type="curve" smooth="yes"/>
      <point x="417" y="721"/>
      <point x="397" y="765"/>
      <point x="396" y="866" type="curve"/>
      <point x="370" y="864" type="line"/>
      <point x="370" y="748"/>
      <point x="403" y="696"/>
    </contour>
  </outline>
</glyph>
<glyph name="oomatra1guru" format="2">
  <outline>
    <contour>
      <point x="-104" y="615" type="curve"/>
      <point x="-78" y="615" type="line"/>
      <point x="-88" y="757"/>
      <point x="-118" y="785"/>
      <point x="-168" y="785" type="curve" smooth="yes"/>
      <point x="-175" y="785"/>
      <point x="-185" y="784"/>
      <point x="-196" y="784" type="curve" smooth="yes"/>
      <point x="-242" y="784"/>
      <point x="-248" y="809"/>
      <point x="-270" y="890" type="curve"/>
      <point x="-295" y="884" type="line"/>
      <point x="-275" y="797"/>
      <point x="-256" y="758"/>
      <point x="-198" y="758" type="curve" smooth="yes"/>
      <point x="-188" y="758"/>
      <point x="-179" y="759"/>
      <point x="-169" y="759" type="curve" smooth="yes"/>
      <point x="-127" y="759"/>
      <point x="-114" y="722"/>
    </contour>
  </outline>
</glyph>
<glyph name="oomatraaddakaltguru" format="2">
  <advance width="20"/>
  <outline>
    <contour>
      <point x="27" y="596" type="line"/>
      <point x="27" y="622" type="line"/>
      <point x="-7" y="622" type="line"/>
      <point x="-7" y="596" type="line"/>
    </contour>
    <component base="oomatraaddakguru"/>
  </outline>
</glyph>
<glyph name="oomatraaddakguru" format="2">
  <outline>
    <contour>
      <point x="-104" y="615" type="curve"/>
      <point x="-78" y="615" type="line"/>
      <point x="-88" y="757"/>
      <point x="-124" y="785"/>
      <point x="-184" y="785" type="curve" smooth="yes"/>
      <point x="-193" y="785"/>
      <point x="-204" y="784"/>
      <point x="-217" y="784" type="curve" smooth="yes"/>
      <point x="-272" y="784"/>
      <point x="-285" y="813"/>
      <point x="-305" y="890" type="curve"/>
      <point x="-330" y="884" type="line"/>
      <point x="-309" y="797"/>
      <point x="-286" y="758"/>
      <point x="-215" y="758" type="curve" smooth="yes"/>
      <point x="-204" y="758"/>
      <point x="-193" y="759"/>
      <point x="-181" y="759" type="curve" smooth="yes"/>
      <point x="-133" y="759"/>
      <point x="-114" y="722"/>
    </contour>
    <contour>
      <point x="-23" y="696" type="curve" smooth="yes"/>
      <point x="41" y="696"/>
      <point x="75" y="749"/>
      <point x="75" y="864" type="curve"/>
      <point x="49" y="866" type="line"/>
      <point x="48" y="765"/>
      <point x="27" y="721"/>
      <point x="-23" y="721" type="curve" smooth="yes"/>
      <point x="-73" y="721"/>
      <point x="-94" y="765"/>
      <point x="-95" y="866" type="curve"/>
      <point x="-121" y="864" type="line"/>
      <point x="-121" y="748"/>
      <point x="-87" y="696"/>
    </contour>
  </outline>
</glyph>
<glyph name="oomatrabindi1guru" format="2">
  <outline>
    <contour>
      <point x="-104" y="615" type="curve"/>
      <point x="-78" y="615" type="line"/>
      <point x="-88" y="757"/>
      <point x="-118" y="785"/>
      <point x="-168" y="785" type="curve" smooth="yes"/>
      <point x="-175" y="785"/>
      <point x="-185" y="784"/>
      <point x="-196" y="784" type="curve" smooth="yes"/>
      <point x="-242" y="784"/>
      <point x="-248" y="809"/>
      <point x="-270" y="890" type="curve"/>
      <point x="-295" y="884" type="line"/>
      <point x="-275" y="797"/>
      <point x="-256" y="758"/>
      <point x="-198" y="758" type="curve" smooth="yes"/>
      <point x="-188" y="758"/>
      <point x="-179" y="759"/>
      <point x="-169" y="759" type="curve" smooth="yes"/>
      <point x="-127" y="759"/>
      <point x="-114" y="722"/>
    </contour>
    <contour>
      <point x="-98" y="814" type="curve" smooth="yes"/>
      <point x="-83" y="814"/>
      <point x="-71" y="825"/>
      <point x="-71" y="852" type="curve" smooth="yes"/>
      <point x="-71" y="876"/>
      <point x="-82" y="890"/>
      <point x="-97" y="890" type="curve" smooth="yes"/>
      <point x="-111" y="890"/>
      <point x="-124" y="877"/>
      <point x="-124" y="852" type="curve" smooth="yes"/>
      <point x="-124" y="826"/>
      <point x="-110" y="814"/>
    </contour>
  </outline>
</glyph>
<glyph name="oomatrabindiguru" format="2">
  <outline>
    <contour>
      <point x="-104" y="615" type="curve"/>
      <point x="-78" y="615" type="line"/>
      <point x="-88" y="757"/>
      <point x="-124" y="785"/>
      <point x="-184" y="785" type="curve" smooth="yes"/>
      <point x="-193" y="785"/>
      <point x="-204" y="784"/>
      <point x="-217" y="784" type="curve" smooth="yes"/>
      <point x="-272" y="784"/>
      <point x="-285" y="813"/>
      <point x="-305" y="890" type="curve"/>
      <point x="-330" y="884" type="line"/>
      <point x="-309" y="797"/>
      <point x="-286" y="758"/>
      <point x="-215" y="758" type="curve" smooth="yes"/>
      <point x="-204" y="758"/>
      <point x="-193" y="759"/>
      <point x="-181" y="759" type="curve" smooth="yes"/>
      <point x="-133" y="759"/>
      <point x="-114" y="722"/>
    </contour>
    <contour>
      <point x="-98" y="814" type="curve" smooth="yes"/>
      <point x="-83" y="814"/>
      <point x="-71" y="825"/>
      <point x="-71" y="852" type="curve" smooth="yes"/>
      <point x="-71" y="876"/>
      <point x="-82" y="890"/>
      <point x="-97" y="890" type="curve" smooth="yes"/>
      <point x="-111" y="890"/>
      <point x="-124" y="877"/>
      <point x="-124" y="852" type="curve" smooth="yes"/>
      <point x="-124" y="826"/>
      <point x="-110" y="814"/>
    </contour>
  </outline>
</glyph>
<glyph name="phuunuktaUIguru" format="2">
  <advance width="411"/>
  <outline>
    <contour>
      <point x="236" y="-155" type="curve" smooth="yes"/>
      <point x="291" y="-155"/>
      <point x="331" y="-144"/>
      <point x="370" y="-120" type="curve"/>
      <point x="366" y="-94" type="line"/>
      <point x="326" y="-119"/>
      <point x="287" y="-129"/>
      <point x="236" y="-129" type="curve" smooth="yes"/>
      <point x="180" y="-129"/>
      <point x="146" y="-119"/>
      <point x="107" y="-94" type="curve"/>
      <point x="103" y="-120" type="line"/>
      <point x="139" y="-142"/>
      <point x="175" y="-155"/>
    </contour>
    <contour>
      <point x="236" y="-271" type="curve" smooth="yes"/>
      <point x="291" y="-271"/>
      <point x="331" y="-260"/>
      <point x="370" y="-236" type="curve"/>
      <point x="366" y="-210" type="line"/>
      <point x="326" y="-235"/>
      <point x="287" y="-245"/>
      <point x="236" y="-245" type="curve" smooth="yes"/>
      <point x="180" y="-245"/>
      <point x="146" y="-235"/>
      <point x="107" y="-210" type="curve"/>
      <point x="103" y="-236" type="line"/>
      <point x="139" y="-258"/>
      <point x="175" y="-271"/>
    </contour>
    <component base="phaguru"/>
    <component base="nuktaguru" xOffset="369" yOffset="94"/>
  </outline>
</glyph>
<glyph name="raUIguru" format="2">
  <advance width="410"/>
  <outline>
    <contour>
      <point x="233" y="53" type="curve" smooth="yes"/>
      <point x="306" y="53"/>
      <point x="333" y="95"/>
      <point x="333" y="177" type="curve" smooth="yes"/>
      <point x="333" y="596" type="line"/>
      <point x="417" y="596" type="line"/>
      <point x="417" y="622" type="line"/>
      <point x="-7" y="622" type="line"/>
      <point x="-7" y="596" type="line"/>
      <point x="307" y="596" type="line"/>
      <point x="307" y="418" type="line"/>
      <point x="200" y="418" type="line" smooth="yes"/>
      <point x="137" y="418"/>
      <point x="108" y="409"/>
      <point x="85" y="393" type="curve" smooth="yes"/>
      <point x="53" y="371"/>
      <point x="39" y="335"/>
      <point x="39" y="292" type="curve" smooth="yes"/>
      <point x="39" y="175"/>
      <point x="122" y="53"/>
    </contour>
    <contour>
      <point x="233" y="79" type="curve" smooth="yes"/>
      <point x="142" y="79"/>
      <point x="66" y="185"/>
      <point x="66" y="291" type="curve" smooth="yes"/>
      <point x="66" y="327"/>
      <point x="75" y="355"/>
      <point x="101" y="372" type="curve" smooth="yes"/>
      <point x="119" y="384"/>
      <point x="142" y="392"/>
      <point x="205" y="392" type="curve" smooth="yes"/>
      <point x="307" y="392" type="line"/>
      <point x="307" y="194" type="line" smooth="yes"/>
      <point x="307" y="145"/>
      <point x="303" y="114"/>
      <point x="285" y="96" type="curve" smooth="yes"/>
      <point x="274" y="85"/>
      <point x="259" y="79"/>
    </contour>
  </outline>
</glyph>
<glyph name="rasubscript1guru" format="2">
  <outline>
    <contour>
      <point x="23" y="-230" type="curve"/>
      <point x="44" y="-214" type="line"/>
      <point x="5" y="-167"/>
      <point x="-37" y="-133"/>
      <point x="-87" y="-107" type="curve"/>
      <point x="-82" y="-93"/>
      <point x="-77" y="-71"/>
      <point x="-77" y="-31" type="curve" smooth="yes"/>
      <point x="-77" y="30" type="line"/>
      <point x="-103" y="21" type="line"/>
      <point x="-103" y="-54" type="line" smooth="yes"/>
      <point x="-103" y="-73"/>
      <point x="-107" y="-90"/>
      <point x="-110" y="-99" type="curve"/>
      <point x="-122" y="-95"/>
      <point x="-141" y="-92"/>
      <point x="-155" y="-92" type="curve" smooth="yes"/>
      <point x="-193" y="-92"/>
      <point x="-206" y="-104"/>
      <point x="-206" y="-121" type="curve" smooth="yes"/>
      <point x="-206" y="-139"/>
      <point x="-188" y="-148"/>
      <point x="-163" y="-148" type="curve" smooth="yes"/>
      <point x="-138" y="-148"/>
      <point x="-114" y="-140"/>
      <point x="-99" y="-127" type="curve"/>
      <point x="-55" y="-152"/>
      <point x="-15" y="-182"/>
    </contour>
  </outline>
</glyph>
<glyph name="rasubscripthalantguru" format="2">
  <outline>
    <contour>
      <point x="23" y="-208" type="curve"/>
      <point x="44" y="-192" type="line"/>
      <point x="5" y="-145"/>
      <point x="-37" y="-111"/>
      <point x="-87" y="-85" type="curve"/>
      <point x="-82" y="-71"/>
      <point x="-77" y="-49"/>
      <point x="-77" y="-9" type="curve" smooth="yes"/>
      <point x="-77" y="0" type="line"/>
      <point x="-103" y="0" type="line"/>
      <point x="-103" y="-32" type="line" smooth="yes"/>
      <point x="-103" y="-51"/>
      <point x="-107" y="-68"/>
      <point x="-110" y="-77" type="curve"/>
      <point x="-122" y="-73"/>
      <point x="-141" y="-70"/>
      <point x="-155" y="-70" type="curve" smooth="yes"/>
      <point x="-193" y="-70"/>
      <point x="-206" y="-82"/>
      <point x="-206" y="-99" type="curve" smooth="yes"/>
      <point x="-206" y="-117"/>
      <point x="-188" y="-126"/>
      <point x="-163" y="-126" type="curve" smooth="yes"/>
      <point x="-138" y="-126"/>
      <point x="-114" y="-118"/>
      <point x="-99" y="-105" type="curve"/>
      <point x="-55" y="-130"/>
      <point x="-15" y="-160"/>
    </contour>
    <contour>
      <point x="52" y="-388" type="curve"/>
      <point x="77" y="-381" type="line"/>
      <point x="25" y="-247"/>
      <point x="-44" y="-207"/>
      <point x="-129" y="-207" type="curve" smooth="yes"/>
      <point x="-134" y="-207"/>
      <point x="-141" y="-207"/>
      <point x="-147" y="-208" type="curve"/>
      <point x="-145" y="-234" type="line"/>
      <point x="-138" y="-233"/>
      <point x="-134" y="-233"/>
      <point x="-129" y="-233" type="curve" smooth="yes"/>
      <point x="-60" y="-233"/>
      <point x="5" y="-263"/>
    </contour>
  </outline>
</glyph>
<glyph name="rasubscriptuUIguru" format="2">
  <outline>
    <contour>
      <point x="23" y="-221" type="curve"/>
      <point x="44" y="-205" type="line"/>
      <point x="5" y="-158"/>
      <point x="-37" y="-124"/>
      <point x="-87" y="-98" type="curve"/>
      <point x="-82" y="-84"/>
      <point x="-77" y="-58"/>
      <point x="-77" y="0" type="curve"/>
      <point x="-103" y="0" type="line"/>
      <point x="-103" y="-45" type="line" smooth="yes"/>
      <point x="-103" y="-64"/>
      <point x="-107" y="-81"/>
      <point x="-110" y="-90" type="curve"/>
      <point x="-122" y="-86"/>
      <point x="-141" y="-83"/>
      <point x="-155" y="-83" type="curve" smooth="yes"/>
      <point x="-193" y="-83"/>
      <point x="-206" y="-95"/>
      <point x="-206" y="-112" type="curve" smooth="yes"/>
      <point x="-206" y="-130"/>
      <point x="-188" y="-139"/>
      <point x="-163" y="-139" type="curve" smooth="yes"/>
      <point x="-138" y="-139"/>
      <point x="-114" y="-131"/>
      <point x="-99" y="-118" type="curve"/>
      <point x="-55" y="-143"/>
      <point x="-15" y="-173"/>
    </contour>
    <contour>
      <point x="-220" y="-259" type="curve" smooth="yes"/>
      <point x="-163" y="-259"/>
      <point x="-121" y="-248"/>
      <point x="-82" y="-224" type="curve"/>
      <point x="-86" y="-198" type="line"/>
      <point x="-126" y="-223"/>
      <point x="-167" y="-233"/>
      <point x="-220" y="-233" type="curve" smooth="yes"/>
      <point x="-273" y="-233"/>
      <point x="-314" y="-223"/>
      <point x="-353" y="-198" type="curve"/>
      <point x="-357" y="-224" type="line"/>
      <point x="-321" y="-246"/>
      <point x="-278" y="-259"/>
    </contour>
  </outline>
</glyph>
<glyph name="rasubscriptuuUIguru" format="2">
  <outline>
    <contour>
      <point x="23" y="-128" type="curve"/>
      <point x="44" y="-112" type="line"/>
      <point x="5" y="-65"/>
      <point x="-37" y="-31"/>
      <point x="-87" y="-5" type="curve"/>
      <point x="-82" y="9"/>
      <point x="-77" y="31"/>
      <point x="-77" y="60" type="curve"/>
      <point x="-103" y="60" type="line"/>
      <point x="-103" y="48" type="line" smooth="yes"/>
      <point x="-103" y="29"/>
      <point x="-107" y="12"/>
      <point x="-110" y="3" type="curve"/>
      <point x="-122" y="7"/>
      <point x="-141" y="10"/>
      <point x="-155" y="10" type="curve" smooth="yes"/>
      <point x="-193" y="10"/>
      <point x="-206" y="-2"/>
      <point x="-206" y="-19" type="curve" smooth="yes"/>
      <point x="-206" y="-37"/>
      <point x="-188" y="-46"/>
      <point x="-163" y="-46" type="curve" smooth="yes"/>
      <point x="-138" y="-46"/>
      <point x="-114" y="-38"/>
      <point x="-99" y="-25" type="curve"/>
      <point x="-55" y="-50"/>
      <point x="-15" y="-80"/>
    </contour>
    <contour>
      <point x="-220" y="-155" type="curve" smooth="yes"/>
      <point x="-163" y="-155"/>
      <point x="-121" y="-144"/>
      <point x="-82" y="-120" type="curve"/>
      <point x="-86" y="-94" type="line"/>
      <point x="-126" y="-119"/>
      <point x="-167" y="-129"/>
      <point x="-220" y="-129" type="curve" smooth="yes"/>
      <point x="-278" y="-129"/>
      <point x="-314" y="-119"/>
      <point x="-353" y="-94" type="curve"/>
      <point x="-357" y="-120" type="line"/>
      <point x="-321" y="-142"/>
      <point x="-283" y="-155"/>
    </contour>
    <contour>
      <point x="-220" y="-271" type="curve" smooth="yes"/>
      <point x="-163" y="-271"/>
      <point x="-121" y="-260"/>
      <point x="-82" y="-236" type="curve"/>
      <point x="-86" y="-210" type="line"/>
      <point x="-126" y="-235"/>
      <point x="-167" y="-245"/>
      <point x="-220" y="-245" type="curve" smooth="yes"/>
      <point x="-278" y="-245"/>
      <point x="-314" y="-235"/>
      <point x="-353" y="-210" type="curve"/>
      <point x="-357" y="-236" type="line"/>
      <point x="-321" y="-258"/>
      <point x="-283" y="-271"/>
    </contour>
  </outline>
</glyph>
<glyph name="rasubscriptuuguru" format="2">
  <outline>
    <contour>
      <point x="23" y="-219" type="curve"/>
      <point x="44" y="-203" type="line"/>
      <point x="5" y="-156"/>
      <point x="-37" y="-122"/>
      <point x="-87" y="-96" type="curve"/>
      <point x="-82" y="-82"/>
      <point x="-77" y="-60"/>
      <point x="-77" y="-20" type="curve" smooth="yes"/>
      <point x="-77" y="0" type="line"/>
      <point x="-103" y="0" type="line"/>
      <point x="-103" y="-43" type="line" smooth="yes"/>
      <point x="-103" y="-62"/>
      <point x="-107" y="-79"/>
      <point x="-110" y="-88" type="curve"/>
      <point x="-122" y="-84"/>
      <point x="-141" y="-81"/>
      <point x="-155" y="-81" type="curve" smooth="yes"/>
      <point x="-193" y="-81"/>
      <point x="-206" y="-93"/>
      <point x="-206" y="-110" type="curve" smooth="yes"/>
      <point x="-206" y="-128"/>
      <point x="-188" y="-137"/>
      <point x="-163" y="-137" type="curve" smooth="yes"/>
      <point x="-138" y="-137"/>
      <point x="-114" y="-129"/>
      <point x="-99" y="-116" type="curve"/>
      <point x="-55" y="-141"/>
      <point x="-15" y="-171"/>
    </contour>
    <contour>
      <point x="-220" y="-251" type="curve" smooth="yes"/>
      <point x="-163" y="-251"/>
      <point x="-121" y="-240"/>
      <point x="-82" y="-216" type="curve"/>
      <point x="-86" y="-190" type="line"/>
      <point x="-126" y="-215"/>
      <point x="-167" y="-225"/>
      <point x="-220" y="-225" type="curve" smooth="yes"/>
      <point x="-278" y="-225"/>
      <point x="-314" y="-215"/>
      <point x="-353" y="-190" type="curve"/>
      <point x="-357" y="-216" type="line"/>
      <point x="-321" y="-238"/>
      <point x="-283" y="-251"/>
    </contour>
    <contour>
      <point x="-220" y="-367" type="curve" smooth="yes"/>
      <point x="-163" y="-367"/>
      <point x="-121" y="-356"/>
      <point x="-82" y="-332" type="curve"/>
      <point x="-86" y="-306" type="line"/>
      <point x="-126" y="-331"/>
      <point x="-167" y="-341"/>
      <point x="-220" y="-341" type="curve" smooth="yes"/>
      <point x="-278" y="-341"/>
      <point x="-314" y="-331"/>
      <point x="-353" y="-306" type="curve"/>
      <point x="-357" y="-332" type="line"/>
      <point x="-321" y="-354"/>
      <point x="-283" y="-367"/>
    </contour>
  </outline>
</glyph>
<glyph name="sanuktaUIguru" format="2">
  <advance width="415"/>
  <outline>
    <contour>
      <point x="312" y="56" type="line"/>
      <point x="338" y="56" type="line"/>
      <point x="338" y="596" type="line"/>
      <point x="422" y="596" type="line"/>
      <point x="422" y="622" type="line"/>
      <point x="-7" y="622" type="line"/>
      <point x="-7" y="596" type="line"/>
      <point x="64" y="596" type="line"/>
      <point x="50" y="614" type="line"/>
      <point x="74" y="533"/>
      <point x="95" y="409"/>
      <point x="95" y="321" type="curve"/>
      <point x="74" y="274"/>
      <point x="52" y="205"/>
      <point x="52" y="164" type="curve" smooth="yes"/>
      <point x="52" y="142"/>
      <point x="60" y="137"/>
      <point x="69" y="137" type="curve" smooth="yes"/>
      <point x="92" y="137"/>
      <point x="109" y="198"/>
      <point x="120" y="311" type="curve"/>
      <point x="312" y="311" type="line"/>
    </contour>
    <contour>
      <point x="121" y="337" type="line"/>
      <point x="119" y="414"/>
      <point x="100" y="526"/>
      <point x="76" y="615" type="curve"/>
      <point x="66" y="596" type="line"/>
      <point x="312" y="596" type="line"/>
      <point x="312" y="337" type="line"/>
    </contour>
    <contour>
      <point x="180" y="58" type="curve" smooth="yes"/>
      <point x="195" y="58"/>
      <point x="207" y="69"/>
      <point x="207" y="96" type="curve" smooth="yes"/>
      <point x="207" y="120"/>
      <point x="196" y="134"/>
      <point x="181" y="134" type="curve" smooth="yes"/>
      <point x="167" y="134"/>
      <point x="154" y="121"/>
      <point x="154" y="96" type="curve" smooth="yes"/>
      <point x="154" y="70"/>
      <point x="168" y="58"/>
    </contour>
  </outline>
</glyph>
<glyph name="taUIguru" format="2">
  <advance width="387"/>
  <outline>
    <contour>
      <point x="166" y="39" type="curve" smooth="yes"/>
      <point x="284" y="39"/>
      <point x="341" y="104"/>
      <point x="341" y="212" type="curve" smooth="yes"/>
      <point x="341" y="295"/>
      <point x="298" y="349"/>
      <point x="232" y="384" type="curve"/>
      <point x="293" y="420"/>
      <point x="322" y="467"/>
      <point x="322" y="542" type="curve" smooth="yes"/>
      <point x="322" y="564"/>
      <point x="319" y="587"/>
      <point x="314" y="610" type="curve"/>
      <point x="300" y="596" type="line"/>
      <point x="394" y="596" type="line"/>
      <point x="394" y="622" type="line"/>
      <point x="-7" y="622" type="line"/>
      <point x="-7" y="596" type="line"/>
      <point x="294" y="596" type="line"/>
      <point x="288" y="610" type="line"/>
      <point x="293" y="585"/>
      <point x="296" y="564"/>
      <point x="296" y="543" type="curve" smooth="yes"/>
      <point x="296" y="467"/>
      <point x="258" y="425"/>
      <point x="206" y="397" type="curve"/>
      <point x="185" y="405"/>
      <point x="155" y="411"/>
      <point x="119" y="411" type="curve" smooth="yes"/>
      <point x="68" y="411"/>
      <point x="47" y="405"/>
      <point x="47" y="390" type="curve" smooth="yes"/>
      <point x="47" y="373"/>
      <point x="71" y="365"/>
      <point x="126" y="365" type="curve" smooth="yes"/>
      <point x="162" y="365"/>
      <point x="176" y="367"/>
      <point x="203" y="372" type="curve"/>
      <point x="269" y="345"/>
      <point x="314" y="289"/>
      <point x="314" y="212" type="curve" smooth="yes"/>
      <point x="314" y="119"/>
      <point x="266" y="65"/>
      <point x="167" y="65" type="curve" smooth="yes"/>
      <point x="110" y="65"/>
      <point x="73" y="78"/>
      <point x="21" y="107" type="curve"/>
      <point x="10" y="82" type="line"/>
      <point x="62" y="54"/>
      <point x="107" y="39"/>
    </contour>
  </outline>
</glyph>
<glyph name="uaddakaltguru" format="2">
  <advance width="540"/>
  <outline>
    <contour>
      <point x="547" y="596" type="line"/>
      <point x="547" y="622" type="line"/>
      <point x="491" y="622" type="line"/>
      <point x="491" y="596" type="line"/>
    </contour>
    <component base="uraaddakguru"/>
    <component base="umatraguru" xOffset="451"/>
  </outline>
</glyph>
<glyph name="udaatUIguru" format="2">
  <outline>
    <contour>
      <point x="58" y="-269" type="curve"/>
      <point x="65" y="-244" type="line"/>
      <point x="-14" y="-229"/>
      <point x="-53" y="-151"/>
      <point x="-76" y="-34" type="curve"/>
      <point x="-101" y="-40" type="line"/>
      <point x="-78" y="-164"/>
      <point x="-33" y="-251"/>
    </contour>
  </outline>
</glyph>
<glyph name="udaathalantguru" format="2">
  <outline>
    <contour>
      <point x="70" y="-238" type="curve"/>
      <point x="77" y="-213" type="line"/>
      <point x="0" y="-194"/>
      <point x="-52" y="-146"/>
      <point x="-76" y="-34" type="curve"/>
      <point x="-101" y="-40" type="line"/>
      <point x="-76" y="-154"/>
      <point x="-26" y="-213"/>
    </contour>
    <contour>
      <point x="62" y="-398" type="curve"/>
      <point x="87" y="-391" type="line"/>
      <point x="41" y="-262"/>
      <point x="-19" y="-225"/>
      <point x="-90" y="-225" type="curve" smooth="yes"/>
      <point x="-95" y="-225"/>
      <point x="-102" y="-225"/>
      <point x="-108" y="-226" type="curve"/>
      <point x="-106" y="-252" type="line"/>
      <point x="-99" y="-251"/>
      <point x="-95" y="-251"/>
      <point x="-90" y="-251" type="curve" smooth="yes"/>
      <point x="-39" y="-251"/>
      <point x="18" y="-272"/>
    </contour>
  </outline>
</glyph>
<glyph name="udaatuUIguru" format="2">
  <outline>
    <contour>
      <point x="58" y="-269" type="curve"/>
      <point x="65" y="-244" type="line"/>
      <point x="-14" y="-229"/>
      <point x="-53" y="-151"/>
      <point x="-76" y="-34" type="curve"/>
      <point x="-101" y="-40" type="line"/>
      <point x="-78" y="-164"/>
      <point x="-33" y="-251"/>
    </contour>
    <contour>
      <point x="-230" y="-254" type="curve" smooth="yes"/>
      <point x="-173" y="-254"/>
      <point x="-131" y="-243"/>
      <point x="-92" y="-219" type="curve"/>
      <point x="-96" y="-194" type="line"/>
      <point x="-136" y="-219"/>
      <point x="-177" y="-229"/>
      <point x="-230" y="-229" type="curve" smooth="yes"/>
      <point x="-283" y="-229"/>
      <point x="-324" y="-219"/>
      <point x="-363" y="-194" type="curve"/>
      <point x="-367" y="-219" type="line"/>
      <point x="-331" y="-241"/>
      <point x="-288" y="-254"/>
    </contour>
  </outline>
</glyph>
<glyph name="udaatuguru" format="2">
  <outline>
    <contour>
      <point x="93" y="-282" type="curve"/>
      <point x="95" y="-256" type="line"/>
      <point x="92" y="-256"/>
      <point x="88" y="-256"/>
      <point x="86" y="-256" type="curve" smooth="yes"/>
      <point x="2" y="-256"/>
      <point x="-45" y="-194"/>
      <point x="-76" y="-34" type="curve"/>
      <point x="-101" y="-40" type="line"/>
      <point x="-69" y="-209"/>
      <point x="-13" y="-282"/>
      <point x="86" y="-282" type="curve" smooth="yes"/>
      <point x="88" y="-282"/>
      <point x="91" y="-282"/>
    </contour>
    <contour>
      <point x="-220" y="-269" type="curve" smooth="yes"/>
      <point x="-163" y="-269"/>
      <point x="-121" y="-258"/>
      <point x="-82" y="-234" type="curve"/>
      <point x="-86" y="-208" type="line"/>
      <point x="-126" y="-233"/>
      <point x="-167" y="-243"/>
      <point x="-220" y="-243" type="curve" smooth="yes"/>
      <point x="-273" y="-243"/>
      <point x="-314" y="-233"/>
      <point x="-353" y="-208" type="curve"/>
      <point x="-357" y="-234" type="line"/>
      <point x="-321" y="-256"/>
      <point x="-278" y="-269"/>
    </contour>
  </outline>
</glyph>
<glyph name="udaatuuUIguru" format="2">
  <outline>
    <contour>
      <point x="68" y="-248" type="curve"/>
      <point x="75" y="-223" type="line"/>
      <point x="-4" y="-208"/>
      <point x="-43" y="-130"/>
      <point x="-66" y="-13" type="curve"/>
      <point x="-91" y="-19" type="line"/>
      <point x="-68" y="-143"/>
      <point x="-23" y="-230"/>
    </contour>
    <contour>
      <point x="-221" y="-151" type="curve" smooth="yes"/>
      <point x="-174" y="-151"/>
      <point x="-134" y="-140"/>
      <point x="-95" y="-116" type="curve"/>
      <point x="-99" y="-90" type="line"/>
      <point x="-139" y="-115"/>
      <point x="-178" y="-125"/>
      <point x="-221" y="-125" type="curve" smooth="yes"/>
      <point x="-268" y="-125"/>
      <point x="-301" y="-117"/>
      <point x="-342" y="-90" type="curve"/>
      <point x="-346" y="-116" type="line"/>
      <point x="-310" y="-138"/>
      <point x="-274" y="-151"/>
    </contour>
    <contour>
      <point x="-218" y="-267" type="curve" smooth="yes"/>
      <point x="-171" y="-267"/>
      <point x="-134" y="-256"/>
      <point x="-95" y="-232" type="curve"/>
      <point x="-99" y="-206" type="line"/>
      <point x="-139" y="-231"/>
      <point x="-178" y="-241"/>
      <point x="-221" y="-241" type="curve" smooth="yes"/>
      <point x="-269" y="-241"/>
      <point x="-303" y="-231"/>
      <point x="-342" y="-206" type="curve"/>
      <point x="-346" y="-232" type="line"/>
      <point x="-310" y="-254"/>
      <point x="-271" y="-267"/>
    </contour>
  </outline>
</glyph>
<glyph name="udaatuuguru" format="2">
  <outline>
    <contour>
      <point x="70" y="-238" type="curve"/>
      <point x="77" y="-213" type="line"/>
      <point x="0" y="-194"/>
      <point x="-52" y="-146"/>
      <point x="-76" y="-34" type="curve"/>
      <point x="-101" y="-40" type="line"/>
      <point x="-76" y="-154"/>
      <point x="-26" y="-213"/>
    </contour>
    <contour>
      <point x="-220" y="-251" type="curve" smooth="yes"/>
      <point x="-163" y="-251"/>
      <point x="-121" y="-240"/>
      <point x="-82" y="-216" type="curve"/>
      <point x="-86" y="-190" type="line"/>
      <point x="-126" y="-215"/>
      <point x="-167" y="-225"/>
      <point x="-220" y="-225" type="curve" smooth="yes"/>
      <point x="-278" y="-225"/>
      <point x="-314" y="-215"/>
      <point x="-353" y="-190" type="curve"/>
      <point x="-357" y="-216" type="line"/>
      <point x="-321" y="-238"/>
      <point x="-283" y="-251"/>
    </contour>
    <contour>
      <point x="-220" y="-367" type="curve" smooth="yes"/>
      <point x="-163" y="-367"/>
      <point x="-121" y="-356"/>
      <point x="-82" y="-332" type="curve"/>
      <point x="-86" y="-306" type="line"/>
      <point x="-126" y="-331"/>
      <point x="-167" y="-341"/>
      <point x="-220" y="-341" type="curve" smooth="yes"/>
      <point x="-278" y="-341"/>
      <point x="-314" y="-331"/>
      <point x="-353" y="-306" type="curve"/>
      <point x="-357" y="-332" type="line"/>
      <point x="-321" y="-354"/>
      <point x="-283" y="-367"/>
    </contour>
  </outline>
</glyph>
<glyph name="umatralow1guru" format="2">
  <outline>
    <contour>
      <point x="-306" y="-195" type="curve" smooth="yes"/>
      <point x="-249" y="-195"/>
      <point x="-207" y="-184"/>
      <point x="-168" y="-160" type="curve"/>
      <point x="-172" y="-134" type="line"/>
      <point x="-212" y="-159"/>
      <point x="-253" y="-169"/>
      <point x="-306" y="-169" type="curve" smooth="yes"/>
      <point x="-359" y="-169"/>
      <point x="-400" y="-159"/>
      <point x="-439" y="-134" type="curve"/>
      <point x="-443" y="-160" type="line"/>
      <point x="-407" y="-182"/>
      <point x="-364" y="-195"/>
    </contour>
  </outline>
</glyph>
<glyph name="umatralowUIguru" format="2">
  <outline>
    <contour>
      <point x="-230" y="-234" type="curve" smooth="yes"/>
      <point x="-173" y="-234"/>
      <point x="-131" y="-223"/>
      <point x="-92" y="-199" type="curve"/>
      <point x="-96" y="-174" type="line"/>
      <point x="-136" y="-199"/>
      <point x="-177" y="-209"/>
      <point x="-230" y="-209" type="curve" smooth="yes"/>
      <point x="-283" y="-209"/>
      <point x="-324" y="-199"/>
      <point x="-363" y="-174" type="curve"/>
      <point x="-367" y="-199" type="line"/>
      <point x="-331" y="-221"/>
      <point x="-288" y="-234"/>
    </contour>
  </outline>
</glyph>
<glyph name="uraaddakguru" format="2">
  <advance width="473"/>
  <outline>
    <contour>
      <point x="253" y="0" type="curve" smooth="yes"/>
      <point x="345" y="0"/>
      <point x="387" y="63"/>
      <point x="387" y="155" type="curve" smooth="yes"/>
      <point x="387" y="259"/>
      <point x="323" y="340"/>
      <point x="191" y="348" type="curve"/>
      <point x="190" y="337" type="line"/>
      <point x="329" y="340"/>
      <point x="439" y="399"/>
      <point x="439" y="605" type="curve" smooth="yes"/>
      <point x="439" y="671"/>
      <point x="429" y="723"/>
      <point x="410" y="762" type="curve"/>
      <point x="387" y="824"/>
      <point x="345" y="852"/>
      <point x="279" y="852" type="curve" smooth="yes"/>
      <point x="180" y="852"/>
      <point x="114" y="772"/>
      <point x="83" y="620" type="curve"/>
      <point x="81" y="606" type="line"/>
      <point x="71" y="549"/>
      <point x="64" y="481"/>
      <point x="64" y="404" type="curve" smooth="yes"/>
      <point x="64" y="111"/>
      <point x="139" y="0"/>
    </contour>
    <contour>
      <point x="252" y="26" type="curve" smooth="yes"/>
      <point x="159" y="26"/>
      <point x="90" y="124"/>
      <point x="90" y="404" type="curve" smooth="yes"/>
      <point x="90" y="479"/>
      <point x="97" y="546"/>
      <point x="107" y="604" type="curve"/>
      <point x="109" y="616" type="line"/>
      <point x="134" y="743"/>
      <point x="189" y="826"/>
      <point x="278" y="826" type="curve" smooth="yes"/>
      <point x="370" y="826"/>
      <point x="413" y="751"/>
      <point x="413" y="613" type="curve" smooth="yes"/>
      <point x="413" y="592" type="line" smooth="yes"/>
      <point x="413" y="496"/>
      <point x="381" y="430"/>
      <point x="325" y="396" type="curve" smooth="yes"/>
      <point x="288" y="373"/>
      <point x="250" y="359"/>
      <point x="160" y="359" type="curve" smooth="yes"/>
      <point x="83" y="359" type="line"/>
      <point x="90" y="333" type="line"/>
      <point x="138" y="333" type="line" smooth="yes"/>
      <point x="198" y="333"/>
      <point x="229" y="326"/>
      <point x="262" y="311" type="curve" smooth="yes"/>
      <point x="316" y="286"/>
      <point x="360" y="239"/>
      <point x="360" y="154" type="curve" smooth="yes"/>
      <point x="360" y="81"/>
      <point x="334" y="26"/>
    </contour>
    <contour>
      <point x="-7" y="596" type="line"/>
      <point x="496" y="596" type="line"/>
      <point x="496" y="622" type="line"/>
      <point x="-7" y="622" type="line"/>
    </contour>
    <contour>
      <point x="494" y="696" type="curve" smooth="yes"/>
      <point x="562" y="696"/>
      <point x="596" y="749"/>
      <point x="596" y="864" type="curve"/>
      <point x="570" y="866" type="line"/>
      <point x="569" y="765"/>
      <point x="548" y="721"/>
      <point x="494" y="721" type="curve" smooth="yes"/>
      <point x="440" y="721"/>
      <point x="419" y="765"/>
      <point x="418" y="866" type="curve"/>
      <point x="392" y="864" type="line"/>
      <point x="392" y="814"/>
      <point x="400" y="783"/>
      <point x="411" y="757" type="curve"/>
      <point x="427" y="715"/>
      <point x="451" y="696"/>
    </contour>
  </outline>
</glyph>
<glyph name="uumatraUIguru" format="2">
  <outline>
    <contour>
      <point x="-220" y="-129" type="curve" smooth="yes"/>
      <point x="-163" y="-129"/>
      <point x="-121" y="-118"/>
      <point x="-82" y="-94" type="curve"/>
      <point x="-86" y="-68" type="line"/>
      <point x="-126" y="-93"/>
      <point x="-167" y="-103"/>
      <point x="-220" y="-103" type="curve" smooth="yes"/>
      <point x="-278" y="-103"/>
      <point x="-314" y="-93"/>
      <point x="-353" y="-68" type="curve"/>
      <point x="-357" y="-94" type="line"/>
      <point x="-321" y="-116"/>
      <point x="-283" y="-129"/>
    </contour>
    <contour>
      <point x="-220" y="-245" type="curve" smooth="yes"/>
      <point x="-163" y="-245"/>
      <point x="-121" y="-234"/>
      <point x="-82" y="-210" type="curve"/>
      <point x="-86" y="-184" type="line"/>
      <point x="-126" y="-209"/>
      <point x="-167" y="-219"/>
      <point x="-220" y="-219" type="curve" smooth="yes"/>
      <point x="-278" y="-219"/>
      <point x="-314" y="-209"/>
      <point x="-353" y="-184" type="curve"/>
      <point x="-357" y="-210" type="line"/>
      <point x="-321" y="-232"/>
      <point x="-283" y="-245"/>
    </contour>
  </outline>
</glyph>
<glyph name="uumatralowUIguru" format="2">
  <outline>
    <contour>
      <point x="-193" y="-144" type="curve" smooth="yes"/>
      <point x="-138" y="-144"/>
      <point x="-98" y="-133"/>
      <point x="-59" y="-109" type="curve"/>
      <point x="-63" y="-83" type="line"/>
      <point x="-103" y="-108"/>
      <point x="-142" y="-118"/>
      <point x="-193" y="-118" type="curve" smooth="yes"/>
      <point x="-249" y="-118"/>
      <point x="-283" y="-108"/>
      <point x="-322" y="-83" type="curve"/>
      <point x="-326" y="-109" type="line"/>
      <point x="-290" y="-131"/>
      <point x="-254" y="-144"/>
    </contour>
    <contour>
      <point x="-193" y="-260" type="curve" smooth="yes"/>
      <point x="-138" y="-260"/>
      <point x="-98" y="-249"/>
      <point x="-59" y="-225" type="curve"/>
      <point x="-63" y="-199" type="line"/>
      <point x="-103" y="-224"/>
      <point x="-142" y="-234"/>
      <point x="-193" y="-234" type="curve" smooth="yes"/>
      <point x="-249" y="-234"/>
      <point x="-283" y="-224"/>
      <point x="-322" y="-199" type="curve"/>
      <point x="-326" y="-225" type="line"/>
      <point x="-290" y="-247"/>
      <point x="-254" y="-260"/>
    </contour>
  </outline>
</glyph>
<glyph name="uumatralowguru" format="2">
  <outline>
    <contour>
      <point x="-229" y="-226" type="curve" smooth="yes"/>
      <point x="-172" y="-226"/>
      <point x="-130" y="-215"/>
      <point x="-91" y="-191" type="curve"/>
      <point x="-95" y="-166" type="line"/>
      <point x="-135" y="-191"/>
      <point x="-176" y="-201"/>
      <point x="-229" y="-201" type="curve" smooth="yes"/>
      <point x="-287" y="-201"/>
      <point x="-323" y="-191"/>
      <point x="-362" y="-166" type="curve"/>
      <point x="-366" y="-191" type="line"/>
      <point x="-330" y="-213"/>
      <point x="-292" y="-226"/>
    </contour>
    <contour>
      <point x="-229" y="-342" type="curve" smooth="yes"/>
      <point x="-172" y="-342"/>
      <point x="-130" y="-331"/>
      <point x="-91" y="-307" type="curve"/>
      <point x="-95" y="-282" type="line"/>
      <point x="-135" y="-307"/>
      <point x="-176" y="-317"/>
      <point x="-229" y="-317" type="curve" smooth="yes"/>
      <point x="-287" y="-317"/>
      <point x="-323" y="-307"/>
      <point x="-362" y="-282" type="curve"/>
      <point x="-366" y="-307" type="line"/>
      <point x="-330" y="-329"/>
      <point x="-292" y="-342"/>
    </contour>
  </outline>
</glyph>
<glyph name="vasubscript1guru" format="2">
  <outline>
    <contour>
      <point x="-165" y="-181" type="curve" smooth="yes"/>
      <point x="-74" y="-181" type="line"/>
      <point x="-74" y="-156" type="line"/>
      <point x="-165" y="-156" type="line" smooth="yes"/>
      <point x="-217" y="-156"/>
      <point x="-239" y="-140"/>
      <point x="-239" y="-105" type="curve" smooth="yes"/>
      <point x="-239" y="-75"/>
      <point x="-218" y="-62"/>
      <point x="-180" y="-62" type="curve" smooth="yes"/>
      <point x="-90" y="-62" type="line"/>
      <point x="-77" y="-48" type="line"/>
      <point x="-77" y="30" type="line"/>
      <point x="-103" y="21" type="line"/>
      <point x="-103" y="-37" type="line"/>
      <point x="-175" y="-37" type="line" smooth="yes"/>
      <point x="-228" y="-37"/>
      <point x="-265" y="-56"/>
      <point x="-265" y="-104" type="curve" smooth="yes"/>
      <point x="-265" y="-157"/>
      <point x="-227" y="-181"/>
    </contour>
    <contour>
      <point x="-131" y="-307" type="curve" smooth="yes"/>
      <point x="-103" y="-307"/>
      <point x="-88" y="-305"/>
      <point x="-61" y="-298" type="curve"/>
      <point x="-68" y="-274" type="line"/>
      <point x="-92" y="-280"/>
      <point x="-107" y="-281"/>
      <point x="-131" y="-281" type="curve" smooth="yes"/>
      <point x="-174" y="-281"/>
      <point x="-202" y="-265"/>
      <point x="-202" y="-229" type="curve" smooth="yes"/>
      <point x="-202" y="-200"/>
      <point x="-186" y="-181"/>
      <point x="-146" y="-181" type="curve" smooth="yes"/>
      <point x="-129" y="-181" type="line"/>
      <point x="-168" y="-164" type="line"/>
      <point x="-202" y="-170"/>
      <point x="-228" y="-190"/>
      <point x="-228" y="-229" type="curve" smooth="yes"/>
      <point x="-228" y="-278"/>
      <point x="-190" y="-307"/>
    </contour>
  </outline>
</glyph>
<glyph name="vasubscriptUIguru" format="2">
  <outline>
    <contour>
      <point x="-172" y="-159" type="curve" smooth="yes"/>
      <point x="-74" y="-159" type="line"/>
      <point x="-74" y="-134" type="line"/>
      <point x="-172" y="-134" type="line" smooth="yes"/>
      <point x="-221" y="-134"/>
      <point x="-239" y="-120"/>
      <point x="-239" y="-90" type="curve" smooth="yes"/>
      <point x="-239" y="-65"/>
      <point x="-218" y="-54"/>
      <point x="-188" y="-54" type="curve" smooth="yes"/>
      <point x="-90" y="-54" type="line"/>
      <point x="-77" y="-40" type="line"/>
      <point x="-77" y="0" type="line"/>
      <point x="-103" y="0" type="line"/>
      <point x="-103" y="-29" type="line"/>
      <point x="-183" y="-29" type="line" smooth="yes"/>
      <point x="-228" y="-29"/>
      <point x="-265" y="-46"/>
      <point x="-265" y="-89" type="curve" smooth="yes"/>
      <point x="-265" y="-137"/>
      <point x="-227" y="-159"/>
    </contour>
    <contour>
      <point x="-131" y="-271" type="curve" smooth="yes"/>
      <point x="-103" y="-271"/>
      <point x="-88" y="-269"/>
      <point x="-61" y="-262" type="curve"/>
      <point x="-68" y="-238" type="line"/>
      <point x="-92" y="-244"/>
      <point x="-107" y="-245"/>
      <point x="-131" y="-245" type="curve" smooth="yes"/>
      <point x="-174" y="-245"/>
      <point x="-202" y="-229"/>
      <point x="-202" y="-199" type="curve" smooth="yes"/>
      <point x="-202" y="-171"/>
      <point x="-185" y="-159"/>
      <point x="-146" y="-159" type="curve" smooth="yes"/>
      <point x="-129" y="-159" type="line"/>
      <point x="-166" y="-142" type="line"/>
      <point x="-198" y="-147"/>
      <point x="-228" y="-161"/>
      <point x="-228" y="-201" type="curve" smooth="yes"/>
      <point x="-228" y="-244"/>
      <point x="-190" y="-271"/>
    </contour>
  </outline>
</glyph>
<glyph name="vasubscripthalantguru" format="2">
  <outline>
    <contour>
      <point x="-191" y="-177" type="curve" smooth="yes"/>
      <point x="-110" y="-177" type="line"/>
      <point x="-110" y="-152" type="line"/>
      <point x="-191" y="-152" type="line" smooth="yes"/>
      <point x="-243" y="-152"/>
      <point x="-265" y="-136"/>
      <point x="-265" y="-102" type="curve" smooth="yes"/>
      <point x="-265" y="-73"/>
      <point x="-244" y="-60"/>
      <point x="-206" y="-60" type="curve" smooth="yes"/>
      <point x="-126" y="-60" type="line"/>
      <point x="-113" y="-46" type="line"/>
      <point x="-113" y="-10" type="line"/>
      <point x="-139" y="-10" type="line"/>
      <point x="-139" y="-35" type="line"/>
      <point x="-201" y="-35" type="line" smooth="yes"/>
      <point x="-254" y="-35"/>
      <point x="-291" y="-54"/>
      <point x="-291" y="-101" type="curve" smooth="yes"/>
      <point x="-291" y="-153"/>
      <point x="-253" y="-177"/>
    </contour>
    <contour>
      <point x="-159" y="-301" type="curve" smooth="yes"/>
      <point x="-139" y="-301"/>
      <point x="-124" y="-299"/>
      <point x="-97" y="-292" type="curve"/>
      <point x="-104" y="-268" type="line"/>
      <point x="-128" y="-274"/>
      <point x="-143" y="-275"/>
      <point x="-159" y="-275" type="curve" smooth="yes"/>
      <point x="-200" y="-275"/>
      <point x="-228" y="-259"/>
      <point x="-228" y="-224" type="curve" smooth="yes"/>
      <point x="-228" y="-196"/>
      <point x="-212" y="-177"/>
      <point x="-172" y="-177" type="curve" smooth="yes"/>
      <point x="-155" y="-177" type="line"/>
      <point x="-194" y="-160" type="line"/>
      <point x="-228" y="-166"/>
      <point x="-254" y="-186"/>
      <point x="-254" y="-224" type="curve" smooth="yes"/>
      <point x="-254" y="-272"/>
      <point x="-216" y="-301"/>
    </contour>
    <contour>
      <point x="85" y="-398" type="curve"/>
      <point x="110" y="-391" type="line"/>
      <point x="64" y="-262"/>
      <point x="4" y="-225"/>
      <point x="-67" y="-225" type="curve" smooth="yes"/>
      <point x="-72" y="-225"/>
      <point x="-79" y="-225"/>
      <point x="-85" y="-226" type="curve"/>
      <point x="-83" y="-252" type="line"/>
      <point x="-76" y="-251"/>
      <point x="-72" y="-251"/>
      <point x="-67" y="-251" type="curve" smooth="yes"/>
      <point x="-16" y="-251"/>
      <point x="41" y="-272"/>
    </contour>
  </outline>
</glyph>
